<?xml version="1.0" encoding="UTF-8" standalone="no"?>
<!DOCTYPE svg PUBLIC "-//W3C//DTD SVG 1.1//EN"
 "http://www.w3.org/Graphics/SVG/1.1/DTD/svg11.dtd">
<!-- Generated by graphviz version 2.26.3 (20100126.1600)
 -->
<!-- Title: Perl Pages: 1 -->
<svg width="694pt" height="254pt"
 viewBox="0.00 0.00 694.00 254.00" xmlns="http://www.w3.org/2000/svg" xmlns:xlink="http://www.w3.org/1999/xlink">
<g id="graph1" class="graph" transform="scale(1 1) rotate(0) translate(4 250)">
<title>Perl</title>
<polygon fill="white" stroke="white" points="-4,5 -4,-250 691,-250 691,5 -4,5"/>
<text text-anchor="middle" x="343" y="-10.4" font-family="Times Roman,serif" font-size="14.00">Graph produced by GraphViz2::Data::Grapher&#39;s scripts/cluster.pl</text>
<g id="graph2" class="cluster"><title>cluster_Europe</title>
<polygon fill="grey" stroke="black" points="8,-35 8,-238 106,-238 106,-35 8,-35"/>
<text text-anchor="middle" x="57" y="-221.4" font-family="Times Roman,serif" font-size="14.00">Europe</text>
</g>
<g id="graph3" class="cluster"><title>cluster_Australia</title>
<polygon fill="grey" stroke="black" points="228,-49 228,-238 524,-238 524,-49 228,-49"/>
<text text-anchor="middle" x="376" y="-221.4" font-family="Times Roman,serif" font-size="14.00">Australia</text>
</g>
<!-- London -->
<g id="node2" class="node"><title>London</title>
<ellipse fill="none" stroke="blue" cx="57" cy="-184" rx="41.2167" ry="19.0919"/>
<text text-anchor="middle" x="57" y="-180.9" font-family="Times Roman,serif" font-size="14.00">London</text>
</g>
<!-- Paris -->
<g id="node3" class="node"><title>Paris</title>
<ellipse fill="none" stroke="green" cx="57" cy="-76" rx="38.8909" ry="32.5269"/>
<text text-anchor="middle" x="57" y="-82.4" font-family="Times Roman,serif" font-size="14.00">City of</text>
<text text-anchor="middle" x="57" y="-63.4" font-family="Times Roman,serif" font-size="14.00">lurve</text>
</g>
<!-- London&#45;&gt;Paris -->
<g id="edge3" class="edge"><title>London&#45;&gt;Paris</title>
<path fill="none" stroke="grey" d="M51.7085,-164.94C50.4419,-152.124 50.0003,-134.707 50.3836,-118.681"/>
<polygon fill="grey" stroke="grey" points="53.8911,-118.534 50.7542,-108.414 46.8956,-118.281 53.8911,-118.534"/>
</g>
<!-- New York -->
<g id="node6" class="node"><title>New York</title>
<ellipse fill="none" stroke="yellow" cx="166" cy="-76" rx="51.8276" ry="19.0919"/>
<text text-anchor="middle" x="166" y="-72.9" font-family="Times Roman,serif" font-size="14.00">New York</text>
</g>
<!-- London&#45;&gt;New York -->
<g id="edge7" class="edge"><title>London&#45;&gt;New York</title>
<path fill="none" stroke="grey" d="M74.5127,-166.648C92.3357,-148.989 120.151,-121.428 140.435,-101.33"/>
<polygon fill="grey" stroke="grey" points="143.164,-103.554 147.804,-94.0293 138.237,-98.5814 143.164,-103.554"/>
<text text-anchor="middle" x="121.5" y="-133.9" font-family="Times Roman,serif" font-size="14.00">Far</text>
</g>
<!-- Paris&#45;&gt;London -->
<g id="edge5" class="edge"><title>Paris&#45;&gt;London</title>
<path fill="none" stroke="grey" d="M63.2458,-108.414C63.9692,-123.109 63.9142,-140.358 63.0806,-154.664"/>
<polygon fill="grey" stroke="grey" points="59.5675,-154.702 62.2915,-164.94 66.547,-155.238 59.5675,-154.702"/>
</g>
<!-- Victoria -->
<g id="node9" class="node"><title>Victoria</title>
<ellipse fill="none" stroke="blue" cx="392" cy="-184" rx="43.1335" ry="19.0919"/>
<text text-anchor="middle" x="392" y="-180.9" font-family="Times Roman,serif" font-size="14.00">Victoria</text>
</g>
<!-- New South Wales -->
<g id="node10" class="node"><title>New South Wales</title>
<ellipse fill="none" stroke="green" cx="318" cy="-76" rx="82.0244" ry="19.0919"/>
<text text-anchor="middle" x="318" y="-72.9" font-family="Times Roman,serif" font-size="14.00">New South Wales</text>
</g>
<!-- Victoria&#45;&gt;New South Wales -->
<g id="edge10" class="edge"><title>Victoria&#45;&gt;New South Wales</title>
<path fill="none" stroke="grey" d="M379.447,-165.679C367.718,-148.561 350.057,-122.786 336.674,-103.254"/>
<polygon fill="grey" stroke="grey" points="339.403,-101.045 330.863,-94.7736 333.628,-105.001 339.403,-101.045"/>
</g>
<!-- Tasmania -->
<g id="node11" class="node"><title>Tasmania</title>
<ellipse fill="none" stroke="red" cx="467" cy="-76" rx="48.9975" ry="19.0919"/>
<text text-anchor="middle" x="467" y="-72.9" font-family="Times Roman,serif" font-size="14.00">Tasmania</text>
</g>
<!-- Victoria&#45;&gt;Tasmania -->
<g id="edge12" class="edge"><title>Victoria&#45;&gt;Tasmania</title>
<path fill="none" stroke="grey" d="M404.723,-165.679C416.736,-148.379 434.891,-122.237 448.504,-102.634"/>
<polygon fill="grey" stroke="grey" points="451.386,-104.621 454.215,-94.4106 445.636,-100.628 451.386,-104.621"/>
</g>
<!-- cluster_Australia -->
<g id="node14" class="node"><title>cluster_Australia</title>
<ellipse fill="none" stroke="black" cx="609" cy="-184" rx="77.0746" ry="19.0919"/>
<text text-anchor="middle" x="609" y="-180.9" font-family="Times Roman,serif" font-size="14.00">cluster_Australia</text>
</g>
<!-- cluster_Europe -->
<g id="node15" class="node"><title>cluster_Europe</title>
<ellipse fill="none" stroke="black" cx="609" cy="-76" rx="68.7979" ry="19.0919"/>
<text text-anchor="middle" x="609" y="-72.9" font-family="Times Roman,serif" font-size="14.00">cluster_Europe</text>
</g>
<!-- cluster_Australia&#45;&gt;cluster_Europe -->
<g id="edge14" class="edge"><title>cluster_Australia&#45;&gt;cluster_Europe</title>
<path fill="none" stroke="grey" d="M609,-164.94C609,-148.463 609,-124.378 609,-105.426"/>
<polygon fill="grey" stroke="grey" points="612.5,-105.232 609,-95.2324 605.5,-105.232 612.5,-105.232"/>
</g>
</g>
</svg>
