<?xml version="1.0" encoding="UTF-8" standalone="no"?>
<!DOCTYPE svg PUBLIC "-//W3C//DTD SVG 1.1//EN"
 "http://www.w3.org/Graphics/SVG/1.1/DTD/svg11.dtd">
<!-- Generated by graphviz version 2.26.3 (20100126.1600)
 -->
<!-- Title: Perl Pages: 1 -->
<svg width="1067pt" height="831pt"
 viewBox="0.00 0.00 1067.25 831.00" xmlns="http://www.w3.org/2000/svg" xmlns:xlink="http://www.w3.org/1999/xlink">
<g id="graph1" class="graph" transform="scale(1 1) rotate(0) translate(4 827)">
<title>Perl</title>
<polygon fill="white" stroke="white" points="-4,5 -4,-827 1064.25,-827 1064.25,5 -4,5"/>
<text text-anchor="middle" x="529.625" y="-10.4" font-family="Times Roman,serif" font-size="14.00">Graph produced by GraphViz2::Data::Grapher&#39;s scripts/dbi.schema.pl</text>
<!-- asset_types -->
<g id="node1" class="node"><title>asset_types</title>
<polygon fill="none" stroke="darkblue" points="47.2507,-401 47.2507,-531 145.251,-531 145.251,-401 47.2507,-401"/>
<text text-anchor="middle" x="96.2507" y="-514.4" font-family="Times Roman,serif" font-size="14.00">asset_types</text>
<polyline fill="none" stroke="darkblue" points="47.2507,-504 145.251,-504 "/>
<text text-anchor="start" x="55.2507" y="-487.4" font-family="Times Roman,serif" font-size="14.00">1: file_name</text>
<text text-anchor="start" x="55.2507" y="-468.4" font-family="Times Roman,serif" font-size="14.00">2: file_path</text>
<text text-anchor="start" x="55.2507" y="-449.4" font-family="Times Roman,serif" font-size="14.00">3: id</text>
<text text-anchor="start" x="55.2507" y="-430.4" font-family="Times Roman,serif" font-size="14.00">4: name</text>
<text text-anchor="start" x="55.2507" y="-411.4" font-family="Times Roman,serif" font-size="14.00">5: upper_name</text>
</g>
<!-- assets -->
<g id="node2" class="node"><title>assets</title>
<polygon fill="none" stroke="darkblue" points="159.251,-597 159.251,-727 263.251,-727 263.251,-597 159.251,-597"/>
<text text-anchor="middle" x="211.251" y="-710.4" font-family="Times Roman,serif" font-size="14.00">assets</text>
<polyline fill="none" stroke="darkblue" points="159.251,-700 263.251,-700 "/>
<text text-anchor="start" x="167.251" y="-683.4" font-family="Times Roman,serif" font-size="14.00">1: asset_type_id</text>
<text text-anchor="start" x="167.251" y="-664.4" font-family="Times Roman,serif" font-size="14.00">2: design_id</text>
<text text-anchor="start" x="167.251" y="-645.4" font-family="Times Roman,serif" font-size="14.00">3: id</text>
<text text-anchor="start" x="167.251" y="-626.4" font-family="Times Roman,serif" font-size="14.00">4: page_id</text>
<text text-anchor="start" x="167.251" y="-607.4" font-family="Times Roman,serif" font-size="14.00">5: site_id</text>
</g>
<!-- assets&#45;&gt;asset_types -->
<g id="edge8" class="edge"><title>assets:port2&#45;&gt;asset_types:port2</title>
<path fill="none" stroke="grey" d="M210.251,-596C210.251,-565.771 173.588,-577.613 159.251,-551 150.483,-534.725 161.995,-476.997 153.312,-458.064"/>
<polygon fill="grey" stroke="grey" points="155.346,-455.214 145.251,-452 151.138,-460.808 155.346,-455.214"/>
</g>
<!-- designs -->
<g id="node4" class="node"><title>designs</title>
<polygon fill="none" stroke="darkblue" points="325.251,-157.5 325.251,-344.5 469.251,-344.5 469.251,-157.5 325.251,-157.5"/>
<text text-anchor="middle" x="397.251" y="-327.9" font-family="Times Roman,serif" font-size="14.00">designs</text>
<polyline fill="none" stroke="darkblue" points="325.251,-317.5 469.251,-317.5 "/>
<text text-anchor="start" x="333.251" y="-300.9" font-family="Times Roman,serif" font-size="14.00">1: id</text>
<text text-anchor="start" x="333.251" y="-281.9" font-family="Times Roman,serif" font-size="14.00">2: menu_orientation_id</text>
<text text-anchor="start" x="333.251" y="-262.9" font-family="Times Roman,serif" font-size="14.00">3: name</text>
<text text-anchor="start" x="333.251" y="-243.9" font-family="Times Roman,serif" font-size="14.00">4: os_type_id</text>
<text text-anchor="start" x="333.251" y="-224.9" font-family="Times Roman,serif" font-size="14.00">5: output_directory</text>
<text text-anchor="start" x="333.251" y="-205.9" font-family="Times Roman,serif" font-size="14.00">6: output_doc_root</text>
<text text-anchor="start" x="333.251" y="-186.9" font-family="Times Roman,serif" font-size="14.00">7: site_id</text>
<text text-anchor="start" x="333.251" y="-167.9" font-family="Times Roman,serif" font-size="14.00">8: upper_name</text>
</g>
<!-- assets&#45;&gt;designs -->
<g id="edge2" class="edge"><title>assets:port2&#45;&gt;designs:port2</title>
<path fill="none" stroke="grey" d="M210.251,-596C210.251,-431.894 159.842,-244.843 315.218,-237.24"/>
<polygon fill="grey" stroke="grey" points="315.337,-240.738 325.251,-237 315.17,-233.74 315.337,-240.738"/>
</g>
<!-- pages -->
<g id="node11" class="node"><title>pages</title>
<polygon fill="none" stroke="darkblue" points="239.251,-382 239.251,-550 337.251,-550 337.251,-382 239.251,-382"/>
<text text-anchor="middle" x="288.251" y="-533.4" font-family="Times Roman,serif" font-size="14.00">pages</text>
<polyline fill="none" stroke="darkblue" points="239.251,-523 337.251,-523 "/>
<text text-anchor="start" x="247.251" y="-506.4" font-family="Times Roman,serif" font-size="14.00">1: context</text>
<text text-anchor="start" x="247.251" y="-487.4" font-family="Times Roman,serif" font-size="14.00">2: design_id</text>
<text text-anchor="start" x="247.251" y="-468.4" font-family="Times Roman,serif" font-size="14.00">3: homepage</text>
<text text-anchor="start" x="247.251" y="-449.4" font-family="Times Roman,serif" font-size="14.00">4: id</text>
<text text-anchor="start" x="247.251" y="-430.4" font-family="Times Roman,serif" font-size="14.00">5: name</text>
<text text-anchor="start" x="247.251" y="-411.4" font-family="Times Roman,serif" font-size="14.00">6: site_id</text>
<text text-anchor="start" x="247.251" y="-392.4" font-family="Times Roman,serif" font-size="14.00">7: upper_name</text>
</g>
<!-- assets&#45;&gt;pages -->
<g id="edge6" class="edge"><title>assets:port2&#45;&gt;pages:port2</title>
<path fill="none" stroke="grey" d="M210.251,-596C210.251,-574.918 220.422,-571.521 225.251,-551 229.505,-532.92 220.903,-475.887 230.945,-457.66"/>
<polygon fill="grey" stroke="grey" points="232.958,-460.524 239.251,-452 229.016,-454.739 232.958,-460.524"/>
</g>
<!-- sites -->
<g id="node13" class="node"><title>sites</title>
<polygon fill="none" stroke="darkblue" points="210.251,-28 210.251,-120 308.251,-120 308.251,-28 210.251,-28"/>
<text text-anchor="middle" x="259.251" y="-103.4" font-family="Times Roman,serif" font-size="14.00">sites</text>
<polyline fill="none" stroke="darkblue" points="210.251,-93 308.251,-93 "/>
<text text-anchor="start" x="218.251" y="-76.4" font-family="Times Roman,serif" font-size="14.00">1: id</text>
<text text-anchor="start" x="218.251" y="-57.4" font-family="Times Roman,serif" font-size="14.00">2: name</text>
<text text-anchor="start" x="218.251" y="-38.4" font-family="Times Roman,serif" font-size="14.00">3: upper_name</text>
</g>
<!-- assets&#45;&gt;sites -->
<g id="edge4" class="edge"><title>assets:port2&#45;&gt;sites:port2</title>
<path fill="none" stroke="grey" d="M210.251,-596C210.251,-575.411 201.713,-571.441 199.251,-551 188.041,-457.933 201.058,-131.67 208.212,-70.0733"/>
<polygon fill="grey" stroke="grey" points="211.697,-70.4956 210.251,-60 204.836,-69.107 211.697,-70.4956"/>
</g>
<!-- contents -->
<g id="node3" class="node"><title>contents</title>
<polygon fill="none" stroke="darkblue" points="325.751,-587.5 325.751,-736.5 410.751,-736.5 410.751,-587.5 325.751,-587.5"/>
<text text-anchor="middle" x="368.251" y="-719.9" font-family="Times Roman,serif" font-size="14.00">contents</text>
<polyline fill="none" stroke="darkblue" points="325.751,-709.5 410.751,-709.5 "/>
<text text-anchor="start" x="333.751" y="-692.9" font-family="Times Roman,serif" font-size="14.00">1: body_text</text>
<text text-anchor="start" x="333.751" y="-673.9" font-family="Times Roman,serif" font-size="14.00">2: design_id</text>
<text text-anchor="start" x="333.751" y="-654.9" font-family="Times Roman,serif" font-size="14.00">3: head_text</text>
<text text-anchor="start" x="333.751" y="-635.9" font-family="Times Roman,serif" font-size="14.00">4: id</text>
<text text-anchor="start" x="333.751" y="-616.9" font-family="Times Roman,serif" font-size="14.00">5: page_id</text>
<text text-anchor="start" x="333.751" y="-597.9" font-family="Times Roman,serif" font-size="14.00">6: site_id</text>
</g>
<!-- contents&#45;&gt;designs -->
<g id="edge10" class="edge"><title>contents:port2&#45;&gt;designs:port2</title>
<path fill="none" stroke="grey" d="M367.251,-587C367.251,-570.135 374.291,-567.12 379.251,-551 402.337,-475.962 384.972,-447.153 427.251,-381 440.49,-360.284 458.977,-367.336 469.251,-345 477.751,-326.517 489.085,-261.768 477.724,-242.469"/>
<polygon fill="grey" stroke="grey" points="479.551,-239.482 469.251,-237 475.754,-245.364 479.551,-239.482"/>
</g>
<!-- contents&#45;&gt;pages -->
<g id="edge12" class="edge"><title>contents:port2&#45;&gt;pages:port2</title>
<path fill="none" stroke="grey" d="M367.251,-587C367.251,-569.491 356.079,-567.83 351.251,-551 346.129,-533.146 355.313,-475.961 345.486,-457.678"/>
<polygon fill="grey" stroke="grey" points="347.47,-454.795 337.251,-452 343.497,-460.558 347.47,-454.795"/>
</g>
<!-- contents&#45;&gt;sites -->
<g id="edge14" class="edge"><title>contents:port2&#45;&gt;sites:port2</title>
<path fill="none" stroke="grey" d="M367.251,-587C367.251,-494.97 381.933,-465.831 346.251,-381 338.175,-361.802 323.615,-364.482 316.251,-345 313.768,-338.431 315.625,-119.425 310.556,-69.8904"/>
<polygon fill="grey" stroke="grey" points="313.929,-68.9444 308.251,-60 307.112,-70.5335 313.929,-68.9444"/>
</g>
<!-- menu_orientations -->
<g id="node8" class="node"><title>menu_orientations</title>
<polygon fill="none" stroke="darkblue" points="388.251,-37.5 388.251,-110.5 506.251,-110.5 506.251,-37.5 388.251,-37.5"/>
<text text-anchor="middle" x="447.251" y="-93.9" font-family="Times Roman,serif" font-size="14.00">menu_orientations</text>
<polyline fill="none" stroke="darkblue" points="388.251,-83.5 506.251,-83.5 "/>
<text text-anchor="start" x="396.251" y="-66.9" font-family="Times Roman,serif" font-size="14.00">1: id</text>
<text text-anchor="start" x="396.251" y="-47.9" font-family="Times Roman,serif" font-size="14.00">2: name</text>
</g>
<!-- designs&#45;&gt;menu_orientations -->
<g id="edge20" class="edge"><title>designs:port2&#45;&gt;menu_orientations:port2</title>
<path fill="none" stroke="grey" d="M396.251,-157C396.251,-117.967 354.516,-70.3966 378.146,-61.4778"/>
<polygon fill="grey" stroke="grey" points="378.862,-64.9103 388.251,-60 377.849,-57.984 378.862,-64.9103"/>
</g>
<!-- os_types -->
<g id="node10" class="node"><title>os_types</title>
<polygon fill="none" stroke="darkblue" points="742.251,-37.5 742.251,-110.5 806.251,-110.5 806.251,-37.5 742.251,-37.5"/>
<text text-anchor="middle" x="774.251" y="-93.9" font-family="Times Roman,serif" font-size="14.00">os_types</text>
<polyline fill="none" stroke="darkblue" points="742.251,-83.5 806.251,-83.5 "/>
<text text-anchor="start" x="750.251" y="-66.9" font-family="Times Roman,serif" font-size="14.00">1: id</text>
<text text-anchor="start" x="750.251" y="-47.9" font-family="Times Roman,serif" font-size="14.00">2: name</text>
</g>
<!-- designs&#45;&gt;os_types -->
<g id="edge18" class="edge"><title>designs:port2&#45;&gt;os_types:port2</title>
<path fill="none" stroke="grey" d="M469.251,-237C610.324,-237 598.343,-68.5371 731.942,-60.3113"/>
<polygon fill="grey" stroke="grey" points="732.361,-63.8004 742.251,-60 732.15,-56.8036 732.361,-63.8004"/>
</g>
<!-- designs&#45;&gt;sites -->
<g id="edge16" class="edge"><title>designs:port2&#45;&gt;sites:port2</title>
<path fill="none" stroke="grey" d="M396.251,-157C396.251,-144.494 342.008,-81.8458 317.516,-64.4732"/>
<polygon fill="grey" stroke="grey" points="318.778,-61.1959 308.251,-60 315.734,-67.4997 318.778,-61.1959"/>
</g>
<!-- event_types -->
<g id="node5" class="node"><title>event_types</title>
<polygon fill="none" stroke="darkblue" points="507.251,-616 507.251,-708 605.251,-708 605.251,-616 507.251,-616"/>
<text text-anchor="middle" x="556.251" y="-691.4" font-family="Times Roman,serif" font-size="14.00">event_types</text>
<polyline fill="none" stroke="darkblue" points="507.251,-681 605.251,-681 "/>
<text text-anchor="start" x="515.251" y="-664.4" font-family="Times Roman,serif" font-size="14.00">1: id</text>
<text text-anchor="start" x="515.251" y="-645.4" font-family="Times Roman,serif" font-size="14.00">2: name</text>
<text text-anchor="start" x="515.251" y="-626.4" font-family="Times Roman,serif" font-size="14.00">3: upper_name</text>
</g>
<!-- events -->
<g id="node6" class="node"><title>events</title>
<polygon fill="none" stroke="darkblue" points="622.751,-616 622.751,-708 711.751,-708 711.751,-616 622.751,-616"/>
<text text-anchor="middle" x="667.251" y="-691.4" font-family="Times Roman,serif" font-size="14.00">events</text>
<polyline fill="none" stroke="darkblue" points="622.751,-681 711.751,-681 "/>
<text text-anchor="start" x="630.751" y="-664.4" font-family="Times Roman,serif" font-size="14.00">1: id</text>
<text text-anchor="start" x="630.751" y="-645.4" font-family="Times Roman,serif" font-size="14.00">2: id_list</text>
<text text-anchor="start" x="630.751" y="-626.4" font-family="Times Roman,serif" font-size="14.00">3: timestamp</text>
</g>
<!-- log -->
<g id="node7" class="node"><title>log</title>
<polygon fill="none" stroke="darkblue" points="728.751,-606.5 728.751,-717.5 817.751,-717.5 817.751,-606.5 728.751,-606.5"/>
<text text-anchor="middle" x="773.251" y="-700.9" font-family="Times Roman,serif" font-size="14.00">log</text>
<polyline fill="none" stroke="darkblue" points="728.751,-690.5 817.751,-690.5 "/>
<text text-anchor="start" x="736.751" y="-673.9" font-family="Times Roman,serif" font-size="14.00">1: id</text>
<text text-anchor="start" x="736.751" y="-654.9" font-family="Times Roman,serif" font-size="14.00">2: level</text>
<text text-anchor="start" x="736.751" y="-635.9" font-family="Times Roman,serif" font-size="14.00">3: message</text>
<text text-anchor="start" x="736.751" y="-616.9" font-family="Times Roman,serif" font-size="14.00">4: timestamp</text>
</g>
<!-- menus -->
<g id="node9" class="node"><title>menus</title>
<polygon fill="none" stroke="darkblue" points="834.751,-587.5 834.751,-736.5 921.751,-736.5 921.751,-587.5 834.751,-587.5"/>
<text text-anchor="middle" x="878.251" y="-719.9" font-family="Times Roman,serif" font-size="14.00">menus</text>
<polyline fill="none" stroke="darkblue" points="834.751,-709.5 921.751,-709.5 "/>
<text text-anchor="start" x="842.751" y="-692.9" font-family="Times Roman,serif" font-size="14.00">1: context</text>
<text text-anchor="start" x="842.751" y="-673.9" font-family="Times Roman,serif" font-size="14.00">2: id</text>
<text text-anchor="start" x="842.751" y="-654.9" font-family="Times Roman,serif" font-size="14.00">3: mother_id</text>
<text text-anchor="start" x="842.751" y="-635.9" font-family="Times Roman,serif" font-size="14.00">4: name</text>
<text text-anchor="start" x="842.751" y="-616.9" font-family="Times Roman,serif" font-size="14.00">5: page_id</text>
<text text-anchor="start" x="842.751" y="-597.9" font-family="Times Roman,serif" font-size="14.00">6: unique_id</text>
</g>
<!-- pages&#45;&gt;designs -->
<g id="edge22" class="edge"><title>pages:port2&#45;&gt;designs:port2</title>
<path fill="none" stroke="grey" d="M287.251,-381C287.251,-318.429 262.059,-245.476 315.218,-237.683"/>
<polygon fill="grey" stroke="grey" points="315.512,-241.172 325.251,-237 315.036,-234.188 315.512,-241.172"/>
</g>
<!-- pages&#45;&gt;sites -->
<g id="edge24" class="edge"><title>pages:port2&#45;&gt;sites:port2</title>
<path fill="none" stroke="grey" d="M287.251,-381C287.251,-364.902 284.141,-361.074 283.251,-345 278.63,-261.572 258.537,-236.817 283.251,-157 289.066,-138.217 302.435,-139.283 308.251,-120.5 314.899,-99.0283 329.222,-71.1777 318.036,-62.6172"/>
<polygon fill="grey" stroke="grey" points="318.815,-59.2028 308.251,-60 317.007,-65.9651 318.815,-59.2028"/>
</g>
<!-- sessions -->
<g id="node12" class="node"><title>sessions</title>
<polygon fill="none" stroke="darkblue" points="976.751,-625.5 976.751,-698.5 1059.75,-698.5 1059.75,-625.5 976.751,-625.5"/>
<text text-anchor="middle" x="1018.25" y="-681.9" font-family="Times Roman,serif" font-size="14.00">sessions</text>
<polyline fill="none" stroke="darkblue" points="976.751,-671.5 1059.75,-671.5 "/>
<text text-anchor="start" x="984.751" y="-654.9" font-family="Times Roman,serif" font-size="14.00">1: a_session</text>
<text text-anchor="start" x="984.751" y="-635.9" font-family="Times Roman,serif" font-size="14.00">2: id</text>
</g>
<!-- App&#45;Office&#45;CMS -->
<g id="node26" class="node"><title>App&#45;Office&#45;CMS</title>
<polygon fill="none" stroke="darkblue" points="565.259,-789.44 565.259,-806.56 514.877,-818.665 443.625,-818.665 393.242,-806.56 393.242,-789.44 443.625,-777.335 514.877,-777.335 565.259,-789.44"/>
<polygon fill="none" stroke="darkblue" points="569.237,-786.283 569.237,-809.717 515.345,-822.665 443.156,-822.665 389.264,-809.717 389.264,-786.283 443.156,-773.335 515.345,-773.335 569.237,-786.283"/>
<text text-anchor="middle" x="479.251" y="-794.9" font-family="Times Roman,serif" font-size="14.00">App&#45;Office&#45;CMS</text>
</g>
<!-- App&#45;Office&#45;CMS&#45;&gt;asset_types -->
<g id="edge26" class="edge"><title>App&#45;Office&#45;CMS&#45;&gt;asset_types</title>
<path fill="none" stroke="grey" d="M389.109,-792.47C303.576,-785.309 183.331,-769.641 150.251,-737 99.1664,-686.594 89.3455,-602.558 90.0068,-541.409"/>
<polygon fill="grey" stroke="grey" points="93.5137,-541.108 90.2209,-531.037 86.5152,-540.963 93.5137,-541.108"/>
</g>
<!-- App&#45;Office&#45;CMS&#45;&gt;assets -->
<g id="edge28" class="edge"><title>App&#45;Office&#45;CMS&#45;&gt;assets</title>
<path fill="none" stroke="grey" d="M400.504,-783.389C362.781,-774.021 318.123,-759.317 282.251,-737 278.466,-734.645 274.747,-732.041 271.116,-729.257"/>
<polygon fill="grey" stroke="grey" points="273.282,-726.507 263.318,-722.904 268.861,-731.934 273.282,-726.507"/>
</g>
<!-- App&#45;Office&#45;CMS&#45;&gt;contents -->
<g id="edge30" class="edge"><title>App&#45;Office&#45;CMS&#45;&gt;contents</title>
<path fill="none" stroke="grey" d="M457.775,-773.257C448.314,-762.241 437.126,-749.058 427.251,-737 423.988,-733.017 420.648,-728.895 417.298,-724.728"/>
<polygon fill="grey" stroke="grey" points="419.84,-722.303 410.86,-716.682 414.375,-726.676 419.84,-722.303"/>
</g>
<!-- App&#45;Office&#45;CMS&#45;&gt;designs -->
<g id="edge32" class="edge"><title>App&#45;Office&#45;CMS&#45;&gt;designs</title>
<path fill="none" stroke="grey" d="M473.081,-773.471C470.432,-762.381 467.447,-749.08 465.251,-737 436.697,-579.92 440.057,-539.017 417.251,-381 416.018,-372.461 414.714,-363.611 413.386,-354.728"/>
<polygon fill="grey" stroke="grey" points="416.826,-354.068 411.879,-344.699 409.904,-355.108 416.826,-354.068"/>
</g>
<!-- App&#45;Office&#45;CMS&#45;&gt;event_types -->
<g id="edge34" class="edge"><title>App&#45;Office&#45;CMS&#45;&gt;event_types</title>
<path fill="none" stroke="grey" d="M493.195,-773.371C502.102,-757.639 514.018,-736.592 525.093,-717.031"/>
<polygon fill="grey" stroke="grey" points="528.227,-718.6 530.109,-708.173 522.136,-715.151 528.227,-718.6"/>
</g>
<!-- App&#45;Office&#45;CMS&#45;&gt;events -->
<g id="edge36" class="edge"><title>App&#45;Office&#45;CMS&#45;&gt;events</title>
<path fill="none" stroke="grey" d="M538.928,-778.949C563.928,-769.054 592.233,-755.172 614.251,-737 621.475,-731.038 628.175,-723.862 634.21,-716.344"/>
<polygon fill="grey" stroke="grey" points="637.219,-718.169 640.492,-708.092 631.65,-713.929 637.219,-718.169"/>
</g>
<!-- App&#45;Office&#45;CMS&#45;&gt;log -->
<g id="edge38" class="edge"><title>App&#45;Office&#45;CMS&#45;&gt;log</title>
<path fill="none" stroke="grey" d="M559.504,-783.889C619.032,-772.287 694.189,-754.897 720.251,-737 725.134,-733.646 729.717,-729.686 733.982,-725.366"/>
<polygon fill="grey" stroke="grey" points="736.724,-727.554 740.86,-717.8 731.544,-722.846 736.724,-727.554"/>
</g>
<!-- App&#45;Office&#45;CMS&#45;&gt;menu_orientations -->
<g id="edge40" class="edge"><title>App&#45;Office&#45;CMS&#45;&gt;menu_orientations</title>
<path fill="none" stroke="grey" d="M482.328,-773.265C492.374,-687.247 521.168,-393.513 478.251,-157 476.041,-144.821 472.157,-132.098 467.87,-120.376"/>
<polygon fill="grey" stroke="grey" points="471.048,-118.886 464.203,-110.799 464.511,-121.389 471.048,-118.886"/>
</g>
<!-- App&#45;Office&#45;CMS&#45;&gt;menus -->
<g id="edge42" class="edge"><title>App&#45;Office&#45;CMS&#45;&gt;menus</title>
<path fill="none" stroke="grey" d="M569.597,-790.041C657.83,-780.879 784.713,-763.583 826.251,-737 826.342,-736.941 826.434,-736.882 826.526,-736.823"/>
<polygon fill="grey" stroke="grey" points="828.776,-739.511 834.696,-730.724 824.589,-733.901 828.776,-739.511"/>
</g>
<!-- App&#45;Office&#45;CMS&#45;&gt;os_types -->
<g id="edge44" class="edge"><title>App&#45;Office&#45;CMS&#45;&gt;os_types</title>
<path fill="none" stroke="grey" d="M569.491,-792.085C694.28,-782.974 906.904,-763.717 930.251,-737 1012.22,-643.198 853.595,-254.706 794.882,-120.134"/>
<polygon fill="grey" stroke="grey" points="798.051,-118.646 790.832,-110.891 791.64,-121.455 798.051,-118.646"/>
</g>
<!-- App&#45;Office&#45;CMS&#45;&gt;pages -->
<g id="edge46" class="edge"><title>App&#45;Office&#45;CMS&#45;&gt;pages</title>
<path fill="none" stroke="grey" d="M394.701,-784.782C365.831,-775.993 336.104,-761.361 317.251,-737 279.003,-687.58 272.501,-617.024 275.169,-560.294"/>
<polygon fill="grey" stroke="grey" points="278.667,-560.416 275.744,-550.232 271.679,-560.016 278.667,-560.416"/>
</g>
<!-- App&#45;Office&#45;CMS&#45;&gt;sessions -->
<g id="edge48" class="edge"><title>App&#45;Office&#45;CMS&#45;&gt;sessions</title>
<path fill="none" stroke="grey" d="M569.338,-795.072C690.544,-789.718 898.418,-775.136 963.251,-737 975.57,-729.754 985.945,-718.552 994.249,-706.996"/>
<polygon fill="grey" stroke="grey" points="997.24,-708.82 999.926,-698.571 991.435,-704.908 997.24,-708.82"/>
</g>
<!-- App&#45;Office&#45;CMS&#45;&gt;sites -->
<g id="edge50" class="edge"><title>App&#45;Office&#45;CMS&#45;&gt;sites</title>
<path fill="none" stroke="grey" d="M388.988,-795.066C287.553,-789.899 131.39,-775.721 88.2507,-737 -30.6524,-630.275 -9.14067,-533.585 38.2507,-381 69.6628,-279.863 149.194,-184.325 203.757,-127.463"/>
<polygon fill="grey" stroke="grey" points="206.503,-129.658 210.948,-120.041 201.476,-124.787 206.503,-129.658"/>
</g>
</g>
</svg>
