<?xml version="1.0" encoding="UTF-8" standalone="no"?>
<!DOCTYPE svg PUBLIC "-//W3C//DTD SVG 1.1//EN"
 "http://www.w3.org/Graphics/SVG/1.1/DTD/svg11.dtd">
<!-- Generated by graphviz version 2.26.3 (20100126.1600)
 -->
<!-- Title: Perl Pages: 1 -->
<svg width="294pt" height="221pt"
 viewBox="0.00 0.00 294.00 221.00" xmlns="http://www.w3.org/2000/svg" xmlns:xlink="http://www.w3.org/1999/xlink">
<g id="graph1" class="graph" transform="scale(1 1) rotate(0) translate(4 217)">
<title>Perl</title>
<polygon fill="white" stroke="white" points="-4,5 -4,-217 291,-217 291,5 -4,5"/>
<text text-anchor="middle" x="143" y="-10.4" font-family="Times Roman,serif" font-size="14.00">Parent</text>
<!-- Parent -->
<g id="node1" class="node"><title>Parent</title>
<ellipse fill="none" stroke="black" cx="143" cy="-194" rx="36.0624" ry="19.0919"/>
<text text-anchor="middle" x="143" y="-190.9" font-family="Times Roman,serif" font-size="14.00">Parent</text>
</g>
<!-- Parent::Child1 -->
<g id="node2" class="node"><title>Parent::Child1</title>
<ellipse fill="none" stroke="black" cx="67" cy="-120" rx="67.1751" ry="19.0919"/>
<text text-anchor="middle" x="67" y="-116.9" font-family="Times Roman,serif" font-size="14.00">Parent::Child1</text>
</g>
<!-- Parent::Child1&#45;&gt;Parent -->
<g id="edge2" class="edge"><title>Parent::Child1&#45;&gt;Parent</title>
<path fill="none" stroke="grey" d="M85.7865,-138.292C95.6197,-147.867 107.782,-159.709 118.362,-170.01"/>
<polygon fill="grey" stroke="grey" points="116.123,-172.715 125.729,-177.184 121.006,-167.7 116.123,-172.715"/>
</g>
<!-- Parent::Child2 -->
<g id="node3" class="node"><title>Parent::Child2</title>
<ellipse fill="none" stroke="black" cx="219" cy="-120" rx="67.1751" ry="19.0919"/>
<text text-anchor="middle" x="219" y="-116.9" font-family="Times Roman,serif" font-size="14.00">Parent::Child2</text>
</g>
<!-- Parent::Child2&#45;&gt;Parent -->
<g id="edge4" class="edge"><title>Parent::Child2&#45;&gt;Parent</title>
<path fill="none" stroke="grey" d="M200.213,-138.292C190.38,-147.867 178.218,-159.709 167.638,-170.01"/>
<polygon fill="grey" stroke="grey" points="164.994,-167.7 160.271,-177.184 169.877,-172.715 164.994,-167.7"/>
</g>
<!-- Parent::Child::Grandchild -->
<g id="node4" class="node"><title>Parent::Child::Grandchild</title>
<ellipse fill="none" stroke="black" cx="143" cy="-46" rx="111.016" ry="19.0919"/>
<text text-anchor="middle" x="143" y="-42.9" font-family="Times Roman,serif" font-size="14.00">Parent::Child::Grandchild</text>
</g>
<!-- Parent::Child::Grandchild&#45;&gt;Parent::Child1 -->
<g id="edge6" class="edge"><title>Parent::Child::Grandchild&#45;&gt;Parent::Child1</title>
<path fill="none" stroke="grey" d="M123.428,-65.0568C114.246,-73.9976 103.169,-84.7827 93.27,-94.4214"/>
<polygon fill="grey" stroke="grey" points="90.7035,-92.0352 85.9804,-101.519 95.5868,-97.0505 90.7035,-92.0352"/>
</g>
<!-- Parent::Child::Grandchild&#45;&gt;Parent::Child2 -->
<g id="edge8" class="edge"><title>Parent::Child::Grandchild&#45;&gt;Parent::Child2</title>
<path fill="none" stroke="grey" d="M162.572,-65.0568C171.754,-73.9976 182.831,-84.7827 192.73,-94.4214"/>
<polygon fill="grey" stroke="grey" points="190.413,-97.0505 200.02,-101.519 195.296,-92.0352 190.413,-97.0505"/>
</g>
</g>
</svg>
