<?xml version="1.0" encoding="UTF-8" standalone="no"?>
<!DOCTYPE svg PUBLIC "-//W3C//DTD SVG 1.1//EN"
 "http://www.w3.org/Graphics/SVG/1.1/DTD/svg11.dtd">
<!-- Generated by graphviz version 2.26.3 (20100126.1600)
 -->
<!-- Title: Perl Pages: 1 -->
<svg width="454pt" height="221pt"
 viewBox="0.00 0.00 454.00 221.00" xmlns="http://www.w3.org/2000/svg" xmlns:xlink="http://www.w3.org/1999/xlink">
<g id="graph1" class="graph" transform="scale(1 1) rotate(0) translate(4 217)">
<title>Perl</title>
<polygon fill="white" stroke="white" points="-4,5 -4,-217 451,-217 451,5 -4,5"/>
<text text-anchor="middle" x="223" y="-10.4" font-family="Times Roman,serif" font-size="14.00">Parent (Graph produced by GraphViz2::Data::Grapher&#39;s scripts/dependency.pl)</text>
<!-- Parent -->
<g id="node1" class="node"><title>Parent</title>
<ellipse fill="none" stroke="black" cx="223" cy="-194" rx="36.0624" ry="19.0919"/>
<text text-anchor="middle" x="223" y="-190.9" font-family="Times Roman,serif" font-size="14.00">Parent</text>
</g>
<!-- Parent::Child1 -->
<g id="node2" class="node"><title>Parent::Child1</title>
<ellipse fill="none" stroke="black" cx="147" cy="-120" rx="67.1751" ry="19.0919"/>
<text text-anchor="middle" x="147" y="-116.9" font-family="Times Roman,serif" font-size="14.00">Parent::Child1</text>
</g>
<!-- Parent::Child1&#45;&gt;Parent -->
<g id="edge2" class="edge"><title>Parent::Child1&#45;&gt;Parent</title>
<path fill="none" stroke="grey" d="M165.787,-138.292C175.62,-147.867 187.782,-159.709 198.362,-170.01"/>
<polygon fill="grey" stroke="grey" points="196.123,-172.715 205.729,-177.184 201.006,-167.7 196.123,-172.715"/>
</g>
<!-- Parent::Child2 -->
<g id="node3" class="node"><title>Parent::Child2</title>
<ellipse fill="none" stroke="black" cx="299" cy="-120" rx="67.1751" ry="19.0919"/>
<text text-anchor="middle" x="299" y="-116.9" font-family="Times Roman,serif" font-size="14.00">Parent::Child2</text>
</g>
<!-- Parent::Child2&#45;&gt;Parent -->
<g id="edge4" class="edge"><title>Parent::Child2&#45;&gt;Parent</title>
<path fill="none" stroke="grey" d="M280.213,-138.292C270.38,-147.867 258.218,-159.709 247.638,-170.01"/>
<polygon fill="grey" stroke="grey" points="244.994,-167.7 240.271,-177.184 249.877,-172.715 244.994,-167.7"/>
</g>
<!-- Parent::Child::Grandchild -->
<g id="node4" class="node"><title>Parent::Child::Grandchild</title>
<ellipse fill="none" stroke="black" cx="223" cy="-46" rx="111.016" ry="19.0919"/>
<text text-anchor="middle" x="223" y="-42.9" font-family="Times Roman,serif" font-size="14.00">Parent::Child::Grandchild</text>
</g>
<!-- Parent::Child::Grandchild&#45;&gt;Parent::Child1 -->
<g id="edge6" class="edge"><title>Parent::Child::Grandchild&#45;&gt;Parent::Child1</title>
<path fill="none" stroke="grey" d="M203.428,-65.0568C194.246,-73.9976 183.169,-84.7827 173.27,-94.4214"/>
<polygon fill="grey" stroke="grey" points="170.704,-92.0352 165.98,-101.519 175.587,-97.0505 170.704,-92.0352"/>
</g>
<!-- Parent::Child::Grandchild&#45;&gt;Parent::Child2 -->
<g id="edge8" class="edge"><title>Parent::Child::Grandchild&#45;&gt;Parent::Child2</title>
<path fill="none" stroke="grey" d="M242.572,-65.0568C251.754,-73.9976 262.831,-84.7827 272.73,-94.4214"/>
<polygon fill="grey" stroke="grey" points="270.413,-97.0505 280.02,-101.519 275.296,-92.0352 270.413,-97.0505"/>
</g>
</g>
</svg>
