<?xml version="1.0" encoding="UTF-8" standalone="no"?>
<!DOCTYPE svg PUBLIC "-//W3C//DTD SVG 1.1//EN"
 "http://www.w3.org/Graphics/SVG/1.1/DTD/svg11.dtd">
<!-- Generated by graphviz version 2.26.3 (20100126.1600)
 -->
<!-- Title: Heawood Pages: 1 -->
<svg width="394pt" height="1039pt"
 viewBox="0.00 0.00 394.00 1039.00" xmlns="http://www.w3.org/2000/svg" xmlns:xlink="http://www.w3.org/1999/xlink">
<g id="graph1" class="graph" transform="scale(1 1) rotate(0) translate(4 1035)">
<title>Heawood</title>
<polygon fill="white" stroke="white" points="-4,5 -4,-1035 391,-1035 391,5 -4,5"/>
<text text-anchor="middle" x="193" y="-10.4" font-family="Times Roman,serif" font-size="14.00">Graph produced by GraphViz2::Data::Grapher&#39;s scripts/Heawood.pl</text>
<!-- 0 -->
<g id="node1" class="node"><title>0</title>
<ellipse fill="none" stroke="black" cx="258" cy="-1013" rx="18" ry="18"/>
<text text-anchor="middle" x="258" y="-1008.4" font-family="Arial" font-size="14.00">0</text>
</g>
<!-- 1 -->
<g id="node2" class="node"><title>1</title>
<ellipse fill="none" stroke="black" cx="189" cy="-941" rx="18" ry="18"/>
<text text-anchor="middle" x="189" y="-936.4" font-family="Arial" font-size="14.00">1</text>
</g>
<!-- 0&#45;&#45;1 -->
<g id="edge2" class="edge"><title>0&#45;&#45;1</title>
<path fill="none" stroke="black" d="M245.344,-999.794C232.895,-986.803 213.997,-967.084 201.575,-954.122"/>
</g>
<!-- 5 -->
<g id="node10" class="node"><title>5</title>
<ellipse fill="none" stroke="black" cx="258" cy="-653" rx="18" ry="18"/>
<text text-anchor="middle" x="258" y="-648.4" font-family="Arial" font-size="14.00">5</text>
</g>
<!-- 0&#45;&#45;5 -->
<g id="edge30" class="edge"><title>0&#45;&#45;5</title>
<path fill="none" stroke="black" d="M258,-994.815C258,-967.498 258,-914.25 258,-869 258,-869 258,-869 258,-797 258,-751.75 258,-698.502 258,-671.185"/>
</g>
<!-- 2 -->
<g id="node4" class="node"><title>2</title>
<ellipse fill="none" stroke="black" cx="189" cy="-869" rx="18" ry="18"/>
<text text-anchor="middle" x="189" y="-864.4" font-family="Arial" font-size="14.00">2</text>
</g>
<!-- 1&#45;&#45;2 -->
<g id="edge4" class="edge"><title>1&#45;&#45;2</title>
<path fill="none" stroke="black" d="M189,-922.831C189,-912 189,-898.288 189,-887.413"/>
</g>
<!-- 3 -->
<g id="node6" class="node"><title>3</title>
<ellipse fill="none" stroke="black" cx="166" cy="-797" rx="18" ry="18"/>
<text text-anchor="middle" x="166" y="-792.4" font-family="Arial" font-size="14.00">3</text>
</g>
<!-- 2&#45;&#45;3 -->
<g id="edge6" class="edge"><title>2&#45;&#45;3</title>
<path fill="none" stroke="black" d="M183.432,-851.571C179.816,-840.251 175.122,-825.557 171.516,-814.269"/>
</g>
<!-- 7 -->
<g id="node14" class="node"><title>7</title>
<ellipse fill="none" stroke="black" cx="212" cy="-509" rx="18" ry="18"/>
<text text-anchor="middle" x="212" y="-504.4" font-family="Arial" font-size="14.00">7</text>
</g>
<!-- 2&#45;&#45;7 -->
<g id="edge32" class="edge"><title>2&#45;&#45;7</title>
<path fill="none" stroke="black" d="M193.654,-851.41C200.375,-824.42 212,-771.077 212,-725 212,-725 212,-725 212,-653 212,-607.75 212,-554.502 212,-527.185"/>
</g>
<!-- 4 -->
<g id="node8" class="node"><title>4</title>
<ellipse fill="none" stroke="black" cx="166" cy="-725" rx="18" ry="18"/>
<text text-anchor="middle" x="166" y="-720.4" font-family="Arial" font-size="14.00">4</text>
</g>
<!-- 3&#45;&#45;4 -->
<g id="edge8" class="edge"><title>3&#45;&#45;4</title>
<path fill="none" stroke="black" d="M166,-778.831C166,-768 166,-754.288 166,-743.413"/>
</g>
<!-- 4&#45;&#45;5 -->
<g id="edge10" class="edge"><title>4&#45;&#45;5</title>
<path fill="none" stroke="black" d="M180.375,-713.75C197.659,-700.224 226.487,-677.662 243.726,-664.171"/>
</g>
<!-- 9 -->
<g id="node18" class="node"><title>9</title>
<ellipse fill="none" stroke="black" cx="170" cy="-365" rx="18" ry="18"/>
<text text-anchor="middle" x="170" y="-360.4" font-family="Arial" font-size="14.00">9</text>
</g>
<!-- 4&#45;&#45;9 -->
<g id="edge34" class="edge"><title>4&#45;&#45;9</title>
<path fill="none" stroke="black" d="M166,-706.815C166,-679.498 166,-626.25 166,-581 166,-581 166,-581 166,-509 166,-463.733 168,-410.491 169.171,-383.181"/>
</g>
<!-- 6 -->
<g id="node12" class="node"><title>6</title>
<ellipse fill="none" stroke="black" cx="258" cy="-581" rx="18" ry="18"/>
<text text-anchor="middle" x="258" y="-576.4" font-family="Arial" font-size="14.00">6</text>
</g>
<!-- 5&#45;&#45;6 -->
<g id="edge12" class="edge"><title>5&#45;&#45;6</title>
<path fill="none" stroke="black" d="M258,-634.831C258,-624 258,-610.288 258,-599.413"/>
</g>
<!-- 6&#45;&#45;7 -->
<g id="edge14" class="edge"><title>6&#45;&#45;7</title>
<path fill="none" stroke="black" d="M248.245,-565.731C240.438,-553.512 229.544,-536.46 221.741,-524.247"/>
</g>
<!-- 11 -->
<g id="node22" class="node"><title>11</title>
<ellipse fill="none" stroke="black" cx="170" cy="-209" rx="20.967" ry="21.4663"/>
<text text-anchor="middle" x="170" y="-204.4" font-family="Arial" font-size="14.00">11</text>
</g>
<!-- 6&#45;&#45;11 -->
<g id="edge36" class="edge"><title>6&#45;&#45;11</title>
<path fill="none" stroke="black" d="M258,-562.815C258,-535.498 258,-482.25 258,-437 258,-437 258,-437 258,-365 258,-306.541 210.541,-249.812 185.328,-223.799"/>
</g>
<!-- 8 -->
<g id="node16" class="node"><title>8</title>
<ellipse fill="none" stroke="black" cx="212" cy="-437" rx="18" ry="18"/>
<text text-anchor="middle" x="212" y="-432.4" font-family="Arial" font-size="14.00">8</text>
</g>
<!-- 7&#45;&#45;8 -->
<g id="edge16" class="edge"><title>7&#45;&#45;8</title>
<path fill="none" stroke="black" d="M212,-490.831C212,-480 212,-466.288 212,-455.413"/>
</g>
<!-- 8&#45;&#45;9 -->
<g id="edge18" class="edge"><title>8&#45;&#45;9</title>
<path fill="none" stroke="black" d="M202.887,-421.377C195.842,-409.3 186.136,-392.662 179.096,-380.592"/>
</g>
<!-- 13 -->
<g id="node26" class="node"><title>13</title>
<ellipse fill="none" stroke="black" cx="220" cy="-49" rx="22.1371" ry="22.1371"/>
<text text-anchor="middle" x="220" y="-44.4" font-family="Arial" font-size="14.00">13</text>
</g>
<!-- 8&#45;&#45;13 -->
<g id="edge38" class="edge"><title>8&#45;&#45;13</title>
<path fill="none" stroke="black" d="M213.619,-418.789C215.957,-390.879 220,-335.832 220,-289 220,-289 220,-289 220,-209 220,-159.833 220,-102.168 220,-71.26"/>
</g>
<!-- 10 -->
<g id="node20" class="node"><title>10</title>
<ellipse fill="none" stroke="black" cx="170" cy="-289" rx="22.1371" ry="22.1371"/>
<text text-anchor="middle" x="170" y="-284.4" font-family="Arial" font-size="14.00">10</text>
</g>
<!-- 9&#45;&#45;10 -->
<g id="edge20" class="edge"><title>9&#45;&#45;10</title>
<path fill="none" stroke="black" d="M170,-346.989C170,-336.279 170,-322.607 170,-311.228"/>
</g>
<!-- 10&#45;&#45;1 -->
<g id="edge40" class="edge"><title>10&#45;&#45;1</title>
<path fill="none" stroke="black" d="M153.448,-304.076C127.956,-329.034 82,-381.697 82,-437 82,-797 82,-797 82,-797 82,-857.735 144.083,-909.495 173.67,-930.714"/>
</g>
<!-- 10&#45;&#45;11 -->
<g id="edge22" class="edge"><title>10&#45;&#45;11</title>
<path fill="none" stroke="black" d="M170,-266.716C170,-255.435 170,-241.798 170,-230.613"/>
</g>
<!-- 12 -->
<g id="node24" class="node"><title>12</title>
<ellipse fill="none" stroke="black" cx="170" cy="-129" rx="22.1371" ry="22.1371"/>
<text text-anchor="middle" x="170" y="-124.4" font-family="Arial" font-size="14.00">12</text>
</g>
<!-- 11&#45;&#45;12 -->
<g id="edge24" class="edge"><title>11&#45;&#45;12</title>
<path fill="none" stroke="black" d="M170,-187.14C170,-175.944 170,-162.343 170,-151.112"/>
</g>
<!-- 12&#45;&#45;3 -->
<g id="edge42" class="edge"><title>12&#45;&#45;3</title>
<path fill="none" stroke="black" d="M158.435,-147.984C152.16,-159.025 144.74,-173.405 140,-187 124.791,-230.621 120,-242.803 120,-289 120,-653 120,-653 120,-653 120,-693.882 125.526,-704.402 139,-743 143.698,-756.459 151.025,-770.858 156.861,-781.4"/>
</g>
<!-- 12&#45;&#45;13 -->
<g id="edge26" class="edge"><title>12&#45;&#45;13</title>
<path fill="none" stroke="black" d="M181.849,-110.041C189.82,-97.2885 200.283,-80.5469 208.236,-67.8228"/>
</g>
<!-- 13&#45;&#45;0 -->
<g id="edge28" class="edge"><title>13&#45;&#45;0</title>
<path fill="none" stroke="black" d="M235.407,-65.2574C259.657,-92.6247 304,-150.646 304,-209 304,-869 304,-869 304,-869 304,-917.552 279.977,-971.133 266.652,-997.119"/>
</g>
</g>
</svg>
