<?xml version="1.0" encoding="UTF-8" standalone="no"?>
<!DOCTYPE svg PUBLIC "-//W3C//DTD SVG 1.1//EN"
 "http://www.w3.org/Graphics/SVG/1.1/DTD/svg11.dtd">
<!-- Generated by graphviz version 2.26.3 (20100126.1600)
 -->
<!-- Title: Perl Pages: 1 -->
<svg width="3721pt" height="369pt"
 viewBox="0.00 0.00 3721.00 369.00" xmlns="http://www.w3.org/2000/svg" xmlns:xlink="http://www.w3.org/1999/xlink">
<g id="graph1" class="graph" transform="scale(1 1) rotate(0) translate(4 365)">
<title>Perl</title>
<polygon fill="white" stroke="white" points="-4,5 -4,-365 3718,-365 3718,5 -4,5"/>
<text text-anchor="middle" x="1856.5" y="-10.4" font-family="Times Roman,serif" font-size="14.00">Graph produced by GraphViz2::Data::Grapher&#39;s scripts/parse.recdescent.pl</text>
<!-- Grammar -->
<g id="node1" class="node"><title>Grammar</title>
<ellipse fill="none" stroke="darkblue" cx="1361" cy="-342" rx="48.9975" ry="19.0919"/>
<text text-anchor="middle" x="1361" y="-338.9" font-family="Times Roman,serif" font-size="14.00">Grammar</text>
</g>
<!-- typename -->
<g id="node2" class="node"><title>typename</title>
<ellipse fill="none" stroke="darkblue" cx="30" cy="-46" rx="29.9071" ry="19.0919"/>
<text text-anchor="middle" x="30" y="-42.9" font-family="Times Roman,serif" font-size="14.00">&#39;int&#39; &#160;</text>
</g>
<!-- Grammar&#45;&gt;typename -->
<g id="edge2" class="edge"><title>Grammar&#45;&gt;typename</title>
<path fill="none" stroke="grey" d="M1311.95,-341.688C1080.39,-339.996 105.808,-330.312 59,-287 0.234239,-232.623 12.7205,-126.222 23.0677,-74.9636"/>
<polygon fill="grey" stroke="grey" points="26.5509,-75.4117 25.2168,-64.9012 19.7052,-73.9496 26.5509,-75.4117"/>
</g>
<!-- the -->
<g id="node4" class="node"><title>the</title>
<ellipse fill="none" stroke="darkblue" cx="731" cy="-268" rx="31.8198" ry="19.0919"/>
<text text-anchor="middle" x="731" y="-264.9" font-family="Times Roman,serif" font-size="14.00">&#39;the&#39; &#160;</text>
</g>
<!-- Grammar&#45;&gt;the -->
<g id="edge4" class="edge"><title>Grammar&#45;&gt;the</title>
<path fill="none" stroke="grey" d="M1312.29,-339.586C1190.19,-333.195 873.635,-314.422 772,-287 769.548,-286.338 767.06,-285.54 764.585,-284.651"/>
<polygon fill="grey" stroke="grey" points="765.787,-281.362 755.204,-280.862 763.166,-287.852 765.787,-281.362"/>
</g>
<!-- a -->
<g id="node6" class="node"><title>a</title>
<ellipse fill="none" stroke="darkblue" cx="808" cy="-268" rx="27" ry="19.0919"/>
<text text-anchor="middle" x="808" y="-264.9" font-family="Times Roman,serif" font-size="14.00">&#39;a&#39; &#160;</text>
</g>
<!-- Grammar&#45;&gt;a -->
<g id="edge6" class="edge"><title>Grammar&#45;&gt;a</title>
<path fill="none" stroke="grey" d="M1312.66,-338.827C1202.5,-331.272 935.688,-311.037 849,-287 845.648,-286.07 842.226,-284.893 838.861,-283.581"/>
<polygon fill="grey" stroke="grey" points="840.197,-280.346 829.627,-279.623 837.439,-286.78 840.197,-280.346"/>
</g>
<!-- test1 -->
<g id="node8" class="node"><title>test1</title>
<ellipse fill="none" stroke="darkblue" cx="1195" cy="-268" rx="304.056" ry="19.0919"/>
<text text-anchor="middle" x="1195" y="-264.9" font-family="Times Roman,serif" font-size="14.00">&#39;(&#39; &#39;the&#39; &#39;$::first&#39; /te+st/ is _alternation_1_of_production_1_of_rule_test1(s?) &#160;</text>
</g>
<!-- Grammar&#45;&gt;test1 -->
<g id="edge12" class="edge"><title>Grammar&#45;&gt;test1</title>
<path fill="none" stroke="grey" d="M1328.6,-327.556C1305.3,-317.172 1273.41,-302.954 1246.63,-291.014"/>
<polygon fill="grey" stroke="grey" points="1247.95,-287.771 1237.39,-286.896 1245.1,-294.165 1247.95,-287.771"/>
</g>
<!-- is -->
<g id="node9" class="node"><title>is</title>
<ellipse fill="none" stroke="darkblue" cx="978" cy="-194" rx="46.1672" ry="19.0919"/>
<text text-anchor="middle" x="978" y="-190.9" font-family="Times Roman,serif" font-size="14.00">&#39;is&#39; &#160;&#39;are&#39; &#160;</text>
</g>
<!-- Grammar&#45;&gt;is -->
<g id="edge14" class="edge"><title>Grammar&#45;&gt;is</title>
<path fill="none" stroke="grey" d="M1311.97,-340C1195.6,-334.751 910.308,-318.745 882,-287 870.76,-274.395 873.531,-263.612 882,-249 892.712,-230.518 912.234,-217.714 930.89,-209.143"/>
<polygon fill="grey" stroke="grey" points="932.404,-212.302 940.225,-205.155 929.654,-205.865 932.404,-212.302"/>
</g>
<!-- _alternation_1_of_production_1_of_rule_test1 -->
<g id="node11" class="node"><title>_alternation_1_of_production_1_of_rule_test1</title>
<ellipse fill="none" stroke="darkblue" cx="1361" cy="-194" rx="36.977" ry="19.0919"/>
<text text-anchor="middle" x="1361" y="-190.9" font-family="Times Roman,serif" font-size="14.00">&#39;easy&#39; &#160;</text>
</g>
<!-- Grammar&#45;&gt;_alternation_1_of_production_1_of_rule_test1 -->
<g id="edge34" class="edge"><title>Grammar&#45;&gt;_alternation_1_of_production_1_of_rule_test1</title>
<path fill="none" stroke="grey" d="M1403,-331.962C1441.94,-321.706 1495.65,-304.801 1508,-287 1517.62,-273.122 1517.62,-262.878 1508,-249 1495.85,-231.478 1443.61,-214.823 1404.84,-204.524"/>
<polygon fill="grey" stroke="grey" points="1405.37,-201.045 1394.81,-201.919 1403.61,-207.82 1405.37,-201.045"/>
</g>
<!-- test2 -->
<g id="node15" class="node"><title>test2</title>
<ellipse fill="none" stroke="darkblue" cx="1709" cy="-268" rx="154.149" ry="19.0919"/>
<text text-anchor="middle" x="1709" y="-264.9" font-family="Times Roman,serif" font-size="14.00">$arg{article} $arg[3][$arg{sound}] &#160;</text>
</g>
<!-- Grammar&#45;&gt;test2 -->
<g id="edge16" class="edge"><title>Grammar&#45;&gt;test2</title>
<path fill="none" stroke="grey" d="M1404.02,-332.852C1458.01,-321.371 1551.94,-301.398 1621.33,-286.642"/>
<polygon fill="grey" stroke="grey" points="1622.33,-290.008 1631.38,-284.505 1620.87,-283.161 1622.33,-290.008"/>
</g>
<!-- test5 -->
<g id="node17" class="node"><title>test5</title>
<ellipse fill="none" stroke="darkblue" cx="2020" cy="-268" rx="101.116" ry="19.0919"/>
<text text-anchor="middle" x="2020" y="-264.9" font-family="Times Roman,serif" font-size="14.00">name notname &#160;name &#160;</text>
</g>
<!-- Grammar&#45;&gt;test5 -->
<g id="edge22" class="edge"><title>Grammar&#45;&gt;test5</title>
<path fill="none" stroke="grey" d="M1409.15,-338.158C1504.17,-330.348 1722.45,-311.284 1905,-287 1915.03,-285.665 1925.53,-284.127 1935.94,-282.515"/>
<polygon fill="grey" stroke="grey" points="1936.53,-285.965 1945.87,-280.952 1935.45,-279.05 1936.53,-285.965"/>
</g>
<!-- name -->
<g id="node18" class="node"><title>name</title>
<ellipse fill="none" stroke="darkblue" cx="1900" cy="-194" rx="34.8574" ry="19.0919"/>
<text text-anchor="middle" x="1900" y="-190.9" font-family="Times Roman,serif" font-size="14.00">&#39;fred&#39; &#160;</text>
</g>
<!-- Grammar&#45;&gt;name -->
<g id="edge40" class="edge"><title>Grammar&#45;&gt;name</title>
<path fill="none" stroke="grey" d="M1410.01,-339.777C1531.05,-333.863 1836.86,-316.171 1872,-287 1890.54,-271.615 1897.1,-244.438 1899.29,-223.422"/>
<polygon fill="grey" stroke="grey" points="1902.78,-223.623 1900.06,-213.385 1895.8,-223.088 1902.78,-223.623"/>
</g>
<!-- notname -->
<g id="node20" class="node"><title>notname</title>
<ellipse fill="none" stroke="darkblue" cx="2084" cy="-194" rx="56.7776" ry="19.0919"/>
<text text-anchor="middle" x="2084" y="-190.9" font-family="Times Roman,serif" font-size="14.00">/[a&#45;z]\w*/i &#160;</text>
</g>
<!-- Grammar&#45;&gt;notname -->
<g id="edge42" class="edge"><title>Grammar&#45;&gt;notname</title>
<path fill="none" stroke="grey" d="M1409.94,-340.318C1575.46,-334.397 2105.39,-313.435 2130,-287 2148.18,-267.478 2129.93,-239.423 2111.32,-219.239"/>
<polygon fill="grey" stroke="grey" points="2113.71,-216.678 2104.25,-211.923 2108.68,-221.544 2113.71,-216.678"/>
</g>
<!-- cat -->
<g id="node23" class="node"><title>cat</title>
<ellipse fill="none" stroke="darkblue" cx="2325" cy="-268" rx="147.785" ry="19.0919"/>
<text text-anchor="middle" x="2325" y="-264.9" font-family="Times Roman,serif" font-size="14.00">&lt;reject: $arg[0] ne &#39;meows&#39;&gt; &#39;cat&#39; &#160;&#160;</text>
</g>
<!-- Grammar&#45;&gt;cat -->
<g id="edge24" class="edge"><title>Grammar&#45;&gt;cat</title>
<path fill="none" stroke="grey" d="M1409.89,-339.471C1535.21,-332.811 1878.12,-313.459 2163,-287 2177.69,-285.636 2193.11,-284.04 2208.35,-282.364"/>
<polygon fill="grey" stroke="grey" points="2208.78,-285.838 2218.33,-281.252 2208,-278.881 2208.78,-285.838"/>
</g>
<!-- typedef -->
<g id="node25" class="node"><title>typedef</title>
<ellipse fill="none" stroke="darkblue" cx="464" cy="-120" rx="106.98" ry="19.0919"/>
<text text-anchor="middle" x="464" y="-116.9" font-family="Times Roman,serif" font-size="14.00">&#39;type&#39; id &#39;is&#39; typename &#39;;&#39; &#160;</text>
</g>
<!-- Grammar&#45;&gt;typedef -->
<g id="edge30" class="edge"><title>Grammar&#45;&gt;typedef</title>
<path fill="none" stroke="grey" d="M1311.84,-340.903C1156.83,-337.091 685.149,-322.649 627,-287 577.353,-256.563 600.605,-215.746 559,-175 545.911,-162.181 529.256,-151.234 513.559,-142.56"/>
<polygon fill="grey" stroke="grey" points="514.934,-139.327 504.461,-137.719 511.645,-145.507 514.934,-139.327"/>
</g>
<!-- id -->
<g id="node26" class="node"><title>id</title>
<ellipse fill="none" stroke="darkblue" cx="659" cy="-46" rx="581.242" ry="19.0919"/>
<text text-anchor="middle" x="659" y="-42.9" font-family="Times Roman,serif" font-size="14.00">/[a&#45;z]		# LEADING ALPHABETIC\n		 &#160;\w*		# FOLLOWED BY ALPHAS, DIGITS, OR UNDERSCORES\n		 /ix &#160;</text>
</g>
<!-- Grammar&#45;&gt;id -->
<g id="edge32" class="edge"><title>Grammar&#45;&gt;id</title>
<path fill="none" stroke="grey" d="M1311.8,-341.468C1164.55,-339.402 734.75,-329.731 690,-287 660.191,-258.536 657.827,-133.11 658.378,-75.3299"/>
<polygon fill="grey" stroke="grey" points="661.881,-75.0907 658.514,-65.0452 654.882,-74.9979 661.881,-75.0907"/>
</g>
<!-- test7 -->
<g id="node32" class="node"><title>test7</title>
<ellipse fill="none" stroke="darkblue" cx="2573" cy="-268" rx="82.2301" ry="19.0919"/>
<text text-anchor="middle" x="2573" y="-264.9" font-family="Times Roman,serif" font-size="14.00">&#39;x&#39; &lt;resync&gt; /y+/ &#160;</text>
</g>
<!-- Grammar&#45;&gt;test7 -->
<g id="edge36" class="edge"><title>Grammar&#45;&gt;test7</title>
<path fill="none" stroke="grey" d="M1409.93,-340.622C1597.39,-335.184 2269.88,-314.177 2482,-287 2489.46,-286.044 2497.21,-284.808 2504.91,-283.423"/>
<polygon fill="grey" stroke="grey" points="2505.8,-286.819 2514.98,-281.53 2504.5,-279.94 2505.8,-286.819"/>
</g>
<!-- fail -->
<g id="node34" class="node"><title>fail</title>
<ellipse fill="none" stroke="darkblue" cx="616" cy="-120" rx="27" ry="19.0919"/>
<text text-anchor="middle" x="616" y="-116.9" font-family="Times Roman,serif" font-size="14.00"> </text>
</g>
<!-- Grammar&#45;&gt;fail -->
<g id="edge38" class="edge"><title>Grammar&#45;&gt;fail</title>
<path fill="none" stroke="grey" d="M1311.76,-341.435C1160.01,-339.247 706.703,-329.206 657,-287 617.233,-253.232 612.653,-187.749 613.751,-149.584"/>
<polygon fill="grey" stroke="grey" points="617.268,-149.282 614.214,-139.137 610.275,-148.972 617.268,-149.282"/>
</g>
<!-- _alternation_1_of_production_1_of_rule_test3 -->
<g id="node38" class="node"><title>_alternation_1_of_production_1_of_rule_test3</title>
<ellipse fill="none" stroke="darkblue" cx="464" cy="-194" rx="85.7684" ry="19.0919"/>
<text text-anchor="middle" x="464" y="-190.9" font-family="Times Roman,serif" font-size="14.00">defn &#160;typedef &#160;fail &#160;</text>
</g>
<!-- Grammar&#45;&gt;_alternation_1_of_production_1_of_rule_test3 -->
<g id="edge50" class="edge"><title>Grammar&#45;&gt;_alternation_1_of_production_1_of_rule_test3</title>
<path fill="none" stroke="grey" d="M1312.01,-340.372C1151.54,-334.786 648.212,-315.185 581,-287 557.48,-277.137 557.808,-265.066 538,-249 525.15,-238.578 510.614,-227.606 497.847,-218.227"/>
<polygon fill="grey" stroke="grey" points="499.889,-215.385 489.749,-212.316 495.762,-221.039 499.889,-215.385"/>
</g>
<!-- defn -->
<g id="node39" class="node"><title>defn</title>
<ellipse fill="none" stroke="darkblue" cx="193" cy="-120" rx="118.087" ry="19.0919"/>
<text text-anchor="middle" x="193" y="-116.9" font-family="Times Roman,serif" font-size="14.00">&#39;var&#39; id &#39;holds&#39; typename &#39;;&#39; &#160;</text>
</g>
<!-- Grammar&#45;&gt;defn -->
<g id="edge58" class="edge"><title>Grammar&#45;&gt;defn</title>
<path fill="none" stroke="grey" d="M1311.72,-341.775C1081.29,-340.487 119.496,-332.397 76,-287 32.4495,-241.546 105.854,-178.661 154.747,-144.493"/>
<polygon fill="grey" stroke="grey" points="156.989,-147.2 163.258,-138.659 153.031,-141.426 156.989,-147.2"/>
</g>
<!-- test6 -->
<g id="node44" class="node"><title>test6</title>
<ellipse fill="none" stroke="darkblue" cx="3078" cy="-268" rx="405.172" ry="19.0919"/>
<text text-anchor="middle" x="3078" y="-264.9" font-family="Times Roman,serif" font-size="14.00">&lt;rulevar: $test6 = 1&gt; &#160;&#39;a&#39; &lt;commit&gt; &#39;b&#39; &lt;uncommit&gt; &#39;c&#39; &lt;reject: $test6 &amp;&amp; $text&gt; &#160;&#39;a&#39; &#160;&lt;uncommit&gt; &#160;</text>
</g>
<!-- Grammar&#45;&gt;test6 -->
<g id="edge52" class="edge"><title>Grammar&#45;&gt;test6</title>
<path fill="none" stroke="grey" d="M1409.81,-340.004C1581.64,-332.966 2174.57,-308.56 2664,-287 2701.36,-285.354 2740.62,-283.593 2779.47,-281.832"/>
<polygon fill="grey" stroke="grey" points="2780.04,-285.31 2789.87,-281.36 2779.72,-278.317 2780.04,-285.31"/>
</g>
<!-- b -->
<g id="node49" class="node"><title>b</title>
<ellipse fill="none" stroke="darkblue" cx="3547" cy="-194" rx="27" ry="19.0919"/>
<text text-anchor="middle" x="3547" y="-190.9" font-family="Times Roman,serif" font-size="14.00">&#39;b&#39; &#160;</text>
</g>
<!-- Grammar&#45;&gt;b -->
<g id="edge60" class="edge"><title>Grammar&#45;&gt;b</title>
<path fill="none" stroke="grey" d="M1410.15,-341.387C1724.84,-337.38 3445.62,-314.253 3492,-287 3515.84,-272.99 3530.46,-244.275 3538.58,-222.437"/>
<polygon fill="grey" stroke="grey" points="3541.89,-223.56 3541.86,-212.965 3535.28,-221.269 3541.89,-223.56"/>
</g>
<!-- dog -->
<g id="node51" class="node"><title>dog</title>
<ellipse fill="none" stroke="darkblue" cx="3679" cy="-268" rx="34.1461" ry="19.0919"/>
<text text-anchor="middle" x="3679" y="-264.9" font-family="Times Roman,serif" font-size="14.00">&#39;dog&#39; &#160;</text>
</g>
<!-- Grammar&#45;&gt;dog -->
<g id="edge62" class="edge"><title>Grammar&#45;&gt;dog</title>
<path fill="none" stroke="grey" d="M1410.07,-341.356C1731.25,-337.076 3523.71,-312.124 3636,-287 3638.84,-286.365 3641.72,-285.539 3644.57,-284.587"/>
<polygon fill="grey" stroke="grey" points="3646,-287.791 3654.1,-280.962 3643.51,-281.249 3646,-287.791"/>
</g>
<!-- test4 -->
<g id="node53" class="node"><title>test4</title>
<ellipse fill="none" stroke="darkblue" cx="3583" cy="-268" rx="43.8406" ry="19.0919"/>
<text text-anchor="middle" x="3583" y="-264.9" font-family="Times Roman,serif" font-size="14.00">&#39;a&#39; b /c/ &#160;</text>
</g>
<!-- Grammar&#45;&gt;test4 -->
<g id="edge66" class="edge"><title>Grammar&#45;&gt;test4</title>
<path fill="none" stroke="grey" d="M1410.29,-341.606C1712.63,-339.077 3310.55,-324.03 3525,-287 3530.03,-286.132 3535.21,-284.919 3540.32,-283.52"/>
<polygon fill="grey" stroke="grey" points="3541.4,-286.851 3549.99,-280.646 3539.41,-280.141 3541.4,-286.851"/>
</g>
<!-- test3 -->
<g id="node56" class="node"><title>test3</title>
<ellipse fill="none" stroke="darkblue" cx="307" cy="-268" rx="222.032" ry="19.0919"/>
<text text-anchor="middle" x="307" y="-264.9" font-family="Times Roman,serif" font-size="14.00">_alternation_1_of_production_1_of_rule_test3(5..10) &#160;</text>
</g>
<!-- Grammar&#45;&gt;test3 -->
<g id="edge70" class="edge"><title>Grammar&#45;&gt;test3</title>
<path fill="none" stroke="grey" d="M1312.58,-338.968C1186.04,-330.997 835.058,-308.574 543,-287 521.76,-285.431 499.449,-283.719 477.373,-281.986"/>
<polygon fill="grey" stroke="grey" points="477.494,-278.484 467.25,-281.188 476.945,-285.463 477.494,-278.484"/>
</g>
<!-- test1&#45;&gt;is -->
<g id="edge8" class="edge"><title>test1&#45;&gt;is</title>
<path fill="none" stroke="grey" d="M1139.96,-249.231C1103.85,-236.916 1057.2,-221.008 1023.25,-209.431"/>
<polygon fill="grey" stroke="grey" points="1024.18,-206.051 1013.59,-206.136 1021.92,-212.676 1024.18,-206.051"/>
</g>
<!-- test1&#45;&gt;_alternation_1_of_production_1_of_rule_test1 -->
<g id="edge10" class="edge"><title>test1&#45;&gt;_alternation_1_of_production_1_of_rule_test1</title>
<path fill="none" stroke="grey" d="M1237.32,-249.135C1263.89,-237.289 1297.86,-222.146 1323.47,-210.729"/>
<polygon fill="grey" stroke="grey" points="1325.14,-213.819 1332.85,-206.55 1322.29,-207.425 1325.14,-213.819"/>
</g>
<!-- test5&#45;&gt;name -->
<g id="edge18" class="edge"><title>test5&#45;&gt;name</title>
<path fill="none" stroke="grey" d="M1990.34,-249.708C1972.72,-238.847 1950.38,-225.067 1932.32,-213.93"/>
<polygon fill="grey" stroke="grey" points="1933.66,-210.646 1923.31,-208.376 1929.99,-216.604 1933.66,-210.646"/>
</g>
<!-- test5&#45;&gt;notname -->
<g id="edge20" class="edge"><title>test5&#45;&gt;notname</title>
<path fill="none" stroke="grey" d="M2036.48,-248.943C2044.06,-240.178 2053.18,-229.64 2061.39,-220.147"/>
<polygon fill="grey" stroke="grey" points="2064.12,-222.334 2068.02,-212.481 2058.83,-217.755 2064.12,-222.334"/>
</g>
<!-- typedef&#45;&gt;typename -->
<g id="edge28" class="edge"><title>typedef&#45;&gt;typename</title>
<path fill="none" stroke="grey" d="M378.868,-108.484C264.985,-93.031 76.3784,-67.2489 69,-65 66.6901,-64.296 64.347,-63.4702 62.0153,-62.5644"/>
<polygon fill="grey" stroke="grey" points="63.176,-59.2531 52.6083,-58.4955 60.397,-65.6778 63.176,-59.2531"/>
</g>
<!-- typedef&#45;&gt;id -->
<g id="edge26" class="edge"><title>typedef&#45;&gt;id</title>
<path fill="none" stroke="grey" d="M509.719,-102.65C536.419,-92.5179 570.418,-79.6157 599.223,-68.6845"/>
<polygon fill="grey" stroke="grey" points="600.667,-71.8802 608.775,-65.0598 598.183,-65.3356 600.667,-71.8802"/>
</g>
<!-- _alternation_1_of_production_1_of_rule_test3&#45;&gt;typedef -->
<g id="edge46" class="edge"><title>_alternation_1_of_production_1_of_rule_test3&#45;&gt;typedef</title>
<path fill="none" stroke="grey" d="M464,-174.943C464,-167.149 464,-157.954 464,-149.338"/>
<polygon fill="grey" stroke="grey" points="467.5,-149.249 464,-139.249 460.5,-149.249 467.5,-149.249"/>
</g>
<!-- _alternation_1_of_production_1_of_rule_test3&#45;&gt;fail -->
<g id="edge48" class="edge"><title>_alternation_1_of_production_1_of_rule_test3&#45;&gt;fail</title>
<path fill="none" stroke="grey" d="M501.288,-176.816C524.129,-166.167 553.892,-152.071 580,-139 581.754,-138.122 583.55,-137.211 585.359,-136.285"/>
<polygon fill="grey" stroke="grey" points="587.112,-139.318 594.376,-131.605 583.888,-133.105 587.112,-139.318"/>
</g>
<!-- _alternation_1_of_production_1_of_rule_test3&#45;&gt;defn -->
<g id="edge44" class="edge"><title>_alternation_1_of_production_1_of_rule_test3&#45;&gt;defn</title>
<path fill="none" stroke="grey" d="M409.81,-179.203C367.647,-167.69 308.815,-151.625 263.072,-139.134"/>
<polygon fill="grey" stroke="grey" points="263.795,-135.703 253.226,-136.446 261.951,-142.456 263.795,-135.703"/>
</g>
<!-- defn&#45;&gt;typename -->
<g id="edge56" class="edge"><title>defn&#45;&gt;typename</title>
<path fill="none" stroke="grey" d="M151.782,-102.159C127.574,-91.5718 96.4387,-77.764 69,-65 67.0025,-64.0708 64.9524,-63.1059 62.8877,-62.1256"/>
<polygon fill="grey" stroke="grey" points="64.3901,-58.9645 53.8603,-57.7919 61.3606,-65.275 64.3901,-58.9645"/>
</g>
<!-- defn&#45;&gt;id -->
<g id="edge54" class="edge"><title>defn&#45;&gt;id</title>
<path fill="none" stroke="grey" d="M277.119,-106.642C348.016,-95.3837 450.558,-79.1002 531.537,-66.2409"/>
<polygon fill="grey" stroke="grey" points="532.477,-69.6355 541.805,-64.6104 531.379,-62.7222 532.477,-69.6355"/>
</g>
<!-- test4&#45;&gt;b -->
<g id="edge64" class="edge"><title>test4&#45;&gt;b</title>
<path fill="none" stroke="grey" d="M3573.92,-249.327C3569.8,-240.874 3564.86,-230.714 3560.34,-221.42"/>
<polygon fill="grey" stroke="grey" points="3563.35,-219.617 3555.83,-212.156 3557.06,-222.679 3563.35,-219.617"/>
</g>
<!-- test3&#45;&gt;_alternation_1_of_production_1_of_rule_test3 -->
<g id="edge68" class="edge"><title>test3&#45;&gt;_alternation_1_of_production_1_of_rule_test3</title>
<path fill="none" stroke="grey" d="M347.024,-249.135C368.646,-238.944 395.443,-226.314 417.931,-215.714"/>
<polygon fill="grey" stroke="grey" points="419.724,-218.738 427.277,-211.309 416.739,-212.406 419.724,-218.738"/>
</g>
</g>
</svg>
