<?xml version="1.0" encoding="UTF-8" standalone="no"?>
<!DOCTYPE svg PUBLIC "-//W3C//DTD SVG 1.1//EN"
 "http://www.w3.org/Graphics/SVG/1.1/DTD/svg11.dtd">
<!-- Generated by graphviz version 2.26.3 (20100126.1600)
 -->
<!-- Title: Perl Pages: 1 -->
<svg width="522pt" height="751pt"
 viewBox="0.00 0.00 522.00 751.00" xmlns="http://www.w3.org/2000/svg" xmlns:xlink="http://www.w3.org/1999/xlink">
<g id="graph1" class="graph" transform="scale(1 1) rotate(0) translate(4 747)">
<title>Perl</title>
<polygon fill="white" stroke="white" points="-4,5 -4,-747 519,-747 519,5 -4,5"/>
<text text-anchor="middle" x="257" y="-10.4" font-family="Times Roman,serif" font-size="14.00">Graph produced by GraphViz2::Data::Grapher&#39;s scripts/parse.data.pl</text>
<!-- 0 -->
<g id="node1" class="node"><title>0</title>
<polygon fill="none" stroke="green" points="277.938,-709.44 277.938,-726.56 259.815,-738.665 234.185,-738.665 216.062,-726.56 216.062,-709.44 234.185,-697.335 259.815,-697.335 277.938,-709.44"/>
<polygon fill="none" stroke="green" points="281.882,-707.285 281.882,-728.715 260.997,-742.665 233.003,-742.665 212.118,-728.715 212.118,-707.285 233.003,-693.335 260.997,-693.335 281.882,-707.285"/>
<text text-anchor="middle" x="247" y="-714.9" font-family="Times Roman,serif" font-size="14.00">%$s</text>
</g>
<!-- 0_kids -->
<g id="node2" class="node"><title>0_kids</title>
<polyline fill="none" stroke="grey" points="220,-620 280,-620 "/>
<path fill="none" stroke="grey" d="M280,-620C286,-620 292,-626 292,-632"/>
<polyline fill="none" stroke="grey" points="292,-632 292,-644 "/>
<path fill="none" stroke="grey" d="M292,-644C292,-650 286,-656 280,-656"/>
<polyline fill="none" stroke="grey" points="280,-656 220,-656 "/>
<path fill="none" stroke="grey" d="M220,-656C214,-656 208,-650 208,-644"/>
<polyline fill="none" stroke="grey" points="208,-644 208,-632 "/>
<path fill="none" stroke="grey" d="M208,-632C208,-626 214,-620 220,-620"/>
<text text-anchor="middle" x="221" y="-634.9" font-family="Times Roman,serif" font-size="14.00" fill="darkblue">A</text>
<polyline fill="none" stroke="grey" points="234,-620 234,-656 "/>
<text text-anchor="middle" x="247" y="-634.9" font-family="Times Roman,serif" font-size="14.00" fill="darkblue">C</text>
<polyline fill="none" stroke="grey" points="260,-620 260,-656 "/>
<text text-anchor="middle" x="276" y="-634.9" font-family="Times Roman,serif" font-size="14.00" fill="darkblue">els</text>
</g>
<!-- 0&#45;&gt;0_kids -->
<g id="edge2" class="edge"><title>0&#45;&gt;0_kids:port2</title>
<path fill="none" stroke="grey" d="M247,-693.261C247,-685.012 247,-675.558 247,-666.298"/>
<polygon fill="grey" stroke="grey" points="250.5,-666 247,-656 243.5,-666 250.5,-666"/>
</g>
<!-- 0_0_kids -->
<g id="node4" class="node"><title>0_0_kids</title>
<polyline fill="none" stroke="grey" points="101,-546 131,-546 "/>
<path fill="none" stroke="grey" d="M131,-546C137,-546 143,-552 143,-558"/>
<polyline fill="none" stroke="grey" points="143,-558 143,-570 "/>
<path fill="none" stroke="grey" d="M143,-570C143,-576 137,-582 131,-582"/>
<polyline fill="none" stroke="grey" points="131,-582 101,-582 "/>
<path fill="none" stroke="grey" d="M101,-582C95,-582 89,-576 89,-570"/>
<polyline fill="none" stroke="grey" points="89,-570 89,-558 "/>
<path fill="none" stroke="grey" d="M89,-558C89,-552 95,-546 101,-546"/>
<text text-anchor="middle" x="116" y="-560.9" font-family="Times Roman,serif" font-size="14.00" fill="darkblue">%$A</text>
</g>
<!-- 0_kids&#45;&gt;0_0_kids -->
<g id="edge4" class="edge"><title>0_kids:port1&#45;&gt;0_0_kids:port1</title>
<path fill="none" stroke="grey" d="M207,-638C175.9,-638 149.52,-611.662 133.296,-590.412"/>
<polygon fill="grey" stroke="grey" points="136.1,-588.317 127.385,-582.292 130.441,-592.437 136.1,-588.317"/>
</g>
<!-- 0_1_kids -->
<g id="node22" class="node"><title>0_1_kids</title>
<polyline fill="none" stroke="grey" points="232,-546 262,-546 "/>
<path fill="none" stroke="grey" d="M262,-546C268,-546 274,-552 274,-558"/>
<polyline fill="none" stroke="grey" points="274,-558 274,-570 "/>
<path fill="none" stroke="grey" d="M274,-570C274,-576 268,-582 262,-582"/>
<polyline fill="none" stroke="grey" points="262,-582 232,-582 "/>
<path fill="none" stroke="grey" d="M232,-582C226,-582 220,-576 220,-570"/>
<polyline fill="none" stroke="grey" points="220,-570 220,-558 "/>
<path fill="none" stroke="grey" d="M220,-558C220,-552 226,-546 232,-546"/>
<text text-anchor="middle" x="247" y="-560.9" font-family="Times Roman,serif" font-size="14.00" fill="darkblue">%$C</text>
</g>
<!-- 0_kids&#45;&gt;0_1_kids -->
<g id="edge24" class="edge"><title>0_kids:port2&#45;&gt;0_1_kids:port1</title>
<path fill="none" stroke="grey" d="M247,-619C247,-610.406 247,-601.057 247,-592.546"/>
<polygon fill="grey" stroke="grey" points="250.5,-592.333 247,-582.333 243.5,-592.333 250.5,-592.333"/>
</g>
<!-- 0_2_kids -->
<g id="node42" class="node"><title>0_2_kids</title>
<polyline fill="none" stroke="grey" points="346,-546 376,-546 "/>
<path fill="none" stroke="grey" d="M376,-546C382,-546 388,-552 388,-558"/>
<polyline fill="none" stroke="grey" points="388,-558 388,-570 "/>
<path fill="none" stroke="grey" d="M388,-570C388,-576 382,-582 376,-582"/>
<polyline fill="none" stroke="grey" points="376,-582 346,-582 "/>
<path fill="none" stroke="grey" d="M346,-582C340,-582 334,-576 334,-570"/>
<polyline fill="none" stroke="grey" points="334,-570 334,-558 "/>
<path fill="none" stroke="grey" d="M334,-558C334,-552 340,-546 346,-546"/>
<text text-anchor="middle" x="361" y="-560.9" font-family="Times Roman,serif" font-size="14.00" fill="darkblue">@$els</text>
</g>
<!-- 0_kids&#45;&gt;0_2_kids -->
<g id="edge44" class="edge"><title>0_kids:port3&#45;&gt;0_2_kids:port1</title>
<path fill="none" stroke="grey" d="M293,-638C319.176,-638 338.025,-612.586 349.146,-591.545"/>
<polygon fill="grey" stroke="grey" points="352.425,-592.809 353.71,-582.292 346.147,-589.712 352.425,-592.809"/>
</g>
<!-- 0_0_0_kids -->
<g id="node6" class="node"><title>0_0_0_kids</title>
<polyline fill="none" stroke="grey" points="43,-472 165,-472 "/>
<path fill="none" stroke="grey" d="M165,-472C171,-472 177,-478 177,-484"/>
<polyline fill="none" stroke="grey" points="177,-484 177,-496 "/>
<path fill="none" stroke="grey" d="M177,-496C177,-502 171,-508 165,-508"/>
<polyline fill="none" stroke="grey" points="165,-508 43,-508 "/>
<path fill="none" stroke="grey" d="M43,-508C37,-508 31,-502 31,-496"/>
<polyline fill="none" stroke="grey" points="31,-496 31,-484 "/>
<path fill="none" stroke="grey" d="M31,-484C31,-478 37,-472 43,-472"/>
<text text-anchor="middle" x="42.5" y="-486.9" font-family="Times Roman,serif" font-size="14.00" fill="darkblue">a</text>
<polyline fill="none" stroke="grey" points="54,-472 54,-508 "/>
<text text-anchor="middle" x="82.5" y="-486.9" font-family="Times Roman,serif" font-size="14.00" fill="darkblue">bbbbbb</text>
<polyline fill="none" stroke="grey" points="111,-472 111,-508 "/>
<text text-anchor="middle" x="132.5" y="-486.9" font-family="Times Roman,serif" font-size="14.00" fill="darkblue">c123</text>
<polyline fill="none" stroke="grey" points="154,-472 154,-508 "/>
<text text-anchor="middle" x="165.5" y="-486.9" font-family="Times Roman,serif" font-size="14.00" fill="darkblue">d</text>
</g>
<!-- 0_0_kids&#45;&gt;0_0_0_kids -->
<g id="edge6" class="edge"><title>0_0_kids:port1&#45;&gt;0_0_0_kids:port2</title>
<path fill="none" stroke="grey" d="M97.6069,-545.796C91.5359,-537.947 85.7035,-528.296 83.2346,-518.013"/>
<polygon fill="grey" stroke="grey" points="86.6975,-517.497 82,-508 79.7501,-518.353 86.6975,-517.497"/>
</g>
<!-- 0_0_0_0_kids -->
<g id="node8" class="node"><title>0_0_0_0_kids</title>
<polyline fill="none" stroke="grey" points="12,-398 42,-398 "/>
<path fill="none" stroke="grey" d="M42,-398C48,-398 54,-404 54,-410"/>
<polyline fill="none" stroke="grey" points="54,-410 54,-422 "/>
<path fill="none" stroke="grey" d="M54,-422C54,-428 48,-434 42,-434"/>
<polyline fill="none" stroke="grey" points="42,-434 12,-434 "/>
<path fill="none" stroke="grey" d="M12,-434C6,-434 0,-428 0,-422"/>
<polyline fill="none" stroke="grey" points="0,-422 0,-410 "/>
<path fill="none" stroke="grey" d="M0,-410C0,-404 6,-398 12,-398"/>
<text text-anchor="middle" x="27" y="-412.9" font-family="Times Roman,serif" font-size="14.00" fill="darkblue">%$a</text>
</g>
<!-- 0_0_0_kids&#45;&gt;0_0_0_0_kids -->
<g id="edge8" class="edge"><title>0_0_0_kids:port1&#45;&gt;0_0_0_0_kids:port1</title>
<path fill="none" stroke="grey" d="M42,-471C42,-461.966 40.0929,-452.381 37.6387,-443.788"/>
<polygon fill="grey" stroke="grey" points="40.9675,-442.706 34.5879,-434.247 34.3001,-444.838 40.9675,-442.706"/>
</g>
<!-- 0_0_0_1_kids -->
<g id="node10" class="node"><title>0_0_0_1_kids</title>
<polyline fill="none" stroke="grey" points="15,-324 55,-324 "/>
<path fill="none" stroke="grey" d="M55,-324C61,-324 67,-330 67,-336"/>
<polyline fill="none" stroke="grey" points="67,-336 67,-348 "/>
<path fill="none" stroke="grey" d="M67,-348C67,-354 61,-360 55,-360"/>
<polyline fill="none" stroke="grey" points="55,-360 15,-360 "/>
<path fill="none" stroke="grey" d="M15,-360C9,-360 3,-354 3,-348"/>
<polyline fill="none" stroke="grey" points="3,-348 3,-336 "/>
<path fill="none" stroke="grey" d="M3,-336C3,-330 9,-324 15,-324"/>
<text text-anchor="middle" x="35" y="-338.9" font-family="Times Roman,serif" font-size="14.00" fill="darkblue">$bbbbbb</text>
</g>
<!-- 0_0_0_kids&#45;&gt;0_0_0_1_kids -->
<g id="edge10" class="edge"><title>0_0_0_kids:port2&#45;&gt;0_0_0_1_kids:port1</title>
<path fill="none" stroke="grey" d="M82,-471C82,-434.012 64.7311,-394.467 51.1285,-369.056"/>
<polygon fill="grey" stroke="grey" points="54.0443,-367.096 46.1383,-360.043 47.9204,-370.487 54.0443,-367.096"/>
</g>
<!-- 0_0_0_2_kids -->
<g id="node14" class="node"><title>0_0_0_2_kids</title>
<polyline fill="none" stroke="grey" points="97,-324 127,-324 "/>
<path fill="none" stroke="grey" d="M127,-324C133,-324 139,-330 139,-336"/>
<polyline fill="none" stroke="grey" points="139,-336 139,-348 "/>
<path fill="none" stroke="grey" d="M139,-348C139,-354 133,-360 127,-360"/>
<polyline fill="none" stroke="grey" points="127,-360 97,-360 "/>
<path fill="none" stroke="grey" d="M97,-360C91,-360 85,-354 85,-348"/>
<polyline fill="none" stroke="grey" points="85,-348 85,-336 "/>
<path fill="none" stroke="grey" d="M85,-336C85,-330 91,-324 97,-324"/>
<text text-anchor="middle" x="112" y="-338.9" font-family="Times Roman,serif" font-size="14.00" fill="darkblue">$c123</text>
</g>
<!-- 0_0_0_kids&#45;&gt;0_0_0_2_kids -->
<g id="edge14" class="edge"><title>0_0_0_kids:port3&#45;&gt;0_0_0_2_kids:port1</title>
<path fill="none" stroke="grey" d="M133,-471C133,-435.9 125.333,-396.119 119.264,-370.128"/>
<polygon fill="grey" stroke="grey" points="122.621,-369.118 116.871,-360.22 115.816,-370.762 122.621,-369.118"/>
</g>
<!-- 0_0_0_3_kids -->
<g id="node17" class="node"><title>0_0_0_3_kids</title>
<polyline fill="none" stroke="grey" points="197.5,-398 240.5,-398 "/>
<path fill="none" stroke="grey" d="M240.5,-398C246.5,-398 252.5,-404 252.5,-410"/>
<polyline fill="none" stroke="grey" points="252.5,-410 252.5,-422 "/>
<path fill="none" stroke="grey" d="M252.5,-422C252.5,-428 246.5,-434 240.5,-434"/>
<polyline fill="none" stroke="grey" points="240.5,-434 197.5,-434 "/>
<path fill="none" stroke="grey" d="M197.5,-434C191.5,-434 185.5,-428 185.5,-422"/>
<polyline fill="none" stroke="grey" points="185.5,-422 185.5,-410 "/>
<path fill="none" stroke="grey" d="M185.5,-410C185.5,-404 191.5,-398 197.5,-398"/>
<text text-anchor="middle" x="219" y="-412.9" font-family="Times Roman,serif" font-size="14.00" fill="darkblue">Object: d</text>
</g>
<!-- 0_0_0_kids&#45;&gt;0_0_0_3_kids -->
<g id="edge18" class="edge"><title>0_0_0_kids:port4&#45;&gt;0_0_0_3_kids:port1</title>
<path fill="none" stroke="grey" d="M166,-471C166,-459.308 172.287,-449.145 180.531,-440.846"/>
<polygon fill="grey" stroke="grey" points="183.031,-443.306 188.17,-434.04 178.375,-438.079 183.031,-443.306"/>
</g>
<!-- &amp;CODE(0x10312d0) -->
<g id="node12" class="node"><title>&amp;CODE(0x10312d0)</title>
<ellipse fill="none" stroke="grey" cx="112" cy="-268" rx="94.7523" ry="19.0919"/>
<text text-anchor="middle" x="112" y="-264.9" font-family="Times Roman,serif" font-size="14.00" fill="red">&amp;CODE(0x10312d0)</text>
</g>
<!-- 0_0_0_1_kids&#45;&gt;&amp;CODE(0x10312d0) -->
<g id="edge12" class="edge"><title>0_0_0_1_kids:port1&#45;&gt;&amp;CODE(0x10312d0)</title>
<path fill="none" stroke="grey" d="M54.8294,-323.686C64.1326,-314.624 75.355,-303.693 85.3844,-293.924"/>
<polygon fill="grey" stroke="grey" points="88.0484,-296.215 92.7698,-286.731 83.1642,-291.201 88.0484,-296.215"/>
</g>
<!-- 0_0_0_2_kids&#45;&gt;&amp;CODE(0x10312d0) -->
<g id="edge16" class="edge"><title>0_0_0_2_kids:port1&#45;&gt;&amp;CODE(0x10312d0)</title>
<path fill="none" stroke="grey" d="M112,-323.686C112,-315.725 112,-306.321 112,-297.53"/>
<polygon fill="grey" stroke="grey" points="115.5,-297.249 112,-287.249 108.5,-297.249 115.5,-297.249"/>
</g>
<!-- $REF(0xed86e0) -->
<g id="node19" class="node"><title>$REF(0xed86e0)</title>
<ellipse fill="none" stroke="grey" cx="235" cy="-342" rx="77.7817" ry="19.0919"/>
<text text-anchor="middle" x="235" y="-338.9" font-family="Times Roman,serif" font-size="14.00" fill="red">$REF(0xed86e0)</text>
</g>
<!-- 0_0_0_3_kids&#45;&gt;$REF(0xed86e0) -->
<g id="edge20" class="edge"><title>0_0_0_3_kids:port1&#45;&gt;$REF(0xed86e0)</title>
<path fill="none" stroke="grey" d="M223.12,-397.686C224.851,-389.575 226.9,-379.966 228.806,-371.034"/>
<polygon fill="grey" stroke="grey" points="232.285,-371.499 230.949,-360.989 225.44,-370.039 232.285,-371.499"/>
</g>
<!-- $REF(0xed86e0)&#45;&gt;&amp;CODE(0x10312d0) -->
<g id="edge22" class="edge"><title>$REF(0xed86e0)&#45;&gt;&amp;CODE(0x10312d0)</title>
<path fill="none" stroke="grey" d="M205.538,-324.275C189.198,-314.444 168.67,-302.094 151.011,-291.47"/>
<polygon fill="grey" stroke="grey" points="152.449,-288.25 142.076,-286.094 148.84,-294.249 152.449,-288.25"/>
</g>
<!-- 0_1_0_kids -->
<g id="node24" class="node"><title>0_1_0_kids</title>
<polyline fill="none" stroke="grey" points="232,-472 262,-472 "/>
<path fill="none" stroke="grey" d="M262,-472C268,-472 274,-478 274,-484"/>
<polyline fill="none" stroke="grey" points="274,-484 274,-496 "/>
<path fill="none" stroke="grey" d="M274,-496C274,-502 268,-508 262,-508"/>
<polyline fill="none" stroke="grey" points="262,-508 232,-508 "/>
<path fill="none" stroke="grey" d="M232,-508C226,-508 220,-502 220,-496"/>
<polyline fill="none" stroke="grey" points="220,-496 220,-484 "/>
<path fill="none" stroke="grey" d="M220,-484C220,-478 226,-472 232,-472"/>
<text text-anchor="middle" x="247" y="-486.9" font-family="Times Roman,serif" font-size="14.00" fill="darkblue">b</text>
</g>
<!-- 0_1_kids&#45;&gt;0_1_0_kids -->
<g id="edge26" class="edge"><title>0_1_kids:port1&#45;&gt;0_1_0_kids:port1</title>
<path fill="none" stroke="grey" d="M247,-545.708C247,-537.464 247,-527.538 247,-518.362"/>
<polygon fill="grey" stroke="grey" points="250.5,-518.082 247,-508.082 243.5,-518.082 250.5,-518.082"/>
</g>
<!-- 0_1_0_0_kids -->
<g id="node26" class="node"><title>0_1_0_0_kids</title>
<polyline fill="none" stroke="grey" points="320,-398 350,-398 "/>
<path fill="none" stroke="grey" d="M350,-398C356,-398 362,-404 362,-410"/>
<polyline fill="none" stroke="grey" points="362,-410 362,-422 "/>
<path fill="none" stroke="grey" d="M362,-422C362,-428 356,-434 350,-434"/>
<polyline fill="none" stroke="grey" points="350,-434 320,-434 "/>
<path fill="none" stroke="grey" d="M320,-434C314,-434 308,-428 308,-422"/>
<polyline fill="none" stroke="grey" points="308,-422 308,-410 "/>
<path fill="none" stroke="grey" d="M308,-410C308,-404 314,-398 320,-398"/>
<text text-anchor="middle" x="335" y="-412.9" font-family="Times Roman,serif" font-size="14.00" fill="darkblue">%$b</text>
</g>
<!-- 0_1_0_kids&#45;&gt;0_1_0_0_kids -->
<g id="edge28" class="edge"><title>0_1_0_kids:port1&#45;&gt;0_1_0_0_kids:port1</title>
<path fill="none" stroke="grey" d="M268.753,-471.708C279.942,-462.299 293.737,-450.699 305.836,-440.525"/>
<polygon fill="grey" stroke="grey" points="308.096,-443.197 313.497,-434.082 303.591,-437.839 308.096,-443.197"/>
</g>
<!-- 0_1_0_0_0_kids -->
<g id="node28" class="node"><title>0_1_0_0_0_kids</title>
<polyline fill="none" stroke="grey" points="343,-324 373,-324 "/>
<path fill="none" stroke="grey" d="M373,-324C379,-324 385,-330 385,-336"/>
<polyline fill="none" stroke="grey" points="385,-336 385,-348 "/>
<path fill="none" stroke="grey" d="M385,-348C385,-354 379,-360 373,-360"/>
<polyline fill="none" stroke="grey" points="373,-360 343,-360 "/>
<path fill="none" stroke="grey" d="M343,-360C337,-360 331,-354 331,-348"/>
<polyline fill="none" stroke="grey" points="331,-348 331,-336 "/>
<path fill="none" stroke="grey" d="M331,-336C331,-330 337,-324 343,-324"/>
<text text-anchor="middle" x="358" y="-338.9" font-family="Times Roman,serif" font-size="14.00" fill="darkblue">a</text>
</g>
<!-- 0_1_0_0_kids&#45;&gt;0_1_0_0_0_kids -->
<g id="edge30" class="edge"><title>0_1_0_0_kids:port1&#45;&gt;0_1_0_0_0_kids:port1</title>
<path fill="none" stroke="grey" d="M340.685,-397.708C343.304,-389.284 346.467,-379.105 349.37,-369.765"/>
<polygon fill="grey" stroke="grey" points="352.754,-370.67 352.38,-360.082 346.07,-368.592 352.754,-370.67"/>
</g>
<!-- 0_1_0_0_0_0_kids -->
<g id="node30" class="node"><title>0_1_0_0_0_0_kids</title>
<polyline fill="none" stroke="grey" points="343,-250 373,-250 "/>
<path fill="none" stroke="grey" d="M373,-250C379,-250 385,-256 385,-262"/>
<polyline fill="none" stroke="grey" points="385,-262 385,-274 "/>
<path fill="none" stroke="grey" d="M385,-274C385,-280 379,-286 373,-286"/>
<polyline fill="none" stroke="grey" points="373,-286 343,-286 "/>
<path fill="none" stroke="grey" d="M343,-286C337,-286 331,-280 331,-274"/>
<polyline fill="none" stroke="grey" points="331,-274 331,-262 "/>
<path fill="none" stroke="grey" d="M331,-262C331,-256 337,-250 343,-250"/>
<text text-anchor="middle" x="358" y="-264.9" font-family="Times Roman,serif" font-size="14.00" fill="darkblue">%$a</text>
</g>
<!-- 0_1_0_0_0_kids&#45;&gt;0_1_0_0_0_0_kids -->
<g id="edge32" class="edge"><title>0_1_0_0_0_kids:port1&#45;&gt;0_1_0_0_0_0_kids:port1</title>
<path fill="none" stroke="grey" d="M358,-323.708C358,-315.464 358,-305.538 358,-296.362"/>
<polygon fill="grey" stroke="grey" points="361.5,-296.082 358,-286.082 354.5,-296.082 361.5,-296.082"/>
</g>
<!-- 0_1_0_0_0_0_0_kids -->
<g id="node32" class="node"><title>0_1_0_0_0_0_0_kids</title>
<polyline fill="none" stroke="grey" points="335.5,-176 380.5,-176 "/>
<path fill="none" stroke="grey" d="M380.5,-176C386.5,-176 392.5,-182 392.5,-188"/>
<polyline fill="none" stroke="grey" points="392.5,-188 392.5,-200 "/>
<path fill="none" stroke="grey" d="M392.5,-200C392.5,-206 386.5,-212 380.5,-212"/>
<polyline fill="none" stroke="grey" points="380.5,-212 335.5,-212 "/>
<path fill="none" stroke="grey" d="M335.5,-212C329.5,-212 323.5,-206 323.5,-200"/>
<polyline fill="none" stroke="grey" points="323.5,-200 323.5,-188 "/>
<path fill="none" stroke="grey" d="M323.5,-188C323.5,-182 329.5,-176 335.5,-176"/>
<text text-anchor="middle" x="335" y="-190.9" font-family="Times Roman,serif" font-size="14.00" fill="darkblue">a</text>
<polyline fill="none" stroke="grey" points="346.5,-176 346.5,-212 "/>
<text text-anchor="middle" x="358" y="-190.9" font-family="Times Roman,serif" font-size="14.00" fill="darkblue">b</text>
<polyline fill="none" stroke="grey" points="369.5,-176 369.5,-212 "/>
<text text-anchor="middle" x="381" y="-190.9" font-family="Times Roman,serif" font-size="14.00" fill="darkblue">c</text>
</g>
<!-- 0_1_0_0_0_0_kids&#45;&gt;0_1_0_0_0_0_0_kids -->
<g id="edge34" class="edge"><title>0_1_0_0_0_0_kids:port1&#45;&gt;0_1_0_0_0_0_0_kids:port2</title>
<path fill="none" stroke="grey" d="M358,-249.74C358,-241.628 358,-231.855 358,-222.258"/>
<polygon fill="grey" stroke="grey" points="361.5,-222 358,-212 354.5,-222 361.5,-222"/>
</g>
<!-- 0_1_0_0_0_0_0_0_kids -->
<g id="node34" class="node"><title>0_1_0_0_0_0_0_0_kids</title>
<polyline fill="none" stroke="grey" points="271,-102 301,-102 "/>
<path fill="none" stroke="grey" d="M301,-102C307,-102 313,-108 313,-114"/>
<polyline fill="none" stroke="grey" points="313,-114 313,-126 "/>
<path fill="none" stroke="grey" d="M313,-126C313,-132 307,-138 301,-138"/>
<polyline fill="none" stroke="grey" points="301,-138 271,-138 "/>
<path fill="none" stroke="grey" d="M271,-138C265,-138 259,-132 259,-126"/>
<polyline fill="none" stroke="grey" points="259,-126 259,-114 "/>
<path fill="none" stroke="grey" d="M259,-114C259,-108 265,-102 271,-102"/>
<text text-anchor="middle" x="286" y="-116.9" font-family="Times Roman,serif" font-size="14.00" fill="darkblue">%$a</text>
</g>
<!-- 0_1_0_0_0_0_0_kids&#45;&gt;0_1_0_0_0_0_0_0_kids -->
<g id="edge36" class="edge"><title>0_1_0_0_0_0_0_kids:port1&#45;&gt;0_1_0_0_0_0_0_0_kids:port1</title>
<path fill="none" stroke="grey" d="M335,-175C335,-167.727 325.326,-156.058 314.574,-145.336"/>
<polygon fill="grey" stroke="grey" points="316.704,-142.528 307.065,-138.13 311.857,-147.579 316.704,-142.528"/>
</g>
<!-- 0_1_0_0_0_0_0_1_kids -->
<g id="node36" class="node"><title>0_1_0_0_0_0_0_1_kids</title>
<polyline fill="none" stroke="grey" points="343,-102 373,-102 "/>
<path fill="none" stroke="grey" d="M373,-102C379,-102 385,-108 385,-114"/>
<polyline fill="none" stroke="grey" points="385,-114 385,-126 "/>
<path fill="none" stroke="grey" d="M385,-126C385,-132 379,-138 373,-138"/>
<polyline fill="none" stroke="grey" points="373,-138 343,-138 "/>
<path fill="none" stroke="grey" d="M343,-138C337,-138 331,-132 331,-126"/>
<polyline fill="none" stroke="grey" points="331,-126 331,-114 "/>
<path fill="none" stroke="grey" d="M331,-114C331,-108 337,-102 343,-102"/>
<text text-anchor="middle" x="358" y="-116.9" font-family="Times Roman,serif" font-size="14.00" fill="darkblue">$b</text>
</g>
<!-- 0_1_0_0_0_0_0_kids&#45;&gt;0_1_0_0_0_0_0_1_kids -->
<g id="edge38" class="edge"><title>0_1_0_0_0_0_0_kids:port2&#45;&gt;0_1_0_0_0_0_0_1_kids:port1</title>
<path fill="none" stroke="grey" d="M358,-175C358,-166.406 358,-157.057 358,-148.546"/>
<polygon fill="grey" stroke="grey" points="361.5,-148.333 358,-138.333 354.5,-148.333 361.5,-148.333"/>
</g>
<!-- 0_1_0_0_0_0_0_2_kids -->
<g id="node40" class="node"><title>0_1_0_0_0_0_0_2_kids</title>
<polyline fill="none" stroke="grey" points="415,-102 445,-102 "/>
<path fill="none" stroke="grey" d="M445,-102C451,-102 457,-108 457,-114"/>
<polyline fill="none" stroke="grey" points="457,-114 457,-126 "/>
<path fill="none" stroke="grey" d="M457,-126C457,-132 451,-138 445,-138"/>
<polyline fill="none" stroke="grey" points="445,-138 415,-138 "/>
<path fill="none" stroke="grey" d="M415,-138C409,-138 403,-132 403,-126"/>
<polyline fill="none" stroke="grey" points="403,-126 403,-114 "/>
<path fill="none" stroke="grey" d="M403,-114C403,-108 409,-102 415,-102"/>
<text text-anchor="middle" x="430" y="-116.9" font-family="Times Roman,serif" font-size="14.00" fill="darkblue">42</text>
</g>
<!-- 0_1_0_0_0_0_0_kids&#45;&gt;0_1_0_0_0_0_0_2_kids -->
<g id="edge42" class="edge"><title>0_1_0_0_0_0_0_kids:port3&#45;&gt;0_1_0_0_0_0_0_2_kids:port1</title>
<path fill="none" stroke="grey" d="M381,-175C381,-167.727 390.674,-156.058 401.426,-145.336"/>
<polygon fill="grey" stroke="grey" points="404.143,-147.579 408.935,-138.13 399.296,-142.528 404.143,-147.579"/>
</g>
<!-- &amp;CODE(0x1031048) -->
<g id="node38" class="node"><title>&amp;CODE(0x1031048)</title>
<ellipse fill="none" stroke="grey" cx="358" cy="-46" rx="94.7523" ry="19.0919"/>
<text text-anchor="middle" x="358" y="-42.9" font-family="Times Roman,serif" font-size="14.00" fill="red">&amp;CODE(0x1031048)</text>
</g>
<!-- 0_1_0_0_0_0_0_1_kids&#45;&gt;&amp;CODE(0x1031048) -->
<g id="edge40" class="edge"><title>0_1_0_0_0_0_0_1_kids:port1&#45;&gt;&amp;CODE(0x1031048)</title>
<path fill="none" stroke="grey" d="M358,-101.686C358,-93.7247 358,-84.321 358,-75.53"/>
<polygon fill="grey" stroke="grey" points="361.5,-75.2489 358,-65.2489 354.5,-75.2489 361.5,-75.2489"/>
</g>
<!-- 0_2_0_kids -->
<g id="node44" class="node"><title>0_2_0_kids</title>
<polyline fill="none" stroke="grey" points="304,-472 502,-472 "/>
<path fill="none" stroke="grey" d="M502,-472C508,-472 514,-478 514,-484"/>
<polyline fill="none" stroke="grey" points="514,-484 514,-496 "/>
<path fill="none" stroke="grey" d="M514,-496C514,-502 508,-508 502,-508"/>
<polyline fill="none" stroke="grey" points="502,-508 304,-508 "/>
<path fill="none" stroke="grey" d="M304,-508C298,-508 292,-502 292,-496"/>
<polyline fill="none" stroke="grey" points="292,-496 292,-484 "/>
<path fill="none" stroke="grey" d="M292,-484C292,-478 298,-472 304,-472"/>
<text text-anchor="middle" x="329" y="-486.9" font-family="Times Roman,serif" font-size="14.00" fill="darkblue">element_1</text>
<polyline fill="none" stroke="grey" points="366,-472 366,-508 "/>
<text text-anchor="middle" x="403" y="-486.9" font-family="Times Roman,serif" font-size="14.00" fill="darkblue">element_2</text>
<polyline fill="none" stroke="grey" points="440,-472 440,-508 "/>
<text text-anchor="middle" x="477" y="-486.9" font-family="Times Roman,serif" font-size="14.00" fill="darkblue">element_3</text>
</g>
<!-- 0_2_kids&#45;&gt;0_2_0_kids -->
<g id="edge46" class="edge"><title>0_2_kids:port1&#45;&gt;0_2_0_kids:port2</title>
<path fill="none" stroke="grey" d="M384.456,-545.812C391.822,-538.107 398.779,-528.538 401.635,-517.966"/>
<polygon fill="grey" stroke="grey" points="405.111,-518.382 403,-508 398.176,-517.433 405.111,-518.382"/>
</g>
</g>
</svg>
