<?xml version="1.0" encoding="UTF-8" standalone="no"?>
<!DOCTYPE svg PUBLIC "-//W3C//DTD SVG 1.1//EN"
 "http://www.w3.org/Graphics/SVG/1.1/DTD/svg11.dtd">
<!-- Generated by graphviz version 2.26.3 (20100126.1600)
 -->
<!-- Title: Perl Pages: 1 -->
<svg width="401pt" height="649pt"
 viewBox="0.00 0.00 401.00 649.00" xmlns="http://www.w3.org/2000/svg" xmlns:xlink="http://www.w3.org/1999/xlink">
<g id="graph1" class="graph" transform="scale(1 1) rotate(0) translate(4 645)">
<title>Perl</title>
<polygon fill="white" stroke="white" points="-4,5 -4,-645 398,-645 398,5 -4,5"/>
<text text-anchor="middle" x="196.5" y="-10.4" font-family="Times Roman,serif" font-size="14.00">Graph produced by GraphViz2::Data::Grapher&#39;s scripts/parse.yapp.pl</text>
<!-- exp -->
<g id="node1" class="node"><title>exp</title>
<polygon fill="none" stroke="darkblue" points="143,-27.5 143,-252.5 232,-252.5 232,-27.5 143,-27.5"/>
<text text-anchor="middle" x="187.5" y="-235.9" font-family="Times Roman,serif" font-size="14.00">exp</text>
<polyline fill="none" stroke="darkblue" points="143,-225.5 232,-225.5 "/>
<text text-anchor="middle" x="187.5" y="-208.9" font-family="Times Roman,serif" font-size="14.00">NUM </text>
<text text-anchor="middle" x="187.5" y="-189.9" font-family="Times Roman,serif" font-size="14.00">VAR </text>
<text text-anchor="middle" x="187.5" y="-170.9" font-family="Times Roman,serif" font-size="14.00">VAR &#39;=&#39; exp </text>
<text text-anchor="middle" x="187.5" y="-151.9" font-family="Times Roman,serif" font-size="14.00">exp &#39;+&#39; exp </text>
<text text-anchor="middle" x="187.5" y="-132.9" font-family="Times Roman,serif" font-size="14.00">exp &#39;&#45;&#39; exp </text>
<text text-anchor="middle" x="187.5" y="-113.9" font-family="Times Roman,serif" font-size="14.00">exp &#39;*&#39; exp </text>
<text text-anchor="middle" x="187.5" y="-94.9" font-family="Times Roman,serif" font-size="14.00">exp &#39;/&#39; exp </text>
<text text-anchor="middle" x="187.5" y="-75.9" font-family="Times Roman,serif" font-size="14.00">&#39;&#45;&#39; exp </text>
<text text-anchor="middle" x="187.5" y="-56.9" font-family="Times Roman,serif" font-size="14.00">exp &#39;^&#39; exp </text>
<text text-anchor="middle" x="187.5" y="-37.9" font-family="Times Roman,serif" font-size="14.00">&#39;(&#39; exp &#39;)&#39; </text>
</g>
<!-- exp&#45;&gt;exp -->
<g id="edge2" class="edge"><title>exp&#45;&gt;exp</title>
<path fill="none" stroke="grey" d="M232.086,-180.975C242.144,-177.283 249.5,-163.625 249.5,-140 249.5,-123.389 245.863,-111.705 240.207,-104.948"/>
<polygon fill="grey" stroke="grey" points="242.228,-102.09 232.086,-99.0254 238.103,-107.746 242.228,-102.09"/>
</g>
<!-- $start -->
<g id="node3" class="node"><title>$start</title>
<polygon fill="none" stroke="darkblue" points="148.5,-586 148.5,-640 226.5,-640 226.5,-586 148.5,-586"/>
<text text-anchor="middle" x="187.5" y="-623.4" font-family="Times Roman,serif" font-size="14.00">$start</text>
<polyline fill="none" stroke="darkblue" points="148.5,-613 226.5,-613 "/>
<text text-anchor="middle" x="187.5" y="-596.4" font-family="Times Roman,serif" font-size="14.00">input $end </text>
</g>
<!-- input -->
<g id="node4" class="node"><title>input</title>
<polygon fill="none" stroke="darkblue" points="151.5,-475.5 151.5,-548.5 223.5,-548.5 223.5,-475.5 151.5,-475.5"/>
<text text-anchor="middle" x="187.5" y="-531.9" font-family="Times Roman,serif" font-size="14.00">input</text>
<polyline fill="none" stroke="darkblue" points="151.5,-521.5 223.5,-521.5 "/>
<text text-anchor="middle" x="187.5" y="-504.9" font-family="Times Roman,serif" font-size="14.00">(empty) </text>
<text text-anchor="middle" x="187.5" y="-485.9" font-family="Times Roman,serif" font-size="14.00">input line </text>
</g>
<!-- $start&#45;&gt;input -->
<g id="edge4" class="edge"><title>$start&#45;&gt;input</title>
<path fill="none" stroke="grey" d="M187.5,-585.934C187.5,-577.523 187.5,-567.998 187.5,-558.65"/>
<polygon fill="grey" stroke="grey" points="191,-558.637 187.5,-548.637 184,-558.637 191,-558.637"/>
</g>
<!-- input&#45;&gt;input -->
<g id="edge6" class="edge"><title>input&#45;&gt;input</title>
<path fill="none" stroke="grey" d="M223.587,-530.657C233.721,-529.84 241.5,-523.621 241.5,-512 241.5,-504.555 238.308,-499.327 233.349,-496.317"/>
<polygon fill="grey" stroke="grey" points="234.173,-492.909 223.587,-493.343 232.133,-499.605 234.173,-492.909"/>
</g>
<!-- line -->
<g id="node7" class="node"><title>line</title>
<polygon fill="none" stroke="darkblue" points="160.5,-289.5 160.5,-438.5 214.5,-438.5 214.5,-289.5 160.5,-289.5"/>
<text text-anchor="middle" x="187.5" y="-421.9" font-family="Times Roman,serif" font-size="14.00">line</text>
<polyline fill="none" stroke="darkblue" points="160.5,-411.5 214.5,-411.5 "/>
<text text-anchor="middle" x="187.5" y="-394.9" font-family="Times Roman,serif" font-size="14.00">&#39;</text>
<text text-anchor="middle" x="187.5" y="-375.9" font-family="Times Roman,serif" font-size="14.00">&#39; </text>
<text text-anchor="middle" x="187.5" y="-356.9" font-family="Times Roman,serif" font-size="14.00">exp &#39;</text>
<text text-anchor="middle" x="187.5" y="-337.9" font-family="Times Roman,serif" font-size="14.00">&#39; </text>
<text text-anchor="middle" x="187.5" y="-318.9" font-family="Times Roman,serif" font-size="14.00">error &#39;</text>
<text text-anchor="middle" x="187.5" y="-299.9" font-family="Times Roman,serif" font-size="14.00">&#39; </text>
</g>
<!-- input&#45;&gt;line -->
<g id="edge8" class="edge"><title>input&#45;&gt;line</title>
<path fill="none" stroke="grey" d="M187.5,-475.416C187.5,-467.181 187.5,-458.107 187.5,-448.8"/>
<polygon fill="grey" stroke="grey" points="191,-448.638 187.5,-438.639 184,-448.639 191,-448.638"/>
</g>
<!-- line&#45;&gt;exp -->
<g id="edge10" class="edge"><title>line&#45;&gt;exp</title>
<path fill="none" stroke="grey" d="M187.5,-289.411C187.5,-280.812 187.5,-271.88 187.5,-262.853"/>
<polygon fill="grey" stroke="grey" points="191,-262.633 187.5,-252.633 184,-262.633 191,-262.633"/>
</g>
</g>
</svg>
