<?xml version="1.0" encoding="UTF-8" standalone="no"?>
<!DOCTYPE svg PUBLIC "-//W3C//DTD SVG 1.1//EN"
 "http://www.w3.org/Graphics/SVG/1.1/DTD/svg11.dtd">
<!-- Generated by graphviz version 2.26.3 (20100126.1600)
 -->
<!-- Title: Perl Pages: 1 -->
<svg width="388pt" height="112pt"
 viewBox="0.00 0.00 388.00 112.46" xmlns="http://www.w3.org/2000/svg" xmlns:xlink="http://www.w3.org/1999/xlink">
<g id="graph1" class="graph" transform="scale(1 1) rotate(0) translate(4 108.458)">
<title>Perl</title>
<polygon fill="white" stroke="white" points="-4,5 -4,-108.458 385,-108.458 385,5 -4,5"/>
<text text-anchor="middle" x="190" y="-10.4" font-family="Times Roman,serif" font-size="14.00">Graph produced by GraphViz2::Data::Grapher&#39;s scripts/parse.stt.pl</text>
<!-- foo -->
<g id="node1" class="node"><title>foo</title>
<ellipse fill="none" stroke="green" cx="85" cy="-48.4576" rx="27" ry="19.0919"/>
<text text-anchor="middle" x="85" y="-45.3576" font-family="Times Roman,serif" font-size="14.00">foo</text>
</g>
<!-- foo&#45;&gt;foo -->
<g id="edge12" class="edge"><title>foo&#45;&gt;foo</title>
<path fill="none" stroke="grey" d="M75.7166,-66.3511C73.9836,-76.2979 77.0781,-85.4576 85,-85.4576 90.075,-85.4576 93.1687,-81.6984 94.2814,-76.3814"/>
<polygon fill="grey" stroke="grey" points="97.7813,-76.3518 94.2834,-66.3511 90.7813,-76.3503 97.7813,-76.3518"/>
<text text-anchor="middle" x="85" y="-91.8576" font-family="Times Roman,serif" font-size="14.00">/./</text>
</g>
<!-- bar -->
<g id="node2" class="node"><title>bar</title>
<ellipse fill="none" stroke="green" cx="191" cy="-48.4576" rx="27" ry="19.0919"/>
<text text-anchor="middle" x="191" y="-45.3576" font-family="Times Roman,serif" font-size="14.00">bar</text>
</g>
<!-- foo&#45;&gt;bar -->
<g id="edge10" class="edge"><title>foo&#45;&gt;bar</title>
<path fill="none" stroke="grey" d="M112.023,-48.4576C124.633,-48.4576 139.851,-48.4576 153.548,-48.4576"/>
<polygon fill="grey" stroke="grey" points="153.658,-51.9577 163.658,-48.4576 153.658,-44.9577 153.658,-51.9577"/>
<text text-anchor="middle" x="138" y="-54.8576" font-family="Times Roman,serif" font-size="14.00">/b/</text>
</g>
<!-- bar&#45;&gt;foo -->
<g id="edge6" class="edge"><title>bar&#45;&gt;foo</title>
<path fill="none" stroke="grey" d="M170.412,-35.968C158.729,-30.3419 143.737,-25.5424 130,-28.4576 125.233,-29.4692 120.358,-31.0218 115.659,-32.8244"/>
<polygon fill="grey" stroke="grey" points="114.186,-29.6477 106.353,-36.7823 116.925,-36.0893 114.186,-29.6477"/>
<text text-anchor="middle" x="138" y="-34.8576" font-family="Times Roman,serif" font-size="14.00">/a/</text>
</g>
<!-- bar&#45;&gt;bar -->
<g id="edge2" class="edge"><title>bar&#45;&gt;bar</title>
<path fill="none" stroke="grey" d="M181.717,-66.3511C179.984,-76.2979 183.078,-85.4576 191,-85.4576 196.075,-85.4576 199.169,-81.6984 200.281,-76.3814"/>
<polygon fill="grey" stroke="grey" points="203.781,-76.3518 200.283,-66.3511 196.781,-76.3503 203.781,-76.3518"/>
<text text-anchor="middle" x="191" y="-91.8576" font-family="Times Roman,serif" font-size="14.00">/b/</text>
</g>
<!-- baz -->
<g id="node3" class="node"><title>baz</title>
<ellipse fill="none" stroke="green" cx="295" cy="-48.4576" rx="27" ry="19.0919"/>
<text text-anchor="middle" x="295" y="-45.3576" font-family="Times Roman,serif" font-size="14.00">baz</text>
</g>
<!-- bar&#45;&gt;baz -->
<g id="edge4" class="edge"><title>bar&#45;&gt;baz</title>
<path fill="none" stroke="grey" d="M218.053,-48.4576C230.116,-48.4576 244.525,-48.4576 257.596,-48.4576"/>
<polygon fill="grey" stroke="grey" points="257.721,-51.9577 267.721,-48.4576 257.721,-44.9577 257.721,-51.9577"/>
<text text-anchor="middle" x="243" y="-54.8576" font-family="Times Roman,serif" font-size="14.00">/c/</text>
</g>
<!-- baz&#45;&gt;baz -->
<g id="edge8" class="edge"><title>baz&#45;&gt;baz</title>
<path fill="none" stroke="grey" d="M285.717,-66.3511C283.984,-76.2979 287.078,-85.4576 295,-85.4576 300.075,-85.4576 303.169,-81.6984 304.281,-76.3814"/>
<polygon fill="grey" stroke="grey" points="307.781,-76.3518 304.283,-66.3511 300.781,-76.3503 307.781,-76.3518"/>
<text text-anchor="middle" x="295" y="-91.8576" font-family="Times Roman,serif" font-size="14.00">/./</text>
</g>
</g>
</svg>
