<?xml version="1.0" encoding="UTF-8" standalone="no"?>
<!DOCTYPE svg PUBLIC "-//W3C//DTD SVG 1.1//EN"
 "http://www.w3.org/Graphics/SVG/1.1/DTD/svg11.dtd">
<!-- Generated by graphviz version 2.26.3 (20100126.1600)
 -->
<!-- Title: Perl Pages: 1 -->
<svg width="2639pt" height="813pt"
 viewBox="0.00 0.00 2639.00 813.00" xmlns="http://www.w3.org/2000/svg" xmlns:xlink="http://www.w3.org/1999/xlink">
<g id="graph1" class="graph" transform="scale(1 1) rotate(0) translate(4 809)">
<title>Perl</title>
<polygon fill="white" stroke="white" points="-4,5 -4,-809 2636,-809 2636,5 -4,5"/>
<text text-anchor="middle" x="1315.5" y="-10.4" font-family="Times Roman,serif" font-size="14.00">Graph produced by GraphViz2::Data::Grapher&#39;s scripts/parse.marpa.pl</text>
<!-- graph_definition_1 -->
<g id="node1" class="node"><title>graph_definition_1</title>
<polygon fill="none" stroke="blue" points="-0.5,-768 -0.5,-804 316.5,-804 316.5,-768 -0.5,-768"/>
<text text-anchor="middle" x="71" y="-782.9" font-family="Times Roman,serif" font-size="14.00">lhs: graph_definition_1</text>
<polyline fill="none" stroke="blue" points="142.5,-768 142.5,-804 "/>
<text text-anchor="middle" x="171" y="-782.9" font-family="Times Roman,serif" font-size="14.00">rhs list:</text>
<polyline fill="none" stroke="blue" points="199.5,-768 199.5,-804 "/>
<text text-anchor="middle" x="258" y="-782.9" font-family="Times Roman,serif" font-size="14.00">graph_sequence_1</text>
</g>
<!-- graph_sequence_2 -->
<g id="node12" class="node"><title>graph_sequence_2</title>
<polygon fill="none" stroke="blue" points="146.5,-620 146.5,-656 459.5,-656 459.5,-620 146.5,-620"/>
<text text-anchor="middle" x="216.5" y="-634.9" font-family="Times Roman,serif" font-size="14.00">lhs: graph_sequence_2</text>
<polyline fill="none" stroke="blue" points="286.5,-620 286.5,-656 "/>
<text text-anchor="middle" x="315" y="-634.9" font-family="Times Roman,serif" font-size="14.00">rhs list:</text>
<polyline fill="none" stroke="blue" points="343.5,-620 343.5,-656 "/>
<text text-anchor="middle" x="401.5" y="-634.9" font-family="Times Roman,serif" font-size="14.00">node_definition_2</text>
</g>
<!-- graph_definition_1&#45;&gt;graph_sequence_2 -->
<g id="edge2" class="edge"><title>graph_definition_1:port3&#45;&gt;graph_sequence_2:port1</title>
<path fill="none" stroke="grey" d="M258,-768C258,-746.829 236.632,-750.331 228,-731 215.741,-703.548 215.8,-692.281 215.959,-666.296"/>
<polygon fill="grey" stroke="grey" points="219.46,-666.014 216,-656 212.46,-665.986 219.46,-666.014"/>
</g>
<!-- graph_sequence_3 -->
<g id="node15" class="node"><title>graph_sequence_3</title>
<polygon fill="none" stroke="blue" points="236.5,-694 236.5,-730 781.5,-730 781.5,-694 236.5,-694"/>
<text text-anchor="middle" x="306.5" y="-708.9" font-family="Times Roman,serif" font-size="14.00">lhs: graph_sequence_3</text>
<polyline fill="none" stroke="blue" points="376.5,-694 376.5,-730 "/>
<text text-anchor="middle" x="405" y="-708.9" font-family="Times Roman,serif" font-size="14.00">rhs list:</text>
<polyline fill="none" stroke="blue" points="433.5,-694 433.5,-730 "/>
<text text-anchor="middle" x="492" y="-708.9" font-family="Times Roman,serif" font-size="14.00">graph_sequence_3</text>
<polyline fill="none" stroke="blue" points="550.5,-694 550.5,-730 "/>
<text text-anchor="middle" x="608" y="-708.9" font-family="Times Roman,serif" font-size="14.00">edge_definition_3</text>
<polyline fill="none" stroke="blue" points="665.5,-694 665.5,-730 "/>
<text text-anchor="middle" x="723.5" y="-708.9" font-family="Times Roman,serif" font-size="14.00">node_definition_3</text>
</g>
<!-- graph_definition_1&#45;&gt;graph_sequence_3 -->
<g id="edge4" class="edge"><title>graph_definition_1:port3&#45;&gt;graph_sequence_3:port1</title>
<path fill="none" stroke="grey" d="M317,-786C325.222,-786 321.445,-774.417 317,-767.5 295.604,-734.204 257.396,-763.796 236,-730.5 234.264,-727.798 232.629,-724.384 231.772,-721.227"/>
<polygon fill="grey" stroke="grey" points="235.016,-722.549 236,-712 228.652,-719.633 235.016,-722.549"/>
</g>
<!-- end_node_10 -->
<g id="node2" class="node"><title>end_node_10</title>
<polygon fill="none" stroke="blue" points="732.5,-324 732.5,-360 1011.5,-360 1011.5,-324 732.5,-324"/>
<text text-anchor="middle" x="789" y="-338.9" font-family="Times Roman,serif" font-size="14.00">lhs: end_node_10</text>
<polyline fill="none" stroke="blue" points="845.5,-324 845.5,-360 "/>
<text text-anchor="middle" x="874" y="-338.9" font-family="Times Roman,serif" font-size="14.00">rhs list:</text>
<polyline fill="none" stroke="blue" points="902.5,-324 902.5,-360 "/>
<text text-anchor="middle" x="957" y="-338.9" font-family="Times Roman,serif" font-size="14.00">right_bracket_10</text>
</g>
<!-- attr_definition_11 -->
<g id="node3" class="node"><title>attr_definition_11</title>
<polygon fill="none" stroke="blue" points="1029,-324 1029,-360 1337,-360 1337,-324 1029,-324"/>
<text text-anchor="middle" x="1097.5" y="-338.9" font-family="Times Roman,serif" font-size="14.00">lhs: attr_definition_11</text>
<polyline fill="none" stroke="blue" points="1166,-324 1166,-360 "/>
<text text-anchor="middle" x="1194.5" y="-338.9" font-family="Times Roman,serif" font-size="14.00">rhs list:</text>
<polyline fill="none" stroke="blue" points="1223,-324 1223,-360 "/>
<text text-anchor="middle" x="1280" y="-338.9" font-family="Times Roman,serif" font-size="14.00">attr_statement_11</text>
</g>
<!-- attr_statement_12 -->
<g id="node4" class="node"><title>attr_statement_12</title>
<polygon fill="none" stroke="blue" points="1211.5,-250 1211.5,-286 1736.5,-286 1736.5,-250 1211.5,-250"/>
<text text-anchor="middle" x="1280" y="-264.9" font-family="Times Roman,serif" font-size="14.00">lhs: attr_statement_12</text>
<polyline fill="none" stroke="blue" points="1348.5,-250 1348.5,-286 "/>
<text text-anchor="middle" x="1377" y="-264.9" font-family="Times Roman,serif" font-size="14.00">rhs list:</text>
<polyline fill="none" stroke="blue" points="1405.5,-250 1405.5,-286 "/>
<text text-anchor="middle" x="1461.5" y="-264.9" font-family="Times Roman,serif" font-size="14.00">start_attribute_12</text>
<polyline fill="none" stroke="blue" points="1517.5,-250 1517.5,-286 "/>
<text text-anchor="middle" x="1573" y="-264.9" font-family="Times Roman,serif" font-size="14.00">attr_sequence_12</text>
<polyline fill="none" stroke="blue" points="1628.5,-250 1628.5,-286 "/>
<text text-anchor="middle" x="1682.5" y="-264.9" font-family="Times Roman,serif" font-size="14.00">end_attribute_12</text>
</g>
<!-- attr_definition_11&#45;&gt;attr_statement_12 -->
<g id="edge6" class="edge"><title>attr_definition_11:port3&#45;&gt;attr_statement_12:port1</title>
<path fill="none" stroke="grey" d="M1337,-342C1345.22,-342 1341.93,-330.082 1337,-323.5 1302.02,-276.776 1245.98,-333.224 1211,-286.5 1209,-283.826 1207.27,-280.271 1206.47,-276.993"/>
<polygon fill="grey" stroke="grey" points="1209.62,-278.505 1211,-268 1203.37,-275.354 1209.62,-278.505"/>
</g>
<!-- start_attribute_13 -->
<g id="node5" class="node"><title>start_attribute_13</title>
<polygon fill="none" stroke="blue" points="1206.5,-176 1206.5,-212 1489.5,-212 1489.5,-176 1206.5,-176"/>
<text text-anchor="middle" x="1274" y="-190.9" font-family="Times Roman,serif" font-size="14.00">lhs: start_attribute_13</text>
<polyline fill="none" stroke="blue" points="1341.5,-176 1341.5,-212 "/>
<text text-anchor="middle" x="1370" y="-190.9" font-family="Times Roman,serif" font-size="14.00">rhs list:</text>
<polyline fill="none" stroke="blue" points="1398.5,-176 1398.5,-212 "/>
<text text-anchor="middle" x="1444" y="-190.9" font-family="Times Roman,serif" font-size="14.00">left_brace_13</text>
</g>
<!-- attr_statement_12&#45;&gt;start_attribute_13 -->
<g id="edge8" class="edge"><title>attr_statement_12:port3&#45;&gt;start_attribute_13:port1</title>
<path fill="none" stroke="grey" d="M1461,-250C1461,-169 1290.42,-285.421 1275.1,-222.158"/>
<polygon fill="grey" stroke="grey" points="1278.55,-221.566 1274,-212 1271.6,-222.318 1278.55,-221.566"/>
</g>
<!-- attr_sequence_14 -->
<g id="node6" class="node"><title>attr_sequence_14</title>
<polygon fill="none" stroke="blue" points="1506.5,-176 1506.5,-212 1819.5,-212 1819.5,-176 1506.5,-176"/>
<text text-anchor="middle" x="1573.5" y="-190.9" font-family="Times Roman,serif" font-size="14.00">lhs: attr_sequence_14</text>
<polyline fill="none" stroke="blue" points="1640.5,-176 1640.5,-212 "/>
<text text-anchor="middle" x="1669" y="-190.9" font-family="Times Roman,serif" font-size="14.00">rhs list:</text>
<polyline fill="none" stroke="blue" points="1697.5,-176 1697.5,-212 "/>
<text text-anchor="middle" x="1758.5" y="-190.9" font-family="Times Roman,serif" font-size="14.00">attr_declaration_14</text>
</g>
<!-- attr_statement_12&#45;&gt;attr_sequence_14 -->
<g id="edge10" class="edge"><title>attr_statement_12:port4&#45;&gt;attr_sequence_14:port1</title>
<path fill="none" stroke="grey" d="M1572,-249C1572,-215.48 1523.03,-241.374 1506,-212.5 1504.37,-209.733 1502.76,-206.305 1501.89,-203.155"/>
<polygon fill="grey" stroke="grey" points="1505.1,-204.556 1506,-194 1498.71,-201.689 1505.1,-204.556"/>
</g>
<!-- end_attribute_19 -->
<g id="node11" class="node"><title>end_attribute_19</title>
<polygon fill="none" stroke="blue" points="1837,-176 1837,-212 2123,-212 2123,-176 1837,-176"/>
<text text-anchor="middle" x="1902.5" y="-190.9" font-family="Times Roman,serif" font-size="14.00">lhs: end_attribute_19</text>
<polyline fill="none" stroke="blue" points="1968,-176 1968,-212 "/>
<text text-anchor="middle" x="1996.5" y="-190.9" font-family="Times Roman,serif" font-size="14.00">rhs list:</text>
<polyline fill="none" stroke="blue" points="2025,-176 2025,-212 "/>
<text text-anchor="middle" x="2074" y="-190.9" font-family="Times Roman,serif" font-size="14.00">right_brace_19</text>
</g>
<!-- attr_statement_12&#45;&gt;end_attribute_19 -->
<g id="edge12" class="edge"><title>attr_statement_12:port5&#45;&gt;end_attribute_19:port1</title>
<path fill="none" stroke="grey" d="M1737,-268C1784.26,-268 1796.32,-248.065 1828,-213 1830.74,-209.967 1831.02,-205.951 1831.24,-202.393"/>
<polygon fill="grey" stroke="grey" points="1834.23,-204.226 1837,-194 1828.46,-200.267 1834.23,-204.226"/>
</g>
<!-- attr_declaration_15 -->
<g id="node7" class="node"><title>attr_declaration_15</title>
<polygon fill="none" stroke="blue" points="1686.5,-102 1686.5,-138 2257.5,-138 2257.5,-102 1686.5,-102"/>
<text text-anchor="middle" x="1759" y="-116.9" font-family="Times Roman,serif" font-size="14.00">lhs: attr_declaration_15</text>
<polyline fill="none" stroke="blue" points="1831.5,-102 1831.5,-138 "/>
<text text-anchor="middle" x="1860" y="-116.9" font-family="Times Roman,serif" font-size="14.00">rhs list:</text>
<polyline fill="none" stroke="blue" points="1888.5,-102 1888.5,-138 "/>
<text text-anchor="middle" x="1934.5" y="-116.9" font-family="Times Roman,serif" font-size="14.00">attr_name_15</text>
<polyline fill="none" stroke="blue" points="1980.5,-102 1980.5,-138 "/>
<text text-anchor="middle" x="2014" y="-116.9" font-family="Times Roman,serif" font-size="14.00">colon_15</text>
<polyline fill="none" stroke="blue" points="2047.5,-102 2047.5,-138 "/>
<text text-anchor="middle" x="2093" y="-116.9" font-family="Times Roman,serif" font-size="14.00">attr_value_15</text>
<polyline fill="none" stroke="blue" points="2138.5,-102 2138.5,-138 "/>
<text text-anchor="middle" x="2198" y="-116.9" font-family="Times Roman,serif" font-size="14.00">attr_terminator_15</text>
</g>
<!-- attr_sequence_14&#45;&gt;attr_declaration_15 -->
<g id="edge14" class="edge"><title>attr_sequence_14:port3&#45;&gt;attr_declaration_15:port1</title>
<path fill="none" stroke="grey" d="M1820,-194C1828.22,-194 1824.98,-182.042 1820,-175.5 1782.57,-126.341 1723.43,-187.659 1686,-138.5 1683.98,-135.842 1682.24,-132.291 1681.44,-129.01"/>
<polygon fill="grey" stroke="grey" points="1684.61,-130.503 1686,-120 1678.36,-127.344 1684.61,-130.503"/>
</g>
<!-- attr_name_16 -->
<g id="node8" class="node"><title>attr_name_16</title>
<polygon fill="none" stroke="blue" points="1738.5,-28 1738.5,-64 2019.5,-64 2019.5,-28 1738.5,-28"/>
<text text-anchor="middle" x="1796" y="-42.9" font-family="Times Roman,serif" font-size="14.00">lhs: attr_name_16</text>
<polyline fill="none" stroke="blue" points="1853.5,-28 1853.5,-64 "/>
<text text-anchor="middle" x="1882" y="-42.9" font-family="Times Roman,serif" font-size="14.00">rhs list:</text>
<polyline fill="none" stroke="blue" points="1910.5,-28 1910.5,-64 "/>
<text text-anchor="middle" x="1965" y="-42.9" font-family="Times Roman,serif" font-size="14.00">attr_name_id_16</text>
</g>
<!-- attr_declaration_15&#45;&gt;attr_name_16 -->
<g id="edge16" class="edge"><title>attr_declaration_15:port3&#45;&gt;attr_name_16:port1</title>
<path fill="none" stroke="grey" d="M1934,-102C1934,-42.2356 1812.21,-117.371 1797.46,-73.9421"/>
<polygon fill="grey" stroke="grey" points="1800.91,-73.3871 1796,-64 1793.99,-74.4017 1800.91,-73.3871"/>
</g>
<!-- attr_value_17 -->
<g id="node9" class="node"><title>attr_value_17</title>
<polygon fill="none" stroke="blue" points="2036.5,-28 2036.5,-64 2315.5,-64 2315.5,-28 2036.5,-28"/>
<text text-anchor="middle" x="2093.5" y="-42.9" font-family="Times Roman,serif" font-size="14.00">lhs: attr_value_17</text>
<polyline fill="none" stroke="blue" points="2150.5,-28 2150.5,-64 "/>
<text text-anchor="middle" x="2179" y="-42.9" font-family="Times Roman,serif" font-size="14.00">rhs list:</text>
<polyline fill="none" stroke="blue" points="2207.5,-28 2207.5,-64 "/>
<text text-anchor="middle" x="2261.5" y="-42.9" font-family="Times Roman,serif" font-size="14.00">attr_value_id_17</text>
</g>
<!-- attr_declaration_15&#45;&gt;attr_value_17 -->
<g id="edge18" class="edge"><title>attr_declaration_15:port5&#45;&gt;attr_value_17:port1</title>
<path fill="none" stroke="grey" d="M2092,-101C2092,-71.2911 2050.15,-90.6205 2036,-64.5 2034.53,-61.7891 2033.01,-58.5098 2032.11,-55.4696"/>
<polygon fill="grey" stroke="grey" points="2035.44,-56.5799 2036,-46 2028.96,-53.9204 2035.44,-56.5799"/>
</g>
<!-- attr_terminator_18 -->
<g id="node10" class="node"><title>attr_terminator_18</title>
<polygon fill="none" stroke="blue" points="2332.5,-28 2332.5,-64 2631.5,-64 2631.5,-28 2332.5,-28"/>
<text text-anchor="middle" x="2403.5" y="-42.9" font-family="Times Roman,serif" font-size="14.00">lhs: attr_terminator_18</text>
<polyline fill="none" stroke="blue" points="2474.5,-28 2474.5,-64 "/>
<text text-anchor="middle" x="2503" y="-42.9" font-family="Times Roman,serif" font-size="14.00">rhs list:</text>
<polyline fill="none" stroke="blue" points="2531.5,-28 2531.5,-64 "/>
<text text-anchor="middle" x="2581.5" y="-42.9" font-family="Times Roman,serif" font-size="14.00">semi_colon_18</text>
</g>
<!-- attr_declaration_15&#45;&gt;attr_terminator_18 -->
<g id="edge20" class="edge"><title>attr_declaration_15:port6&#45;&gt;attr_terminator_18:port1</title>
<path fill="none" stroke="grey" d="M2258,-120C2296.18,-120 2301.28,-95.6885 2324,-65 2326.3,-61.8933 2326.45,-58.0263 2326.55,-54.5934"/>
<polygon fill="grey" stroke="grey" points="2329.6,-56.319 2332,-46 2323.69,-52.569 2329.6,-56.319"/>
</g>
<!-- node_definition_4 -->
<g id="node16" class="node"><title>node_definition_4</title>
<polygon fill="none" stroke="blue" points="332.5,-546 332.5,-582 641.5,-582 641.5,-546 332.5,-546"/>
<text text-anchor="middle" x="402" y="-560.9" font-family="Times Roman,serif" font-size="14.00">lhs: node_definition_4</text>
<polyline fill="none" stroke="blue" points="471.5,-546 471.5,-582 "/>
<text text-anchor="middle" x="500" y="-560.9" font-family="Times Roman,serif" font-size="14.00">rhs list:</text>
<polyline fill="none" stroke="blue" points="528.5,-546 528.5,-582 "/>
<text text-anchor="middle" x="585" y="-560.9" font-family="Times Roman,serif" font-size="14.00">node_sequence_4</text>
</g>
<!-- graph_sequence_2&#45;&gt;node_definition_4 -->
<g id="edge22" class="edge"><title>graph_sequence_2:port3&#45;&gt;node_definition_4:port1</title>
<path fill="none" stroke="grey" d="M460,-638C468.222,-638 464.941,-626.072 460,-619.5 424.412,-572.168 367.588,-629.832 332,-582.5 329.993,-579.83 328.259,-576.276 327.46,-572.997"/>
<polygon fill="grey" stroke="grey" points="330.62,-574.505 332,-564 324.37,-571.351 330.62,-574.505"/>
</g>
<!-- edge_definition_20 -->
<g id="node13" class="node"><title>edge_definition_20</title>
<polygon fill="none" stroke="blue" points="558.5,-620 558.5,-656 973.5,-656 973.5,-620 558.5,-620"/>
<text text-anchor="middle" x="631" y="-634.9" font-family="Times Roman,serif" font-size="14.00">lhs: edge_definition_20</text>
<polyline fill="none" stroke="blue" points="703.5,-620 703.5,-656 "/>
<text text-anchor="middle" x="732" y="-634.9" font-family="Times Roman,serif" font-size="14.00">rhs list:</text>
<polyline fill="none" stroke="blue" points="760.5,-620 760.5,-656 "/>
<text text-anchor="middle" x="810" y="-634.9" font-family="Times Roman,serif" font-size="14.00">edge_name_20</text>
<polyline fill="none" stroke="blue" points="859.5,-620 859.5,-656 "/>
<text text-anchor="middle" x="916.5" y="-634.9" font-family="Times Roman,serif" font-size="14.00">attr_definition_20</text>
</g>
<!-- edge_definition_20&#45;&gt;attr_definition_11 -->
<g id="edge26" class="edge"><title>edge_definition_20:port4&#45;&gt;attr_definition_11:port1</title>
<path fill="none" stroke="grey" d="M975,-638C1059.33,-638 1095.82,-573.405 1096.97,-370.101"/>
<polygon fill="grey" stroke="grey" points="1100.47,-370.01 1097,-360 1093.47,-369.99 1100.47,-370.01"/>
</g>
<!-- edge_name_21 -->
<g id="node14" class="node"><title>edge_name_21</title>
<polygon fill="none" stroke="blue" points="749.5,-546 749.5,-582 1008.5,-582 1008.5,-546 749.5,-546"/>
<text text-anchor="middle" x="810.5" y="-560.9" font-family="Times Roman,serif" font-size="14.00">lhs: edge_name_21</text>
<polyline fill="none" stroke="blue" points="871.5,-546 871.5,-582 "/>
<text text-anchor="middle" x="900" y="-560.9" font-family="Times Roman,serif" font-size="14.00">rhs list:</text>
<polyline fill="none" stroke="blue" points="928.5,-546 928.5,-582 "/>
<text text-anchor="middle" x="968.5" y="-560.9" font-family="Times Roman,serif" font-size="14.00">edge_id_21</text>
</g>
<!-- edge_definition_20&#45;&gt;edge_name_21 -->
<g id="edge24" class="edge"><title>edge_definition_20:port3&#45;&gt;edge_name_21:port1</title>
<path fill="none" stroke="grey" d="M810,-620C810,-607.069 810,-601.564 810,-592.114"/>
<polygon fill="grey" stroke="grey" points="813.5,-592 810,-582 806.5,-592 813.5,-592"/>
</g>
<!-- graph_sequence_3&#45;&gt;graph_sequence_2 -->
<g id="edge28" class="edge"><title>graph_sequence_3:port3&#45;&gt;graph_sequence_2:port1</title>
<path fill="none" stroke="grey" d="M492,-694C492,-573.804 231.935,-767.826 216.697,-666.041"/>
<polygon fill="grey" stroke="grey" points="220.184,-665.734 216,-656 213.201,-666.218 220.184,-665.734"/>
</g>
<!-- graph_sequence_3&#45;&gt;edge_definition_20 -->
<g id="edge32" class="edge"><title>graph_sequence_3:port4&#45;&gt;edge_definition_20:port1</title>
<path fill="none" stroke="grey" d="M607,-693C607,-665.844 570.184,-680.769 558,-656.5 556.617,-653.744 555.114,-650.454 554.211,-647.417"/>
<polygon fill="grey" stroke="grey" points="557.514,-648.584 558,-638 551.02,-645.971 557.514,-648.584"/>
</g>
<!-- graph_sequence_3&#45;&gt;graph_sequence_3 -->
<g id="edge30" class="edge"><title>graph_sequence_3:port1&#45;&gt;graph_sequence_3:port1</title>
<path fill="none" stroke="grey" d="M236.49,-725.834C222.337,-726.367 219,-721.756 219,-712 219,-705.293 220.577,-701.017 226.162,-699.174"/>
<polygon fill="grey" stroke="grey" points="226.877,-702.621 236.49,-698.166 226.198,-695.654 226.877,-702.621"/>
</g>
<!-- graph_sequence_3&#45;&gt;node_definition_4 -->
<g id="edge34" class="edge"><title>graph_sequence_3:port5&#45;&gt;node_definition_4:port1</title>
<path fill="none" stroke="grey" d="M724,-694C724,-654.469 587.278,-670.156 550,-657 546.299,-655.694 441.578,-605.567 410.57,-587.869"/>
<polygon fill="grey" stroke="grey" points="412.228,-584.762 402,-582 408.273,-590.538 412.228,-584.762"/>
</g>
<!-- node_sequence_5 -->
<g id="node17" class="node"><title>node_sequence_5</title>
<polygon fill="none" stroke="blue" points="190.5,-472 190.5,-508 499.5,-508 499.5,-472 190.5,-472"/>
<text text-anchor="middle" x="258.5" y="-486.9" font-family="Times Roman,serif" font-size="14.00">lhs: node_sequence_5</text>
<polyline fill="none" stroke="blue" points="326.5,-472 326.5,-508 "/>
<text text-anchor="middle" x="355" y="-486.9" font-family="Times Roman,serif" font-size="14.00">rhs list:</text>
<polyline fill="none" stroke="blue" points="383.5,-472 383.5,-508 "/>
<text text-anchor="middle" x="441.5" y="-486.9" font-family="Times Roman,serif" font-size="14.00">node_statement_5</text>
</g>
<!-- node_definition_4&#45;&gt;node_sequence_5 -->
<g id="edge36" class="edge"><title>node_definition_4:port3&#45;&gt;node_sequence_5:port1</title>
<path fill="none" stroke="grey" d="M585,-546C585,-476.559 290.368,-570.623 260.444,-517.788"/>
<polygon fill="grey" stroke="grey" points="263.818,-516.854 258,-508 257.027,-518.55 263.818,-516.854"/>
</g>
<!-- node_sequence_7 -->
<g id="node19" class="node"><title>node_sequence_7</title>
<polygon fill="none" stroke="blue" points="517,-472 517,-508 921,-508 921,-472 517,-472"/>
<text text-anchor="middle" x="585" y="-486.9" font-family="Times Roman,serif" font-size="14.00">lhs: node_sequence_7</text>
<polyline fill="none" stroke="blue" points="653,-472 653,-508 "/>
<text text-anchor="middle" x="681.5" y="-486.9" font-family="Times Roman,serif" font-size="14.00">rhs list:</text>
<polyline fill="none" stroke="blue" points="710,-472 710,-508 "/>
<text text-anchor="middle" x="768" y="-486.9" font-family="Times Roman,serif" font-size="14.00">node_statement_7</text>
<polyline fill="none" stroke="blue" points="826,-472 826,-508 "/>
<text text-anchor="middle" x="873.5" y="-486.9" font-family="Times Roman,serif" font-size="14.00">daisy_chain_7</text>
</g>
<!-- node_definition_4&#45;&gt;node_sequence_7 -->
<g id="edge38" class="edge"><title>node_definition_4:port3&#45;&gt;node_sequence_7:port1</title>
<path fill="none" stroke="grey" d="M642,-564C650.222,-564 646.92,-552.088 642,-545.5 607.33,-499.08 551.67,-554.92 517,-508.5 515.001,-505.824 513.269,-502.269 512.469,-498.991"/>
<polygon fill="grey" stroke="grey" points="515.625,-500.505 517,-490 509.374,-497.355 515.625,-500.505"/>
</g>
<!-- node_statement_6 -->
<g id="node18" class="node"><title>node_statement_6</title>
<polygon fill="none" stroke="blue" points="372.5,-398 372.5,-434 937.5,-434 937.5,-398 372.5,-398"/>
<text text-anchor="middle" x="442" y="-412.9" font-family="Times Roman,serif" font-size="14.00">lhs: node_statement_6</text>
<polyline fill="none" stroke="blue" points="511.5,-398 511.5,-434 "/>
<text text-anchor="middle" x="540" y="-412.9" font-family="Times Roman,serif" font-size="14.00">rhs list:</text>
<polyline fill="none" stroke="blue" points="568.5,-398 568.5,-434 "/>
<text text-anchor="middle" x="611.5" y="-412.9" font-family="Times Roman,serif" font-size="14.00">start_node_6</text>
<polyline fill="none" stroke="blue" points="654.5,-398 654.5,-434 "/>
<text text-anchor="middle" x="701" y="-412.9" font-family="Times Roman,serif" font-size="14.00">node_name_6</text>
<polyline fill="none" stroke="blue" points="747.5,-398 747.5,-434 "/>
<text text-anchor="middle" x="789" y="-412.9" font-family="Times Roman,serif" font-size="14.00">end_node_6</text>
<polyline fill="none" stroke="blue" points="830.5,-398 830.5,-434 "/>
<text text-anchor="middle" x="884" y="-412.9" font-family="Times Roman,serif" font-size="14.00">attr_definition_6</text>
</g>
<!-- node_sequence_5&#45;&gt;node_statement_6 -->
<g id="edge40" class="edge"><title>node_sequence_5:port3&#45;&gt;node_statement_6:port1</title>
<path fill="none" stroke="grey" d="M500,-490C508.222,-490 504.941,-478.072 500,-471.5 464.412,-424.168 407.588,-481.832 372,-434.5 369.993,-431.83 368.259,-428.276 367.46,-424.997"/>
<polygon fill="grey" stroke="grey" points="370.62,-426.505 372,-416 364.37,-423.351 370.62,-426.505"/>
</g>
<!-- node_statement_6&#45;&gt;end_node_10 -->
<g id="edge46" class="edge"><title>node_statement_6:port5&#45;&gt;end_node_10:port1</title>
<path fill="none" stroke="grey" d="M788,-397C788,-367.291 746.154,-386.621 732,-360.5 730.531,-357.789 729.008,-354.51 728.111,-351.47"/>
<polygon fill="grey" stroke="grey" points="731.438,-352.58 732,-342 724.963,-349.92 731.438,-352.58"/>
</g>
<!-- node_statement_6&#45;&gt;attr_definition_11 -->
<g id="edge48" class="edge"><title>node_statement_6:port6&#45;&gt;attr_definition_11:port1</title>
<path fill="none" stroke="grey" d="M938,-416C981.883,-416 991.356,-394.246 1020,-361 1022.67,-357.903 1022.94,-353.879 1023.18,-350.332"/>
<polygon fill="grey" stroke="grey" points="1026.14,-352.201 1029,-342 1020.4,-348.191 1026.14,-352.201"/>
</g>
<!-- start_node_8 -->
<g id="node20" class="node"><title>start_node_8</title>
<polygon fill="none" stroke="blue" points="153,-324 153,-360 415,-360 415,-324 153,-324"/>
<text text-anchor="middle" x="208" y="-338.9" font-family="Times Roman,serif" font-size="14.00">lhs: start_node_8</text>
<polyline fill="none" stroke="blue" points="263,-324 263,-360 "/>
<text text-anchor="middle" x="291.5" y="-338.9" font-family="Times Roman,serif" font-size="14.00">rhs list:</text>
<polyline fill="none" stroke="blue" points="320,-324 320,-360 "/>
<text text-anchor="middle" x="367.5" y="-338.9" font-family="Times Roman,serif" font-size="14.00">left_bracket_8</text>
</g>
<!-- node_statement_6&#45;&gt;start_node_8 -->
<g id="edge42" class="edge"><title>node_statement_6:port3&#45;&gt;start_node_8:port1</title>
<path fill="none" stroke="grey" d="M611,-398C611,-311.737 240.381,-438.702 209.978,-369.93"/>
<polygon fill="grey" stroke="grey" points="213.386,-369.123 208,-360 206.521,-370.491 213.386,-369.123"/>
</g>
<!-- node_name_9 -->
<g id="node21" class="node"><title>node_name_9</title>
<polygon fill="none" stroke="blue" points="432.5,-324 432.5,-360 715.5,-360 715.5,-324 432.5,-324"/>
<text text-anchor="middle" x="490.5" y="-338.9" font-family="Times Roman,serif" font-size="14.00">lhs: node_name_9</text>
<polyline fill="none" stroke="blue" points="548.5,-324 548.5,-360 "/>
<text text-anchor="middle" x="577" y="-338.9" font-family="Times Roman,serif" font-size="14.00">rhs list:</text>
<polyline fill="none" stroke="blue" points="605.5,-324 605.5,-360 "/>
<text text-anchor="middle" x="660.5" y="-338.9" font-family="Times Roman,serif" font-size="14.00">node_name_id_9</text>
</g>
<!-- node_statement_6&#45;&gt;node_name_9 -->
<g id="edge44" class="edge"><title>node_statement_6:port4&#45;&gt;node_name_9:port1</title>
<path fill="none" stroke="grey" d="M701,-398C701,-306.436 506.162,-443.745 490.941,-370.061"/>
<polygon fill="grey" stroke="grey" points="494.416,-369.631 490,-360 487.446,-370.282 494.416,-369.631"/>
</g>
<!-- node_sequence_7&#45;&gt;node_statement_6 -->
<g id="edge50" class="edge"><title>node_sequence_7:port3&#45;&gt;node_statement_6:port1</title>
<path fill="none" stroke="grey" d="M768,-472C768,-402.769 474.269,-496.446 444.437,-443.76"/>
<polygon fill="grey" stroke="grey" points="447.818,-442.854 442,-434 441.027,-444.55 447.818,-442.854"/>
</g>
</g>
</svg>
