<?xml version="1.0" encoding="UTF-8" standalone="no"?>
<!DOCTYPE svg PUBLIC "-//W3C//DTD SVG 1.1//EN"
 "http://www.w3.org/Graphics/SVG/1.1/DTD/svg11.dtd">
<!-- Generated by graphviz version 2.26.3 (20100126.1600)
 -->
<!-- Title: Perl Pages: 1 -->
<svg width="412pt" height="513pt"
 viewBox="0.00 0.00 412.00 513.00" xmlns="http://www.w3.org/2000/svg" xmlns:xlink="http://www.w3.org/1999/xlink">
<g id="graph1" class="graph" transform="scale(1 1) rotate(0) translate(4 509)">
<title>Perl</title>
<polygon fill="white" stroke="white" points="-4,5 -4,-509 409,-509 409,5 -4,5"/>
<text text-anchor="middle" x="202" y="-10.4" font-family="Times Roman,serif" font-size="14.00">Graph produced by GraphViz2::Data::Grapher&#39;s scripts/parse.regexp.pl</text>
<!-- 1 -->
<g id="node1" class="node"><title>1</title>
<ellipse fill="none" stroke="darkblue" cx="202" cy="-486" rx="53.9477" ry="19.0919"/>
<text text-anchor="middle" x="202" y="-482.9" font-family="Times Roman,serif" font-size="14.00">START $1</text>
</g>
<!-- 3 -->
<g id="node2" class="node"><title>3</title>
<polygon fill="none" stroke="darkblue" points="202,-431 175,-413 202,-395 229,-413 202,-431"/>
</g>
<!-- 1&#45;&gt;3 -->
<g id="edge2" class="edge"><title>1&#45;&gt;3</title>
<path fill="none" stroke="grey" d="M202,-466.82C202,-459.097 202,-450.028 202,-441.558"/>
<polygon fill="grey" stroke="grey" points="205.5,-441.297 202,-431.297 198.5,-441.297 205.5,-441.297"/>
</g>
<!-- 4 -->
<g id="node4" class="node"><title>4</title>
<ellipse fill="none" stroke="darkblue" cx="139" cy="-340" rx="53.9477" ry="19.0919"/>
<text text-anchor="middle" x="139" y="-336.9" font-family="Times Roman,serif" font-size="14.00">START $2</text>
</g>
<!-- 3&#45;&gt;4 -->
<g id="edge4" class="edge"><title>3&#45;&gt;4</title>
<path fill="none" stroke="grey" d="M191.878,-401.271C183.661,-391.75 171.768,-377.969 161.342,-365.888"/>
<polygon fill="grey" stroke="grey" points="163.939,-363.54 154.755,-358.256 158.639,-368.114 163.939,-363.54"/>
</g>
<!-- 20 -->
<g id="node6" class="node"><title>20</title>
<ellipse fill="none" stroke="darkblue" cx="265" cy="-340" rx="53.9477" ry="19.0919"/>
<text text-anchor="middle" x="265" y="-336.9" font-family="Times Roman,serif" font-size="14.00">START $3</text>
</g>
<!-- 3&#45;&gt;20 -->
<g id="edge6" class="edge"><title>3&#45;&gt;20</title>
<path fill="none" stroke="grey" d="M212.122,-401.271C220.339,-391.75 232.232,-377.969 242.658,-365.888"/>
<polygon fill="grey" stroke="grey" points="245.361,-368.114 249.245,-358.256 240.061,-363.54 245.361,-368.114"/>
</g>
<!-- 6 -->
<g id="node16" class="node"><title>6</title>
<polygon fill="none" stroke="darkblue" points="184,-285 114,-285 114,-249 184,-249 184,-285"/>
<text text-anchor="middle" x="149" y="-263.9" font-family="Times Roman,serif" font-size="14.00">[0&#45;9a&#45;d][]</text>
</g>
<!-- 4&#45;&gt;6 -->
<g id="edge16" class="edge"><title>4&#45;&gt;6</title>
<path fill="none" stroke="grey" d="M141.627,-320.82C142.697,-313.012 143.955,-303.827 145.127,-295.276"/>
<polygon fill="grey" stroke="grey" points="148.604,-295.68 146.494,-285.297 141.669,-294.73 148.604,-295.68"/>
</g>
<!-- 22 -->
<g id="node8" class="node"><title>22</title>
<polygon fill="none" stroke="darkblue" points="290,-285 236,-285 236,-249 290,-249 290,-285"/>
<text text-anchor="middle" x="263" y="-263.9" font-family="Times Roman,serif" font-size="14.00">foo</text>
</g>
<!-- 20&#45;&gt;22 -->
<g id="edge8" class="edge"><title>20&#45;&gt;22</title>
<path fill="none" stroke="grey" d="M264.475,-320.82C264.263,-313.097 264.014,-304.028 263.782,-295.558"/>
<polygon fill="grey" stroke="grey" points="267.274,-295.198 263.501,-285.297 260.277,-295.389 267.274,-295.198"/>
</g>
<!-- 24 -->
<g id="node10" class="node"><title>24</title>
<ellipse fill="none" stroke="darkblue" cx="262" cy="-194" rx="43.8406" ry="19.0919"/>
<text text-anchor="middle" x="262" y="-190.9" font-family="Times Roman,serif" font-size="14.00">END $3</text>
</g>
<!-- 22&#45;&gt;24 -->
<g id="edge10" class="edge"><title>22&#45;&gt;24</title>
<path fill="none" stroke="grey" d="M262.753,-248.955C262.647,-241.211 262.52,-231.962 262.401,-223.281"/>
<polygon fill="grey" stroke="grey" points="265.899,-223.064 262.262,-213.113 258.899,-223.16 265.899,-223.064"/>
</g>
<!-- 26 -->
<g id="node12" class="node"><title>26</title>
<ellipse fill="none" stroke="darkblue" cx="208" cy="-120" rx="43.8406" ry="19.0919"/>
<text text-anchor="middle" x="208" y="-116.9" font-family="Times Roman,serif" font-size="14.00">END $1</text>
</g>
<!-- 24&#45;&gt;26 -->
<g id="edge12" class="edge"><title>24&#45;&gt;26</title>
<path fill="none" stroke="grey" d="M248.652,-175.708C242.226,-166.902 234.401,-156.179 227.338,-146.5"/>
<polygon fill="grey" stroke="grey" points="230.104,-144.353 221.382,-138.338 224.449,-148.479 230.104,-144.353"/>
</g>
<!-- 28 -->
<g id="node14" class="node"><title>28</title>
<ellipse fill="none" stroke="darkblue" cx="208" cy="-46" rx="31.1127" ry="19.0919"/>
<text text-anchor="middle" x="208" y="-42.9" font-family="Times Roman,serif" font-size="14.00">END</text>
</g>
<!-- 26&#45;&gt;28 -->
<g id="edge14" class="edge"><title>26&#45;&gt;28</title>
<path fill="none" stroke="grey" d="M208,-100.943C208,-93.1493 208,-83.9538 208,-75.3381"/>
<polygon fill="grey" stroke="grey" points="211.5,-75.2494 208,-65.2495 204.5,-75.2495 211.5,-75.2494"/>
</g>
<!-- 17 -->
<g id="node18" class="node"><title>17</title>
<ellipse fill="none" stroke="darkblue" cx="154" cy="-194" rx="43.8406" ry="19.0919"/>
<text text-anchor="middle" x="154" y="-190.9" font-family="Times Roman,serif" font-size="14.00">END $2</text>
</g>
<!-- 6&#45;&gt;17 -->
<g id="edge18" class="edge"><title>6&#45;&gt;17</title>
<path fill="none" stroke="grey" d="M150.236,-248.955C150.766,-241.211 151.4,-231.962 151.994,-223.281"/>
<polygon fill="grey" stroke="grey" points="155.499,-223.329 152.691,-213.113 148.516,-222.85 155.499,-223.329"/>
</g>
<!-- 17&#45;&gt;26 -->
<g id="edge20" class="edge"><title>17&#45;&gt;26</title>
<path fill="none" stroke="grey" d="M167.348,-175.708C173.774,-166.902 181.599,-156.179 188.662,-146.5"/>
<polygon fill="grey" stroke="grey" points="191.551,-148.479 194.618,-138.338 185.896,-144.353 191.551,-148.479"/>
</g>
</g>
</svg>
