<?xml version="1.0" encoding="UTF-8" standalone="no"?>
<!DOCTYPE svg PUBLIC "-//W3C//DTD SVG 1.1//EN"
 "http://www.w3.org/Graphics/SVG/1.1/DTD/svg11.dtd">
<!-- Generated by graphviz version 2.26.3 (20100126.1600)
 -->
<!-- Title: Perl Pages: 1 -->
<svg width="522pt" height="751pt"
 viewBox="0.00 0.00 522.00 751.00" xmlns="http://www.w3.org/2000/svg" xmlns:xlink="http://www.w3.org/1999/xlink">
<g id="graph1" class="graph" transform="scale(1 1) rotate(0) translate(4 747)">
<title>Perl</title>
<polygon fill="white" stroke="white" points="-4,5 -4,-747 519,-747 519,5 -4,5"/>
<text text-anchor="middle" x="257" y="-10.4" font-family="Times Roman,serif" font-size="14.00">Graph produced by GraphViz2::Data::Grapher&#39;s scripts/parse.data.pl</text>
<!-- 0 -->
<g id="node1" class="node"><title>0</title>
<polygon fill="none" stroke="green" points="277.938,-709.44 277.938,-726.56 259.815,-738.665 234.185,-738.665 216.062,-726.56 216.062,-709.44 234.185,-697.335 259.815,-697.335 277.938,-709.44"/>
<polygon fill="none" stroke="green" points="281.882,-707.285 281.882,-728.715 260.997,-742.665 233.003,-742.665 212.118,-728.715 212.118,-707.285 233.003,-693.335 260.997,-693.335 281.882,-707.285"/>
<text text-anchor="middle" x="247" y="-714.9" font-family="Times Roman,serif" font-size="14.00">%$s</text>
</g>
<!-- 0_kids -->
<g id="node2" class="node"><title>0_kids</title>
<polyline fill="none" stroke="grey" points="220,-620 280,-620 "/>
<path fill="none" stroke="grey" d="M280,-620C286,-620 292,-626 292,-632"/>
<polyline fill="none" stroke="grey" points="292,-632 292,-644 "/>
<path fill="none" stroke="grey" d="M292,-644C292,-650 286,-656 280,-656"/>
<polyline fill="none" stroke="grey" points="280,-656 220,-656 "/>
<path fill="none" stroke="grey" d="M220,-656C214,-656 208,-650 208,-644"/>
<polyline fill="none" stroke="grey" points="208,-644 208,-632 "/>
<path fill="none" stroke="grey" d="M208,-632C208,-626 214,-620 220,-620"/>
<text text-anchor="middle" x="221" y="-634.9" font-family="Times Roman,serif" font-size="14.00" fill="darkblue">A</text>
<polyline fill="none" stroke="grey" points="234,-620 234,-656 "/>
<text text-anchor="middle" x="247" y="-634.9" font-family="Times Roman,serif" font-size="14.00" fill="darkblue">C</text>
<polyline fill="none" stroke="grey" points="260,-620 260,-656 "/>
<text text-anchor="middle" x="276" y="-634.9" font-family="Times Roman,serif" font-size="14.00" fill="darkblue">els</text>
</g>
<!-- 0&#45;&gt;0_kids -->
<g id="edge2" class="edge"><title>0&#45;&gt;0_kids:port2</title>
<path fill="none" stroke="grey" d="M247,-693.261C247,-685.012 247,-675.558 247,-666.298"/>
<polygon fill="grey" stroke="grey" points="250.5,-666 247,-656 243.5,-666 250.5,-666"/>
</g>
<!-- 0_0_kids -->
<g id="node4" class="node"><title>0_0_kids</title>
<polyline fill="none" stroke="grey" points="101,-546 131,-546 "/>
<path fill="none" stroke="grey" d="M131,-546C137,-546 143,-552 143,-558"/>
<polyline fill="none" stroke="grey" points="143,-558 143,-570 "/>
<path fill="none" stroke="grey" d="M143,-570C143,-576 137,-582 131,-582"/>
<polyline fill="none" stroke="grey" points="131,-582 101,-582 "/>
<path fill="none" stroke="grey" d="M101,-582C95,-582 89,-576 89,-570"/>
<polyline fill="none" stroke="grey" points="89,-570 89,-558 "/>
<path fill="none" stroke="grey" d="M89,-558C89,-552 95,-546 101,-546"/>
<text text-anchor="middle" x="116" y="-560.9" font-family="Times Roman,serif" font-size="14.00" fill="darkblue">%$A</text>
</g>
<!-- 0_kids&#45;&gt;0_0_kids -->
<g id="edge4" class="edge"><title>0_kids:port1&#45;&gt;0_0_kids:port1</title>
<path fill="none" stroke="grey" d="M207,-638C175.9,-638 149.52,-611.662 133.296,-590.412"/>
<polygon fill="grey" stroke="grey" points="136.1,-588.317 127.385,-582.292 130.441,-592.437 136.1,-588.317"/>
</g>
<!-- 0_1_kids -->
<g id="node22" class="node"><title>0_1_kids</title>
<polyline fill="none" stroke="grey" points="232,-546 262,-546 "/>
<path fill="none" stroke="grey" d="M262,-546C268,-546 274,-552 274,-558"/>
<polyline fill="none" stroke="grey" points="274,-558 274,-570 "/>
<path fill="none" stroke="grey" d="M274,-570C274,-576 268,-582 262,-582"/>
<polyline fill="none" stroke="grey" points="262,-582 232,-582 "/>
<path fill="none" stroke="grey" d="M232,-582C226,-582 220,-576 220,-570"/>
<polyline fill="none" stroke="grey" points="220,-570 220,-558 "/>
<path fill="none" stroke="grey" d="M220,-558C220,-552 226,-546 232,-546"/>
<text text-anchor="middle" x="247" y="-560.9" font-family="Times Roman,serif" font-size="14.00" fill="darkblue">%$C</text>
</g>
<!-- 0_kids&#45;&gt;0_1_kids -->
<g id="edge24" class="edge"><title>0_kids:port2&#45;&gt;0_1_kids:port1</title>
<path fill="none" stroke="grey" d="M247,-619C247,-610.406 247,-601.057 247,-592.546"/>
<polygon fill="grey" stroke="grey" points="250.5,-592.333 247,-582.333 243.5,-592.333 250.5,-592.333"/>
</g>
<!-- 0_2_kids -->
<g id="node42" class="node"><title>0_2_kids</title>
<polyline fill="none" stroke="grey" points="346,-546 376,-546 "/>
<path fill="none" stroke="grey" d="M376,-546C382,-546 388,-552 388,-558"/>
<polyline fill="none" stroke="grey" points="388,-558 388,-570 "/>
<path fill="none" stroke="grey" d="M388,-570C388,-576 382,-582 376,-582"/>
<polyline fill="none" stroke="grey" points="376,-582 346,-582 "/>
<path fill="none" stroke="grey" d="M346,-582C340,-582 334,-576 334,-570"/>
<polyline fill="none" stroke="grey" points="334,-570 334,-558 "/>
<path fill="none" stroke="grey" d="M334,-558C334,-552 340,-546 346,-546"/>
<text text-anchor="middle" x="361" y="-560.9" font-family="Times Roman,serif" font-size="14.00" fill="darkblue">@$els</text>
</g>
<!-- 0_kids&#45;&gt;0_2_kids -->
<g id="edge44" class="edge"><title>0_kids:port3&#45;&gt;0_2_kids:port1</title>
<path fill="none" stroke="grey" d="M293,-638C319.176,-638 338.025,-612.586 349.146,-591.545"/>
<polygon fill="grey" stroke="grey" points="352.425,-592.809 353.71,-582.292 346.147,-589.712 352.425,-592.809"/>
</g>
<!-- 0_0_0_kids -->
<g id="node6" class="node"><title>0_0_0_kids</title>
<polyline fill="none" stroke="grey" points="43,-472 165,-472 "/>
<path fill="none" stroke="grey" d="M165,-472C171,-472 177,-478 177,-484"/>
<polyline fill="none" stroke="grey" points="177,-484 177,-496 "/>
<path fill="none" stroke="grey" d="M177,-496C177,-502 171,-508 165,-508"/>
<polyline fill="none" stroke="grey" points="165,-508 43,-508 "/>
<path fill="none" stroke="grey" d="M43,-508C37,-508 31,-502 31,-496"/>
<polyline fill="none" stroke="grey" points="31,-496 31,-484 "/>
<path fill="none" stroke="grey" d="M31,-484C31,-478 37,-472 43,-472"/>
<text text-anchor="middle" x="42.5" y="-486.9" font-family="Times Roman,serif" font-size="14.00" fill="darkblue">a</text>
<polyline fill="none" stroke="grey" points="54,-472 54,-508 "/>
<text text-anchor="middle" x="82.5" y="-486.9" font-family="Times Roman,serif" font-size="14.00" fill="darkblue">bbbbbb</text>
<polyline fill="none" stroke="grey" points="111,-472 111,-508 "/>
<text text-anchor="middle" x="132.5" y="-486.9" font-family="Times Roman,serif" font-size="14.00" fill="darkblue">c123</text>
<polyline fill="none" stroke="grey" points="154,-472 154,-508 "/>
<text text-anchor="middle" x="165.5" y="-486.9" font-family="Times Roman,serif" font-size="14.00" fill="darkblue">d</text>
</g>
<!-- 0_0_kids&#45;&gt;0_0_0_kids -->
<g id="edge6" class="edge"><title>0_0_kids:port1&#45;&gt;0_0_0_kids:port2</title>
<path fill="none" stroke="grey" d="M97.6069,-545.796C91.5359,-537.947 85.7035,-528.296 83.2346,-518.013"/>
<polygon fill="grey" stroke="grey" points="86.6975,-517.497 82,-508 79.7501,-518.353 86.6975,-517.497"/>
</g>
<!-- 0_0_0_0_kids -->
<g id="node8" class="node"><title>0_0_0_0_kids</title>
<polyline fill="none" stroke="grey" points="12,-398 42,-398 "/>
<path fill="none" stroke="grey" d="M42,-398C48,-398 54,-404 54,-410"/>
<polyline fill="none" stroke="grey" points="54,-410 54,-422 "/>
<path fill="none" stroke="grey" d="M54,-422C54,-428 48,-434 42,-434"/>
<polyline fill="none" stroke="grey" points="42,-434 12,-434 "/>
<path fill="none" stroke="grey" d="M12,-434C6,-434 0,-428 0,-422"/>
<polyline fill="none" stroke="grey" points="0,-422 0,-410 "/>
<path fill="none" stroke="grey" d="M0,-410C0,-404 6,-398 12,-398"/>
<text text-anchor="middle" x="27" y="-412.9" font-family="Times Roman,serif" font-size="14.00" fill="darkblue">%$a</text>
</g>
<!-- 0_0_0_kids&#45;&gt;0_0_0_0_kids -->
<g id="edge8" class="edge"><title>0_0_0_kids:port1&#45;&gt;0_0_0_0_kids:port1</title>
<path fill="none" stroke="grey" d="M42,-471C42,-461.966 40.0929,-452.381 37.6387,-443.788"/>
<polygon fill="grey" stroke="grey" points="40.9675,-442.706 34.5879,-434.247 34.3001,-444.838 40.9675,-442.706"/>
</g>
<!-- 0_0_0_1_kids -->
<g id="node10" class="node"><title>0_0_0_1_kids</title>
<polyline fill="none" stroke="grey" points="14,-324 54,-324 "/>
<path fill="none" stroke="grey" d="M54,-324C60,-324 66,-330 66,-336"/>
<polyline fill="none" stroke="grey" points="66,-336 66,-348 "/>
<path fill="none" stroke="grey" d="M66,-348C66,-354 60,-360 54,-360"/>
<polyline fill="none" stroke="grey" points="54,-360 14,-360 "/>
<path fill="none" stroke="grey" d="M14,-360C8,-360 2,-354 2,-348"/>
<polyline fill="none" stroke="grey" points="2,-348 2,-336 "/>
<path fill="none" stroke="grey" d="M2,-336C2,-330 8,-324 14,-324"/>
<text text-anchor="middle" x="34" y="-338.9" font-family="Times Roman,serif" font-size="14.00" fill="darkblue">$bbbbbb</text>
</g>
<!-- 0_0_0_kids&#45;&gt;0_0_0_1_kids -->
<g id="edge10" class="edge"><title>0_0_0_kids:port2&#45;&gt;0_0_0_1_kids:port1</title>
<path fill="none" stroke="grey" d="M82,-471C82,-433.919 64.3636,-394.394 50.4717,-369.012"/>
<polygon fill="grey" stroke="grey" points="53.3482,-366.989 45.3753,-360.012 47.2568,-370.438 53.3482,-366.989"/>
</g>
<!-- 0_0_0_2_kids -->
<g id="node14" class="node"><title>0_0_0_2_kids</title>
<polyline fill="none" stroke="grey" points="96,-324 126,-324 "/>
<path fill="none" stroke="grey" d="M126,-324C132,-324 138,-330 138,-336"/>
<polyline fill="none" stroke="grey" points="138,-336 138,-348 "/>
<path fill="none" stroke="grey" d="M138,-348C138,-354 132,-360 126,-360"/>
<polyline fill="none" stroke="grey" points="126,-360 96,-360 "/>
<path fill="none" stroke="grey" d="M96,-360C90,-360 84,-354 84,-348"/>
<polyline fill="none" stroke="grey" points="84,-348 84,-336 "/>
<path fill="none" stroke="grey" d="M84,-336C84,-330 90,-324 96,-324"/>
<text text-anchor="middle" x="111" y="-338.9" font-family="Times Roman,serif" font-size="14.00" fill="darkblue">$c123</text>
</g>
<!-- 0_0_0_kids&#45;&gt;0_0_0_2_kids -->
<g id="edge14" class="edge"><title>0_0_0_kids:port3&#45;&gt;0_0_0_2_kids:port1</title>
<path fill="none" stroke="grey" d="M133,-471C133,-435.856 124.967,-396.084 118.61,-370.108"/>
<polygon fill="grey" stroke="grey" points="121.95,-369.04 116.103,-360.205 115.164,-370.758 121.95,-369.04"/>
</g>
<!-- 0_0_0_3_kids -->
<g id="node17" class="node"><title>0_0_0_3_kids</title>
<polyline fill="none" stroke="grey" points="199.5,-398 242.5,-398 "/>
<path fill="none" stroke="grey" d="M242.5,-398C248.5,-398 254.5,-404 254.5,-410"/>
<polyline fill="none" stroke="grey" points="254.5,-410 254.5,-422 "/>
<path fill="none" stroke="grey" d="M254.5,-422C254.5,-428 248.5,-434 242.5,-434"/>
<polyline fill="none" stroke="grey" points="242.5,-434 199.5,-434 "/>
<path fill="none" stroke="grey" d="M199.5,-434C193.5,-434 187.5,-428 187.5,-422"/>
<polyline fill="none" stroke="grey" points="187.5,-422 187.5,-410 "/>
<path fill="none" stroke="grey" d="M187.5,-410C187.5,-404 193.5,-398 199.5,-398"/>
<text text-anchor="middle" x="221" y="-412.9" font-family="Times Roman,serif" font-size="14.00" fill="darkblue">Object: d</text>
</g>
<!-- 0_0_0_kids&#45;&gt;0_0_0_3_kids -->
<g id="edge18" class="edge"><title>0_0_0_kids:port4&#45;&gt;0_0_0_3_kids:port1</title>
<path fill="none" stroke="grey" d="M166,-471C166,-459.198 172.41,-449.044 180.854,-440.788"/>
<polygon fill="grey" stroke="grey" points="183.404,-443.211 188.688,-434.028 178.831,-437.911 183.404,-443.211"/>
</g>
<!-- &amp;CODE(0x1784240) -->
<g id="node12" class="node"><title>&amp;CODE(0x1784240)</title>
<ellipse fill="none" stroke="grey" cx="111" cy="-268" rx="94.7523" ry="19.0919"/>
<text text-anchor="middle" x="111" y="-264.9" font-family="Times Roman,serif" font-size="14.00" fill="red">&amp;CODE(0x1784240)</text>
</g>
<!-- 0_0_0_1_kids&#45;&gt;&amp;CODE(0x1784240) -->
<g id="edge12" class="edge"><title>0_0_0_1_kids:port1&#45;&gt;&amp;CODE(0x1784240)</title>
<path fill="none" stroke="grey" d="M53.8294,-323.686C63.1326,-314.624 74.355,-303.693 84.3844,-293.924"/>
<polygon fill="grey" stroke="grey" points="87.0484,-296.215 91.7698,-286.731 82.1642,-291.201 87.0484,-296.215"/>
</g>
<!-- 0_0_0_2_kids&#45;&gt;&amp;CODE(0x1784240) -->
<g id="edge16" class="edge"><title>0_0_0_2_kids:port1&#45;&gt;&amp;CODE(0x1784240)</title>
<path fill="none" stroke="grey" d="M111,-323.686C111,-315.725 111,-306.321 111,-297.53"/>
<polygon fill="grey" stroke="grey" points="114.5,-297.249 111,-287.249 107.5,-297.249 114.5,-297.249"/>
</g>
<!-- $REF(0x162b6f0) -->
<g id="node19" class="node"><title>$REF(0x162b6f0)</title>
<ellipse fill="none" stroke="grey" cx="238" cy="-342" rx="82.0244" ry="19.0919"/>
<text text-anchor="middle" x="238" y="-338.9" font-family="Times Roman,serif" font-size="14.00" fill="red">$REF(0x162b6f0)</text>
</g>
<!-- 0_0_0_3_kids&#45;&gt;$REF(0x162b6f0) -->
<g id="edge20" class="edge"><title>0_0_0_3_kids:port1&#45;&gt;$REF(0x162b6f0)</title>
<path fill="none" stroke="grey" d="M225.378,-397.686C227.236,-389.487 229.442,-379.757 231.485,-370.743"/>
<polygon fill="grey" stroke="grey" points="234.899,-371.516 233.696,-360.989 228.072,-369.968 234.899,-371.516"/>
</g>
<!-- $REF(0x162b6f0)&#45;&gt;&amp;CODE(0x1784240) -->
<g id="edge22" class="edge"><title>$REF(0x162b6f0)&#45;&gt;&amp;CODE(0x1784240)</title>
<path fill="none" stroke="grey" d="M207.58,-324.275C190.553,-314.354 169.124,-301.867 150.779,-291.178"/>
<polygon fill="grey" stroke="grey" points="152.456,-288.105 142.054,-286.094 148.932,-294.153 152.456,-288.105"/>
</g>
<!-- 0_1_0_kids -->
<g id="node24" class="node"><title>0_1_0_kids</title>
<polyline fill="none" stroke="grey" points="232,-472 262,-472 "/>
<path fill="none" stroke="grey" d="M262,-472C268,-472 274,-478 274,-484"/>
<polyline fill="none" stroke="grey" points="274,-484 274,-496 "/>
<path fill="none" stroke="grey" d="M274,-496C274,-502 268,-508 262,-508"/>
<polyline fill="none" stroke="grey" points="262,-508 232,-508 "/>
<path fill="none" stroke="grey" d="M232,-508C226,-508 220,-502 220,-496"/>
<polyline fill="none" stroke="grey" points="220,-496 220,-484 "/>
<path fill="none" stroke="grey" d="M220,-484C220,-478 226,-472 232,-472"/>
<text text-anchor="middle" x="247" y="-486.9" font-family="Times Roman,serif" font-size="14.00" fill="darkblue">b</text>
</g>
<!-- 0_1_kids&#45;&gt;0_1_0_kids -->
<g id="edge26" class="edge"><title>0_1_kids:port1&#45;&gt;0_1_0_kids:port1</title>
<path fill="none" stroke="grey" d="M247,-545.708C247,-537.464 247,-527.538 247,-518.362"/>
<polygon fill="grey" stroke="grey" points="250.5,-518.082 247,-508.082 243.5,-518.082 250.5,-518.082"/>
</g>
<!-- 0_1_0_0_kids -->
<g id="node26" class="node"><title>0_1_0_0_kids</title>
<polyline fill="none" stroke="grey" points="325,-398 355,-398 "/>
<path fill="none" stroke="grey" d="M355,-398C361,-398 367,-404 367,-410"/>
<polyline fill="none" stroke="grey" points="367,-410 367,-422 "/>
<path fill="none" stroke="grey" d="M367,-422C367,-428 361,-434 355,-434"/>
<polyline fill="none" stroke="grey" points="355,-434 325,-434 "/>
<path fill="none" stroke="grey" d="M325,-434C319,-434 313,-428 313,-422"/>
<polyline fill="none" stroke="grey" points="313,-422 313,-410 "/>
<path fill="none" stroke="grey" d="M313,-410C313,-404 319,-398 325,-398"/>
<text text-anchor="middle" x="340" y="-412.9" font-family="Times Roman,serif" font-size="14.00" fill="darkblue">%$b</text>
</g>
<!-- 0_1_0_kids&#45;&gt;0_1_0_0_kids -->
<g id="edge28" class="edge"><title>0_1_0_kids:port1&#45;&gt;0_1_0_0_kids:port1</title>
<path fill="none" stroke="grey" d="M269.989,-471.708C281.814,-462.299 296.392,-450.699 309.179,-440.525"/>
<polygon fill="grey" stroke="grey" points="311.63,-443.047 317.276,-434.082 307.271,-437.569 311.63,-443.047"/>
</g>
<!-- 0_1_0_0_0_kids -->
<g id="node28" class="node"><title>0_1_0_0_0_kids</title>
<polyline fill="none" stroke="grey" points="350,-324 380,-324 "/>
<path fill="none" stroke="grey" d="M380,-324C386,-324 392,-330 392,-336"/>
<polyline fill="none" stroke="grey" points="392,-336 392,-348 "/>
<path fill="none" stroke="grey" d="M392,-348C392,-354 386,-360 380,-360"/>
<polyline fill="none" stroke="grey" points="380,-360 350,-360 "/>
<path fill="none" stroke="grey" d="M350,-360C344,-360 338,-354 338,-348"/>
<polyline fill="none" stroke="grey" points="338,-348 338,-336 "/>
<path fill="none" stroke="grey" d="M338,-336C338,-330 344,-324 350,-324"/>
<text text-anchor="middle" x="365" y="-338.9" font-family="Times Roman,serif" font-size="14.00" fill="darkblue">a</text>
</g>
<!-- 0_1_0_0_kids&#45;&gt;0_1_0_0_0_kids -->
<g id="edge30" class="edge"><title>0_1_0_0_kids:port1&#45;&gt;0_1_0_0_0_kids:port1</title>
<path fill="none" stroke="grey" d="M346.18,-397.708C349.026,-389.284 352.464,-379.105 355.62,-369.765"/>
<polygon fill="grey" stroke="grey" points="359.006,-370.676 358.891,-360.082 352.375,-368.435 359.006,-370.676"/>
</g>
<!-- 0_1_0_0_0_0_kids -->
<g id="node30" class="node"><title>0_1_0_0_0_0_kids</title>
<polyline fill="none" stroke="grey" points="350,-250 380,-250 "/>
<path fill="none" stroke="grey" d="M380,-250C386,-250 392,-256 392,-262"/>
<polyline fill="none" stroke="grey" points="392,-262 392,-274 "/>
<path fill="none" stroke="grey" d="M392,-274C392,-280 386,-286 380,-286"/>
<polyline fill="none" stroke="grey" points="380,-286 350,-286 "/>
<path fill="none" stroke="grey" d="M350,-286C344,-286 338,-280 338,-274"/>
<polyline fill="none" stroke="grey" points="338,-274 338,-262 "/>
<path fill="none" stroke="grey" d="M338,-262C338,-256 344,-250 350,-250"/>
<text text-anchor="middle" x="365" y="-264.9" font-family="Times Roman,serif" font-size="14.00" fill="darkblue">%$a</text>
</g>
<!-- 0_1_0_0_0_kids&#45;&gt;0_1_0_0_0_0_kids -->
<g id="edge32" class="edge"><title>0_1_0_0_0_kids:port1&#45;&gt;0_1_0_0_0_0_kids:port1</title>
<path fill="none" stroke="grey" d="M365,-323.708C365,-315.464 365,-305.538 365,-296.362"/>
<polygon fill="grey" stroke="grey" points="368.5,-296.082 365,-286.082 361.5,-296.082 368.5,-296.082"/>
</g>
<!-- 0_1_0_0_0_0_0_kids -->
<g id="node32" class="node"><title>0_1_0_0_0_0_0_kids</title>
<polyline fill="none" stroke="grey" points="342.5,-176 387.5,-176 "/>
<path fill="none" stroke="grey" d="M387.5,-176C393.5,-176 399.5,-182 399.5,-188"/>
<polyline fill="none" stroke="grey" points="399.5,-188 399.5,-200 "/>
<path fill="none" stroke="grey" d="M399.5,-200C399.5,-206 393.5,-212 387.5,-212"/>
<polyline fill="none" stroke="grey" points="387.5,-212 342.5,-212 "/>
<path fill="none" stroke="grey" d="M342.5,-212C336.5,-212 330.5,-206 330.5,-200"/>
<polyline fill="none" stroke="grey" points="330.5,-200 330.5,-188 "/>
<path fill="none" stroke="grey" d="M330.5,-188C330.5,-182 336.5,-176 342.5,-176"/>
<text text-anchor="middle" x="342" y="-190.9" font-family="Times Roman,serif" font-size="14.00" fill="darkblue">a</text>
<polyline fill="none" stroke="grey" points="353.5,-176 353.5,-212 "/>
<text text-anchor="middle" x="365" y="-190.9" font-family="Times Roman,serif" font-size="14.00" fill="darkblue">b</text>
<polyline fill="none" stroke="grey" points="376.5,-176 376.5,-212 "/>
<text text-anchor="middle" x="388" y="-190.9" font-family="Times Roman,serif" font-size="14.00" fill="darkblue">c</text>
</g>
<!-- 0_1_0_0_0_0_kids&#45;&gt;0_1_0_0_0_0_0_kids -->
<g id="edge34" class="edge"><title>0_1_0_0_0_0_kids:port1&#45;&gt;0_1_0_0_0_0_0_kids:port2</title>
<path fill="none" stroke="grey" d="M365,-249.74C365,-241.628 365,-231.855 365,-222.258"/>
<polygon fill="grey" stroke="grey" points="368.5,-222 365,-212 361.5,-222 368.5,-222"/>
</g>
<!-- 0_1_0_0_0_0_0_0_kids -->
<g id="node34" class="node"><title>0_1_0_0_0_0_0_0_kids</title>
<polyline fill="none" stroke="grey" points="278,-102 308,-102 "/>
<path fill="none" stroke="grey" d="M308,-102C314,-102 320,-108 320,-114"/>
<polyline fill="none" stroke="grey" points="320,-114 320,-126 "/>
<path fill="none" stroke="grey" d="M320,-126C320,-132 314,-138 308,-138"/>
<polyline fill="none" stroke="grey" points="308,-138 278,-138 "/>
<path fill="none" stroke="grey" d="M278,-138C272,-138 266,-132 266,-126"/>
<polyline fill="none" stroke="grey" points="266,-126 266,-114 "/>
<path fill="none" stroke="grey" d="M266,-114C266,-108 272,-102 278,-102"/>
<text text-anchor="middle" x="293" y="-116.9" font-family="Times Roman,serif" font-size="14.00" fill="darkblue">%$a</text>
</g>
<!-- 0_1_0_0_0_0_0_kids&#45;&gt;0_1_0_0_0_0_0_0_kids -->
<g id="edge36" class="edge"><title>0_1_0_0_0_0_0_kids:port1&#45;&gt;0_1_0_0_0_0_0_0_kids:port1</title>
<path fill="none" stroke="grey" d="M342,-175C342,-167.727 332.326,-156.058 321.574,-145.336"/>
<polygon fill="grey" stroke="grey" points="323.704,-142.528 314.065,-138.13 318.857,-147.579 323.704,-142.528"/>
</g>
<!-- 0_1_0_0_0_0_0_1_kids -->
<g id="node36" class="node"><title>0_1_0_0_0_0_0_1_kids</title>
<polyline fill="none" stroke="grey" points="350,-102 380,-102 "/>
<path fill="none" stroke="grey" d="M380,-102C386,-102 392,-108 392,-114"/>
<polyline fill="none" stroke="grey" points="392,-114 392,-126 "/>
<path fill="none" stroke="grey" d="M392,-126C392,-132 386,-138 380,-138"/>
<polyline fill="none" stroke="grey" points="380,-138 350,-138 "/>
<path fill="none" stroke="grey" d="M350,-138C344,-138 338,-132 338,-126"/>
<polyline fill="none" stroke="grey" points="338,-126 338,-114 "/>
<path fill="none" stroke="grey" d="M338,-114C338,-108 344,-102 350,-102"/>
<text text-anchor="middle" x="365" y="-116.9" font-family="Times Roman,serif" font-size="14.00" fill="darkblue">$b</text>
</g>
<!-- 0_1_0_0_0_0_0_kids&#45;&gt;0_1_0_0_0_0_0_1_kids -->
<g id="edge38" class="edge"><title>0_1_0_0_0_0_0_kids:port2&#45;&gt;0_1_0_0_0_0_0_1_kids:port1</title>
<path fill="none" stroke="grey" d="M365,-175C365,-166.406 365,-157.057 365,-148.546"/>
<polygon fill="grey" stroke="grey" points="368.5,-148.333 365,-138.333 361.5,-148.333 368.5,-148.333"/>
</g>
<!-- 0_1_0_0_0_0_0_2_kids -->
<g id="node40" class="node"><title>0_1_0_0_0_0_0_2_kids</title>
<polyline fill="none" stroke="grey" points="422,-102 452,-102 "/>
<path fill="none" stroke="grey" d="M452,-102C458,-102 464,-108 464,-114"/>
<polyline fill="none" stroke="grey" points="464,-114 464,-126 "/>
<path fill="none" stroke="grey" d="M464,-126C464,-132 458,-138 452,-138"/>
<polyline fill="none" stroke="grey" points="452,-138 422,-138 "/>
<path fill="none" stroke="grey" d="M422,-138C416,-138 410,-132 410,-126"/>
<polyline fill="none" stroke="grey" points="410,-126 410,-114 "/>
<path fill="none" stroke="grey" d="M410,-114C410,-108 416,-102 422,-102"/>
<text text-anchor="middle" x="437" y="-116.9" font-family="Times Roman,serif" font-size="14.00" fill="darkblue">42</text>
</g>
<!-- 0_1_0_0_0_0_0_kids&#45;&gt;0_1_0_0_0_0_0_2_kids -->
<g id="edge42" class="edge"><title>0_1_0_0_0_0_0_kids:port3&#45;&gt;0_1_0_0_0_0_0_2_kids:port1</title>
<path fill="none" stroke="grey" d="M388,-175C388,-167.727 397.674,-156.058 408.426,-145.336"/>
<polygon fill="grey" stroke="grey" points="411.143,-147.579 415.935,-138.13 406.296,-142.528 411.143,-147.579"/>
</g>
<!-- &amp;CODE(0x1783fb8) -->
<g id="node38" class="node"><title>&amp;CODE(0x1783fb8)</title>
<ellipse fill="none" stroke="grey" cx="365" cy="-46" rx="92.839" ry="19.0919"/>
<text text-anchor="middle" x="365" y="-42.9" font-family="Times Roman,serif" font-size="14.00" fill="red">&amp;CODE(0x1783fb8)</text>
</g>
<!-- 0_1_0_0_0_0_0_1_kids&#45;&gt;&amp;CODE(0x1783fb8) -->
<g id="edge40" class="edge"><title>0_1_0_0_0_0_0_1_kids:port1&#45;&gt;&amp;CODE(0x1783fb8)</title>
<path fill="none" stroke="grey" d="M365,-101.686C365,-93.7247 365,-84.321 365,-75.53"/>
<polygon fill="grey" stroke="grey" points="368.5,-75.2489 365,-65.2489 361.5,-75.2489 368.5,-75.2489"/>
</g>
<!-- 0_2_0_kids -->
<g id="node44" class="node"><title>0_2_0_kids</title>
<polyline fill="none" stroke="grey" points="304,-472 502,-472 "/>
<path fill="none" stroke="grey" d="M502,-472C508,-472 514,-478 514,-484"/>
<polyline fill="none" stroke="grey" points="514,-484 514,-496 "/>
<path fill="none" stroke="grey" d="M514,-496C514,-502 508,-508 502,-508"/>
<polyline fill="none" stroke="grey" points="502,-508 304,-508 "/>
<path fill="none" stroke="grey" d="M304,-508C298,-508 292,-502 292,-496"/>
<polyline fill="none" stroke="grey" points="292,-496 292,-484 "/>
<path fill="none" stroke="grey" d="M292,-484C292,-478 298,-472 304,-472"/>
<text text-anchor="middle" x="329" y="-486.9" font-family="Times Roman,serif" font-size="14.00" fill="darkblue">element_1</text>
<polyline fill="none" stroke="grey" points="366,-472 366,-508 "/>
<text text-anchor="middle" x="403" y="-486.9" font-family="Times Roman,serif" font-size="14.00" fill="darkblue">element_2</text>
<polyline fill="none" stroke="grey" points="440,-472 440,-508 "/>
<text text-anchor="middle" x="477" y="-486.9" font-family="Times Roman,serif" font-size="14.00" fill="darkblue">element_3</text>
</g>
<!-- 0_2_kids&#45;&gt;0_2_0_kids -->
<g id="edge46" class="edge"><title>0_2_kids:port1&#45;&gt;0_2_0_kids:port2</title>
<path fill="none" stroke="grey" d="M384.456,-545.812C391.822,-538.107 398.779,-528.538 401.635,-517.966"/>
<polygon fill="grey" stroke="grey" points="405.111,-518.382 403,-508 398.176,-517.433 405.111,-518.382"/>
</g>
</g>
</svg>
