<?xml version="1.0" encoding="UTF-8" standalone="no"?>
<!DOCTYPE svg PUBLIC "-//W3C//DTD SVG 1.1//EN"
 "http://www.w3.org/Graphics/SVG/1.1/DTD/svg11.dtd">
<!-- Generated by graphviz version 2.26.3 (20100126.1600)
 -->
<!-- Title: Perl Pages: 1 -->
<svg width="611pt" height="367pt"
 viewBox="0.00 0.00 611.00 367.00" xmlns="http://www.w3.org/2000/svg" xmlns:xlink="http://www.w3.org/1999/xlink">
<g id="graph1" class="graph" transform="scale(1 1) rotate(0) translate(4 363)">
<title>Perl</title>
<polygon fill="white" stroke="white" points="-4,5 -4,-363 608,-363 608,5 -4,5"/>
<text text-anchor="middle" x="301.5" y="-10.4" font-family="Times Roman,serif" font-size="14.00">Graph produced by GraphViz2::Data::Grapher&#39;s scripts/parse.xml.pp.pl</text>
<!-- person -->
<g id="node1" class="node"><title>person</title>
<ellipse fill="none" stroke="darkblue" cx="251" cy="-340" rx="36.977" ry="19.0919"/>
<text text-anchor="middle" x="251" y="-336.9" font-family="Times Roman,serif" font-size="14.00">person</text>
</g>
<!-- name -->
<g id="node2" class="node"><title>name</title>
<ellipse fill="none" stroke="darkblue" cx="178" cy="-266" rx="33.234" ry="19.0919"/>
<text text-anchor="middle" x="178" y="-262.9" font-family="Times Roman,serif" font-size="14.00">name</text>
</g>
<!-- person&#45;&gt;name -->
<g id="edge2" class="edge"><title>person&#45;&gt;name</title>
<path fill="none" stroke="grey" d="M234.069,-322.837C224.35,-312.985 212.003,-300.469 201.371,-289.691"/>
<polygon fill="grey" stroke="grey" points="203.852,-287.222 194.337,-282.561 198.868,-292.138 203.852,-287.222"/>
</g>
<!-- address -->
<g id="node12" class="node"><title>address</title>
<ellipse fill="none" stroke="darkblue" cx="325" cy="-266" rx="39.8075" ry="19.0919"/>
<text text-anchor="middle" x="325" y="-262.9" font-family="Times Roman,serif" font-size="14.00">address</text>
</g>
<!-- person&#45;&gt;address -->
<g id="edge12" class="edge"><title>person&#45;&gt;address</title>
<path fill="none" stroke="grey" d="M268.163,-322.837C277.714,-313.286 289.769,-301.231 300.317,-290.683"/>
<polygon fill="grey" stroke="grey" points="303.077,-292.872 307.674,-283.326 298.128,-287.923 303.077,-292.872"/>
</g>
<!-- given_name -->
<g id="node4" class="node"><title>given_name</title>
<ellipse fill="none" stroke="darkblue" cx="58" cy="-192" rx="58.1882" ry="19.0919"/>
<text text-anchor="middle" x="58" y="-188.9" font-family="Times Roman,serif" font-size="14.00">given_name</text>
</g>
<!-- name&#45;&gt;given_name -->
<g id="edge4" class="edge"><title>name&#45;&gt;given_name</title>
<path fill="none" stroke="grey" d="M155.429,-252.081C138.16,-241.432 114.003,-226.535 94.0643,-214.24"/>
<polygon fill="grey" stroke="grey" points="95.8746,-211.244 85.5257,-208.974 92.2003,-217.202 95.8746,-211.244"/>
</g>
<!-- surname -->
<g id="node8" class="node"><title>surname</title>
<ellipse fill="none" stroke="darkblue" cx="178" cy="-192" rx="44.0472" ry="19.0919"/>
<text text-anchor="middle" x="178" y="-188.9" font-family="Times Roman,serif" font-size="14.00">surname</text>
</g>
<!-- name&#45;&gt;surname -->
<g id="edge8" class="edge"><title>name&#45;&gt;surname</title>
<path fill="none" stroke="grey" d="M178,-246.943C178,-239.149 178,-229.954 178,-221.338"/>
<polygon fill="grey" stroke="grey" points="181.5,-221.249 178,-211.249 174.5,-221.249 181.5,-221.249"/>
</g>
<!-- Ron -->
<g id="node6" class="node"><title>Ron</title>
<polygon fill="none" stroke="darkblue" points="85,-136 31,-136 31,-100 85,-100 85,-136"/>
<text text-anchor="middle" x="58" y="-114.9" font-family="Times Roman,serif" font-size="14.00">Ron</text>
</g>
<!-- given_name&#45;&gt;Ron -->
<g id="edge6" class="edge"><title>given_name&#45;&gt;Ron</title>
<path fill="none" stroke="grey" d="M58,-172.943C58,-164.817 58,-155.168 58,-146.241"/>
<polygon fill="grey" stroke="grey" points="61.5001,-146.227 58,-136.227 54.5001,-146.227 61.5001,-146.227"/>
</g>
<!-- Savage -->
<g id="node10" class="node"><title>Savage</title>
<polygon fill="none" stroke="darkblue" points="206,-136 150,-136 150,-100 206,-100 206,-136"/>
<text text-anchor="middle" x="178" y="-114.9" font-family="Times Roman,serif" font-size="14.00">Savage</text>
</g>
<!-- surname&#45;&gt;Savage -->
<g id="edge10" class="edge"><title>surname&#45;&gt;Savage</title>
<path fill="none" stroke="grey" d="M178,-172.943C178,-164.817 178,-155.168 178,-146.241"/>
<polygon fill="grey" stroke="grey" points="181.5,-146.227 178,-136.227 174.5,-146.227 181.5,-146.227"/>
</g>
<!-- country -->
<g id="node14" class="node"><title>country</title>
<ellipse fill="none" stroke="darkblue" cx="281" cy="-192" rx="41.0122" ry="19.0919"/>
<text text-anchor="middle" x="281" y="-188.9" font-family="Times Roman,serif" font-size="14.00">country</text>
</g>
<!-- address&#45;&gt;country -->
<g id="edge14" class="edge"><title>address&#45;&gt;country</title>
<path fill="none" stroke="grey" d="M314.124,-247.708C308.994,-239.08 302.769,-228.611 297.106,-219.088"/>
<polygon fill="grey" stroke="grey" points="300.023,-217.145 291.904,-210.338 294.006,-220.722 300.023,-217.145"/>
</g>
<!-- state -->
<g id="node18" class="node"><title>state</title>
<ellipse fill="none" stroke="darkblue" cx="369" cy="-192" rx="28.9914" ry="19.0919"/>
<text text-anchor="middle" x="369" y="-188.9" font-family="Times Roman,serif" font-size="14.00">state</text>
</g>
<!-- address&#45;&gt;state -->
<g id="edge18" class="edge"><title>address&#45;&gt;state</title>
<path fill="none" stroke="grey" d="M335.876,-247.708C341.083,-238.951 347.419,-228.296 353.149,-218.659"/>
<polygon fill="grey" stroke="grey" points="356.298,-220.211 358.401,-209.826 350.281,-216.633 356.298,-220.211"/>
</g>
<!-- city -->
<g id="node22" class="node"><title>city</title>
<ellipse fill="none" stroke="darkblue" cx="453" cy="-192" rx="27" ry="19.0919"/>
<text text-anchor="middle" x="453" y="-188.9" font-family="Times Roman,serif" font-size="14.00">city</text>
</g>
<!-- address&#45;&gt;city -->
<g id="edge22" class="edge"><title>address&#45;&gt;city</title>
<path fill="none" stroke="grey" d="M350.595,-251.203C371.534,-239.098 401.175,-221.961 423.183,-209.238"/>
<polygon fill="grey" stroke="grey" points="425.195,-212.118 432.101,-204.082 421.691,-206.057 425.195,-212.118"/>
</g>
<!-- Australia -->
<g id="node16" class="node"><title>Australia</title>
<polygon fill="none" stroke="darkblue" points="314,-136 248,-136 248,-100 314,-100 314,-136"/>
<text text-anchor="middle" x="281" y="-114.9" font-family="Times Roman,serif" font-size="14.00">Australia</text>
</g>
<!-- country&#45;&gt;Australia -->
<g id="edge16" class="edge"><title>country&#45;&gt;Australia</title>
<path fill="none" stroke="grey" d="M281,-172.943C281,-164.817 281,-155.168 281,-146.241"/>
<polygon fill="grey" stroke="grey" points="284.5,-146.227 281,-136.227 277.5,-146.227 284.5,-146.227"/>
</g>
<!-- Victoria -->
<g id="node20" class="node"><title>Victoria</title>
<polygon fill="none" stroke="darkblue" points="395,-136 335,-136 335,-100 395,-100 395,-136"/>
<text text-anchor="middle" x="365" y="-114.9" font-family="Times Roman,serif" font-size="14.00">Victoria</text>
</g>
<!-- state&#45;&gt;Victoria -->
<g id="edge20" class="edge"><title>state&#45;&gt;Victoria</title>
<path fill="none" stroke="grey" d="M367.97,-172.943C367.531,-164.817 367.009,-155.168 366.527,-146.241"/>
<polygon fill="grey" stroke="grey" points="370.02,-146.023 365.985,-136.227 363.03,-146.401 370.02,-146.023"/>
</g>
<!-- locality -->
<g id="node24" class="node"><title>locality</title>
<ellipse fill="none" stroke="darkblue" cx="453" cy="-118" rx="39.8075" ry="19.0919"/>
<text text-anchor="middle" x="453" y="-114.9" font-family="Times Roman,serif" font-size="14.00">locality</text>
</g>
<!-- city&#45;&gt;locality -->
<g id="edge24" class="edge"><title>city&#45;&gt;locality</title>
<path fill="none" stroke="grey" d="M453,-172.943C453,-165.149 453,-155.954 453,-147.338"/>
<polygon fill="grey" stroke="grey" points="456.5,-147.249 453,-137.249 449.5,-147.249 456.5,-147.249"/>
</g>
<!-- postcode -->
<g id="node28" class="node"><title>postcode</title>
<ellipse fill="none" stroke="darkblue" cx="557" cy="-118" rx="45.9619" ry="19.0919"/>
<text text-anchor="middle" x="557" y="-114.9" font-family="Times Roman,serif" font-size="14.00">postcode</text>
</g>
<!-- city&#45;&gt;postcode -->
<g id="edge28" class="edge"><title>city&#45;&gt;postcode</title>
<path fill="none" stroke="grey" d="M472.075,-178.427C486.992,-167.813 508.049,-152.83 525.463,-140.44"/>
<polygon fill="grey" stroke="grey" points="527.558,-143.245 533.677,-134.596 523.499,-137.541 527.558,-143.245"/>
</g>
<!-- Murrumbeena -->
<g id="node26" class="node"><title>Murrumbeena</title>
<polygon fill="none" stroke="darkblue" points="500,-63 406,-63 406,-27 500,-27 500,-63"/>
<text text-anchor="middle" x="453" y="-41.9" font-family="Times Roman,serif" font-size="14.00">Murrumbeena</text>
</g>
<!-- locality&#45;&gt;Murrumbeena -->
<g id="edge26" class="edge"><title>locality&#45;&gt;Murrumbeena</title>
<path fill="none" stroke="grey" d="M453,-98.8201C453,-91.0975 453,-82.0282 453,-73.5585"/>
<polygon fill="grey" stroke="grey" points="456.5,-73.2973 453,-63.2973 449.5,-73.2974 456.5,-73.2973"/>
</g>
<!-- 3163 -->
<g id="node30" class="node"><title>3163</title>
<polygon fill="none" stroke="darkblue" points="584,-63 530,-63 530,-27 584,-27 584,-63"/>
<text text-anchor="middle" x="557" y="-41.9" font-family="Times Roman,serif" font-size="14.00">3163</text>
</g>
<!-- postcode&#45;&gt;3163 -->
<g id="edge30" class="edge"><title>postcode&#45;&gt;3163</title>
<path fill="none" stroke="grey" d="M557,-98.8201C557,-91.0975 557,-82.0282 557,-73.5585"/>
<polygon fill="grey" stroke="grey" points="560.5,-73.2973 557,-63.2973 553.5,-73.2974 560.5,-73.2973"/>
</g>
</g>
</svg>
