<?xml version="1.0" encoding="UTF-8" standalone="no"?>
<!DOCTYPE svg PUBLIC "-//W3C//DTD SVG 1.1//EN"
 "http://www.w3.org/Graphics/SVG/1.1/DTD/svg11.dtd">
<!-- Generated by graphviz version 2.26.3 (20100126.1600)
 -->
<!-- Title: Perl Pages: 1 -->
<svg width="210pt" height="194pt"
 viewBox="0.00 0.00 210.00 194.00" xmlns="http://www.w3.org/2000/svg" xmlns:xlink="http://www.w3.org/1999/xlink">
<g id="graph1" class="graph" transform="scale(1 1) rotate(0) translate(4 190)">
<title>Perl</title>
<polygon fill="white" stroke="white" points="-4,5 -4,-190 207,-190 207,5 -4,5"/>
<!-- Adult -->
<g id="node1" class="node"><title>Adult</title>
<polyline fill="none" stroke="blue" points="86,-149 116,-149 "/>
<path fill="none" stroke="blue" d="M116,-149C122,-149 128,-155 128,-161"/>
<polyline fill="none" stroke="blue" points="128,-161 128,-173 "/>
<path fill="none" stroke="blue" d="M128,-173C128,-179 122,-185 116,-185"/>
<polyline fill="none" stroke="blue" points="116,-185 86,-185 "/>
<path fill="none" stroke="blue" d="M86,-185C80,-185 74,-179 74,-173"/>
<polyline fill="none" stroke="blue" points="74,-173 74,-161 "/>
<path fill="none" stroke="blue" d="M74,-161C74,-155 80,-149 86,-149"/>
<text text-anchor="middle" x="101" y="-163.9" font-family="Times Roman,serif" font-size="14.00">Adult</text>
</g>
<!-- Adult::Child1 -->
<g id="node2" class="node"><title>Adult::Child1</title>
<polyline fill="none" stroke="blue" points="12,-75 80,-75 "/>
<path fill="none" stroke="blue" d="M80,-75C86,-75 92,-81 92,-87"/>
<polyline fill="none" stroke="blue" points="92,-87 92,-99 "/>
<path fill="none" stroke="blue" d="M92,-99C92,-105 86,-111 80,-111"/>
<polyline fill="none" stroke="blue" points="80,-111 12,-111 "/>
<path fill="none" stroke="blue" d="M12,-111C6,-111 0,-105 0,-99"/>
<polyline fill="none" stroke="blue" points="0,-99 0,-87 "/>
<path fill="none" stroke="blue" d="M0,-87C0,-81 6,-75 12,-75"/>
<text text-anchor="middle" x="46" y="-89.9" font-family="Times Roman,serif" font-size="14.00">Adult::Child1</text>
</g>
<!-- Adult::Child1&#45;&gt;Adult -->
<g id="edge2" class="edge"><title>Adult::Child1&#45;&gt;Adult</title>
<path fill="none" stroke="grey" d="M59.5955,-111.292C66.1893,-120.164 74.2303,-130.983 81.4661,-140.718"/>
<polygon fill="grey" stroke="grey" points="78.7865,-142.98 87.5609,-148.918 84.4047,-138.804 78.7865,-142.98"/>
</g>
<!-- Adult::Child2 -->
<g id="node3" class="node"><title>Adult::Child2</title>
<polyline fill="none" stroke="blue" points="122,-75 190,-75 "/>
<path fill="none" stroke="blue" d="M190,-75C196,-75 202,-81 202,-87"/>
<polyline fill="none" stroke="blue" points="202,-87 202,-99 "/>
<path fill="none" stroke="blue" d="M202,-99C202,-105 196,-111 190,-111"/>
<polyline fill="none" stroke="blue" points="190,-111 122,-111 "/>
<path fill="none" stroke="blue" d="M122,-111C116,-111 110,-105 110,-99"/>
<polyline fill="none" stroke="blue" points="110,-99 110,-87 "/>
<path fill="none" stroke="blue" d="M110,-87C110,-81 116,-75 122,-75"/>
<text text-anchor="middle" x="156" y="-89.9" font-family="Times Roman,serif" font-size="14.00">Adult::Child2</text>
</g>
<!-- Adult::Child2&#45;&gt;Adult -->
<g id="edge4" class="edge"><title>Adult::Child2&#45;&gt;Adult</title>
<path fill="none" stroke="grey" d="M142.404,-111.292C135.811,-120.164 127.77,-130.983 120.534,-140.718"/>
<polygon fill="grey" stroke="grey" points="117.595,-138.804 114.439,-148.918 123.213,-142.98 117.595,-138.804"/>
</g>
<!-- Adult::Child::Grandchild -->
<g id="node4" class="node"><title>Adult::Child::Grandchild</title>
<polyline fill="none" stroke="blue" points="36.5,-1 165.5,-1 "/>
<path fill="none" stroke="blue" d="M165.5,-1C171.5,-1 177.5,-7 177.5,-13"/>
<polyline fill="none" stroke="blue" points="177.5,-13 177.5,-25 "/>
<path fill="none" stroke="blue" d="M177.5,-25C177.5,-31 171.5,-37 165.5,-37"/>
<polyline fill="none" stroke="blue" points="165.5,-37 36.5,-37 "/>
<path fill="none" stroke="blue" d="M36.5,-37C30.5,-37 24.5,-31 24.5,-25"/>
<polyline fill="none" stroke="blue" points="24.5,-25 24.5,-13 "/>
<path fill="none" stroke="blue" d="M24.5,-13C24.5,-7 30.5,-1 36.5,-1"/>
<text text-anchor="middle" x="101" y="-15.9" font-family="Times Roman,serif" font-size="14.00">Adult::Child::Grandchild</text>
</g>
<!-- Adult::Child::Grandchild&#45;&gt;Adult::Child1 -->
<g id="edge6" class="edge"><title>Adult::Child::Grandchild&#45;&gt;Adult::Child1</title>
<path fill="none" stroke="grey" d="M87.4045,-37.2921C80.8107,-46.1637 72.7697,-56.9826 65.5339,-66.718"/>
<polygon fill="grey" stroke="grey" points="62.5953,-64.8045 59.4391,-74.9183 68.2135,-68.9801 62.5953,-64.8045"/>
</g>
<!-- Adult::Child::Grandchild&#45;&gt;Adult::Child2 -->
<g id="edge8" class="edge"><title>Adult::Child::Grandchild&#45;&gt;Adult::Child2</title>
<path fill="none" stroke="grey" d="M114.596,-37.2921C121.189,-46.1637 129.23,-56.9826 136.466,-66.718"/>
<polygon fill="grey" stroke="grey" points="133.787,-68.9801 142.561,-74.9183 139.405,-64.8045 133.787,-68.9801"/>
</g>
</g>
</svg>
