<?xml version="1.0" encoding="UTF-8" standalone="no"?>
<!DOCTYPE svg PUBLIC "-//W3C//DTD SVG 1.1//EN"
 "http://www.w3.org/Graphics/SVG/1.1/DTD/svg11.dtd">
<!-- Generated by graphviz version 2.26.3 (20100126.1600)
 -->
<!-- Title: Perl Pages: 1 -->
<svg width="400pt" height="381pt"
 viewBox="0.00 0.00 400.00 381.00" xmlns="http://www.w3.org/2000/svg" xmlns:xlink="http://www.w3.org/1999/xlink">
<g id="graph1" class="graph" transform="scale(1 1) rotate(0) translate(4 377)">
<title>Perl</title>
<polygon fill="white" stroke="white" points="-4,5 -4,-377 397,-377 397,5 -4,5"/>
<text text-anchor="middle" x="196" y="-10.4" font-family="Times Roman,serif" font-size="14.00">Graph produced by GraphViz2::Data::Grapher&#39;s scripts/parse.html.pl</text>
<!-- 0 -->
<g id="node1" class="node"><title>0</title>
<polygon fill="none" stroke="green" points="225.225,-339.44 225.225,-356.56 198.147,-368.665 159.853,-368.665 132.775,-356.56 132.775,-339.44 159.853,-327.335 198.147,-327.335 225.225,-339.44"/>
<polygon fill="none" stroke="green" points="229.186,-336.836 229.186,-359.164 198.984,-372.665 159.016,-372.665 128.814,-359.164 128.814,-336.836 159.016,-323.335 198.984,-323.335 229.186,-336.836"/>
<text text-anchor="middle" x="179" y="-344.9" font-family="Times Roman,serif" font-size="14.00">%$html</text>
</g>
<!-- 0_kids -->
<g id="node2" class="node"><title>0_kids</title>
<polyline fill="none" stroke="grey" points="169,-250 231,-250 "/>
<path fill="none" stroke="grey" d="M231,-250C237,-250 243,-256 243,-262"/>
<polyline fill="none" stroke="grey" points="243,-262 243,-274 "/>
<path fill="none" stroke="grey" d="M243,-274C243,-280 237,-286 231,-286"/>
<polyline fill="none" stroke="grey" points="231,-286 169,-286 "/>
<path fill="none" stroke="grey" d="M169,-286C163,-286 157,-280 157,-274"/>
<polyline fill="none" stroke="grey" points="157,-274 157,-262 "/>
<path fill="none" stroke="grey" d="M157,-262C157,-256 163,-250 169,-250"/>
<text text-anchor="middle" x="179" y="-264.9" font-family="Times Roman,serif" font-size="14.00" fill="darkblue">body</text>
<polyline fill="none" stroke="grey" points="201,-250 201,-286 "/>
<text text-anchor="middle" x="222" y="-264.9" font-family="Times Roman,serif" font-size="14.00" fill="darkblue">head</text>
</g>
<!-- 0&#45;&gt;0_kids -->
<g id="edge2" class="edge"><title>0&#45;&gt;0_kids:port1</title>
<path fill="none" stroke="grey" d="M179,-323.261C179,-315.012 179,-305.558 179,-296.298"/>
<polygon fill="grey" stroke="grey" points="182.5,-296 179,-286 175.5,-296 182.5,-296"/>
</g>
<!-- 0_0_kids -->
<g id="node4" class="node"><title>0_0_kids</title>
<polyline fill="none" stroke="grey" points="138,-176 176,-176 "/>
<path fill="none" stroke="grey" d="M176,-176C182,-176 188,-182 188,-188"/>
<polyline fill="none" stroke="grey" points="188,-188 188,-200 "/>
<path fill="none" stroke="grey" d="M188,-200C188,-206 182,-212 176,-212"/>
<polyline fill="none" stroke="grey" points="176,-212 138,-212 "/>
<path fill="none" stroke="grey" d="M138,-212C132,-212 126,-206 126,-200"/>
<polyline fill="none" stroke="grey" points="126,-200 126,-188 "/>
<path fill="none" stroke="grey" d="M126,-188C126,-182 132,-176 138,-176"/>
<text text-anchor="middle" x="157" y="-190.9" font-family="Times Roman,serif" font-size="14.00" fill="darkblue">%$body</text>
</g>
<!-- 0_kids&#45;&gt;0_0_kids -->
<g id="edge4" class="edge"><title>0_kids:port1&#45;&gt;0_0_kids:port1</title>
<path fill="none" stroke="grey" d="M179,-249C179,-239.585 176.187,-229.87 172.572,-221.274"/>
<polygon fill="grey" stroke="grey" points="175.687,-219.674 168.258,-212.12 169.355,-222.658 175.687,-219.674"/>
</g>
<!-- 0_1_kids -->
<g id="node12" class="node"><title>0_1_kids</title>
<polyline fill="none" stroke="grey" points="225.5,-176 262.5,-176 "/>
<path fill="none" stroke="grey" d="M262.5,-176C268.5,-176 274.5,-182 274.5,-188"/>
<polyline fill="none" stroke="grey" points="274.5,-188 274.5,-200 "/>
<path fill="none" stroke="grey" d="M274.5,-200C274.5,-206 268.5,-212 262.5,-212"/>
<polyline fill="none" stroke="grey" points="262.5,-212 225.5,-212 "/>
<path fill="none" stroke="grey" d="M225.5,-212C219.5,-212 213.5,-206 213.5,-200"/>
<polyline fill="none" stroke="grey" points="213.5,-200 213.5,-188 "/>
<path fill="none" stroke="grey" d="M213.5,-188C213.5,-182 219.5,-176 225.5,-176"/>
<text text-anchor="middle" x="244" y="-190.9" font-family="Times Roman,serif" font-size="14.00" fill="darkblue">%$head</text>
</g>
<!-- 0_kids&#45;&gt;0_1_kids -->
<g id="edge12" class="edge"><title>0_kids:port2&#45;&gt;0_1_kids:port1</title>
<path fill="none" stroke="grey" d="M222,-249C222,-239.585 224.813,-229.87 228.428,-221.274"/>
<polygon fill="grey" stroke="grey" points="231.645,-222.658 232.742,-212.12 225.313,-219.674 231.645,-222.658"/>
</g>
<!-- 0_0_0_kids -->
<g id="node6" class="node"><title>0_0_0_kids</title>
<polyline fill="none" stroke="grey" points="145,-102 175,-102 "/>
<path fill="none" stroke="grey" d="M175,-102C181,-102 187,-108 187,-114"/>
<polyline fill="none" stroke="grey" points="187,-114 187,-126 "/>
<path fill="none" stroke="grey" d="M187,-126C187,-132 181,-138 175,-138"/>
<polyline fill="none" stroke="grey" points="175,-138 145,-138 "/>
<path fill="none" stroke="grey" d="M145,-138C139,-138 133,-132 133,-126"/>
<polyline fill="none" stroke="grey" points="133,-126 133,-114 "/>
<path fill="none" stroke="grey" d="M133,-114C133,-108 139,-102 145,-102"/>
<text text-anchor="middle" x="148" y="-116.9" font-family="Times Roman,serif" font-size="14.00" fill="darkblue">h1</text>
<polyline fill="none" stroke="grey" points="163,-102 163,-138 "/>
<text text-anchor="middle" x="175" y="-116.9" font-family="Times Roman,serif" font-size="14.00" fill="darkblue">p</text>
</g>
<!-- 0_0_kids&#45;&gt;0_0_0_kids -->
<g id="edge6" class="edge"><title>0_0_kids:port1&#45;&gt;0_0_0_kids:port1</title>
<path fill="none" stroke="grey" d="M152.447,-175.858C150.79,-167.689 149.143,-157.801 148.404,-148.043"/>
<polygon fill="grey" stroke="grey" points="151.899,-147.851 148,-138 144.905,-148.133 151.899,-147.851"/>
</g>
<!-- 0_0_0_0_kids -->
<g id="node8" class="node"><title>0_0_0_0_kids</title>
<polyline fill="none" stroke="grey" points="55.5,-28 104.5,-28 "/>
<path fill="none" stroke="grey" d="M104.5,-28C110.5,-28 116.5,-34 116.5,-40"/>
<polyline fill="none" stroke="grey" points="116.5,-40 116.5,-52 "/>
<path fill="none" stroke="grey" d="M116.5,-52C116.5,-58 110.5,-64 104.5,-64"/>
<polyline fill="none" stroke="grey" points="104.5,-64 55.5,-64 "/>
<path fill="none" stroke="grey" d="M55.5,-64C49.5,-64 43.5,-58 43.5,-52"/>
<polyline fill="none" stroke="grey" points="43.5,-52 43.5,-40 "/>
<path fill="none" stroke="grey" d="M43.5,-40C43.5,-34 49.5,-28 55.5,-28"/>
<text text-anchor="middle" x="80" y="-42.9" font-family="Times Roman,serif" font-size="14.00" fill="darkblue">Heading 1</text>
</g>
<!-- 0_0_0_kids&#45;&gt;0_0_0_0_kids -->
<g id="edge8" class="edge"><title>0_0_0_kids:port1&#45;&gt;0_0_0_0_kids:port1</title>
<path fill="none" stroke="grey" d="M148,-101C148,-92.2883 134.337,-80.3359 119.26,-69.7983"/>
<polygon fill="grey" stroke="grey" points="121.068,-66.7959 110.817,-64.1192 117.161,-72.6044 121.068,-66.7959"/>
</g>
<!-- 0_0_0_1_kids -->
<g id="node10" class="node"><title>0_0_0_1_kids</title>
<polyline fill="none" stroke="grey" points="146,-28 204,-28 "/>
<path fill="none" stroke="grey" d="M204,-28C210,-28 216,-34 216,-40"/>
<polyline fill="none" stroke="grey" points="216,-40 216,-52 "/>
<path fill="none" stroke="grey" d="M216,-52C216,-58 210,-64 204,-64"/>
<polyline fill="none" stroke="grey" points="204,-64 146,-64 "/>
<path fill="none" stroke="grey" d="M146,-64C140,-64 134,-58 134,-52"/>
<polyline fill="none" stroke="grey" points="134,-52 134,-40 "/>
<path fill="none" stroke="grey" d="M134,-40C134,-34 140,-28 146,-28"/>
<text text-anchor="middle" x="175" y="-42.9" font-family="Times Roman,serif" font-size="14.00" fill="darkblue">Paragraph 1</text>
</g>
<!-- 0_0_0_kids&#45;&gt;0_0_0_1_kids -->
<g id="edge10" class="edge"><title>0_0_0_kids:port2&#45;&gt;0_0_0_1_kids:port1</title>
<path fill="none" stroke="grey" d="M175,-101C175,-92.4062 175,-83.0572 175,-74.5461"/>
<polygon fill="grey" stroke="grey" points="178.5,-74.3333 175,-64.3333 171.5,-74.3334 178.5,-74.3333"/>
</g>
<!-- 0_1_0_kids -->
<g id="node14" class="node"><title>0_1_0_kids</title>
<polyline fill="none" stroke="grey" points="246,-102 276,-102 "/>
<path fill="none" stroke="grey" d="M276,-102C282,-102 288,-108 288,-114"/>
<polyline fill="none" stroke="grey" points="288,-114 288,-126 "/>
<path fill="none" stroke="grey" d="M288,-126C288,-132 282,-138 276,-138"/>
<polyline fill="none" stroke="grey" points="276,-138 246,-138 "/>
<path fill="none" stroke="grey" d="M246,-138C240,-138 234,-132 234,-126"/>
<polyline fill="none" stroke="grey" points="234,-126 234,-114 "/>
<path fill="none" stroke="grey" d="M234,-114C234,-108 240,-102 246,-102"/>
<text text-anchor="middle" x="261" y="-116.9" font-family="Times Roman,serif" font-size="14.00" fill="darkblue">title</text>
</g>
<!-- 0_1_kids&#45;&gt;0_1_0_kids -->
<g id="edge14" class="edge"><title>0_1_kids:port1&#45;&gt;0_1_0_kids:port1</title>
<path fill="none" stroke="grey" d="M248.202,-175.708C250.117,-167.374 252.426,-157.322 254.553,-148.063"/>
<polygon fill="grey" stroke="grey" points="258.018,-148.612 256.846,-138.082 251.196,-147.044 258.018,-148.612"/>
</g>
<!-- 0_1_0_0_kids -->
<g id="node16" class="node"><title>0_1_0_0_kids</title>
<polyline fill="none" stroke="grey" points="245.5,-28 336.5,-28 "/>
<path fill="none" stroke="grey" d="M336.5,-28C342.5,-28 348.5,-34 348.5,-40"/>
<polyline fill="none" stroke="grey" points="348.5,-40 348.5,-52 "/>
<path fill="none" stroke="grey" d="M348.5,-52C348.5,-58 342.5,-64 336.5,-64"/>
<polyline fill="none" stroke="grey" points="336.5,-64 245.5,-64 "/>
<path fill="none" stroke="grey" d="M245.5,-64C239.5,-64 233.5,-58 233.5,-52"/>
<polyline fill="none" stroke="grey" points="233.5,-52 233.5,-40 "/>
<path fill="none" stroke="grey" d="M233.5,-40C233.5,-34 239.5,-28 245.5,-28"/>
<text text-anchor="middle" x="291" y="-42.9" font-family="Times Roman,serif" font-size="14.00" fill="darkblue">Title of document</text>
</g>
<!-- 0_1_0_kids&#45;&gt;0_1_0_0_kids -->
<g id="edge16" class="edge"><title>0_1_0_kids:port1&#45;&gt;0_1_0_0_kids:port1</title>
<path fill="none" stroke="grey" d="M268.416,-101.708C271.867,-93.1947 276.045,-82.8885 279.865,-73.4671"/>
<polygon fill="grey" stroke="grey" points="283.156,-74.6641 283.67,-64.0817 276.669,-72.0341 283.156,-74.6641"/>
</g>
</g>
</svg>
