<?xml version="1.0" encoding="UTF-8" standalone="no"?>
<!DOCTYPE svg PUBLIC "-//W3C//DTD SVG 1.1//EN"
 "http://www.w3.org/Graphics/SVG/1.1/DTD/svg11.dtd">
<!-- Generated by graphviz version 2.26.3 (20100126.1600)
 -->
<!-- Title: Perl Pages: 1 -->
<svg width="400pt" height="789pt"
 viewBox="0.00 0.00 400.00 789.14" xmlns="http://www.w3.org/2000/svg" xmlns:xlink="http://www.w3.org/1999/xlink">
<g id="graph1" class="graph" transform="scale(1 1) rotate(0) translate(4 785.144)">
<title>Perl</title>
<polygon fill="white" stroke="white" points="-4,5 -4,-785.144 397,-785.144 397,5 -4,5"/>
<text text-anchor="middle" x="196" y="-10.4" font-family="Times Roman,serif" font-size="14.00">Graph produced by GraphViz2::Data::Grapher&#39;s scripts/parse.yacc.pl</text>
<!-- number -->
<g id="node1" class="node"><title>number</title>
<polygon fill="none" stroke="darkblue" points="138.5,-29.6441 138.5,-102.644 241.5,-102.644 241.5,-29.6441 138.5,-29.6441"/>
<text text-anchor="middle" x="190" y="-86.0441" font-family="Times Roman,serif" font-size="14.00">number</text>
<polyline fill="none" stroke="darkblue" points="138.5,-75.6441 241.5,-75.6441 "/>
<text text-anchor="middle" x="190" y="-59.0441" font-family="Times Roman,serif" font-size="14.00">DIGIT </text>
<text text-anchor="middle" x="190" y="-40.0441" font-family="Times Roman,serif" font-size="14.00">number DIGIT </text>
</g>
<!-- number&#45;&gt;number -->
<g id="edge2" class="edge"><title>number&#45;&gt;number</title>
<path fill="none" stroke="grey" d="M221.939,-102.707C241.031,-110.832 259,-98.6441 259,-66.1441 259,-39.4839 246.909,-26.4923 232.025,-27.1692"/>
<polygon fill="grey" stroke="grey" points="230.851,-23.8512 221.939,-29.5816 232.479,-30.6591 230.851,-23.8512"/>
</g>
<!-- expr -->
<g id="node3" class="node"><title>expr</title>
<polygon fill="none" stroke="darkblue" points="144,-139.644 144,-410.644 236,-410.644 236,-139.644 144,-139.644"/>
<text text-anchor="middle" x="190" y="-394.044" font-family="Times Roman,serif" font-size="14.00">expr</text>
<polyline fill="none" stroke="darkblue" points="144,-383.644 236,-383.644 "/>
<text text-anchor="middle" x="190" y="-367.044" font-family="Times Roman,serif" font-size="14.00">&#39;(&#39; expr &#39;)&#39; </text>
<text text-anchor="middle" x="190" y="-348.044" font-family="Times Roman,serif" font-size="14.00">expr &#39;+&#39; expr </text>
<text text-anchor="middle" x="190" y="-329.044" font-family="Times Roman,serif" font-size="14.00">expr &#39;&#45;&#39; expr </text>
<text text-anchor="middle" x="190" y="-310.044" font-family="Times Roman,serif" font-size="14.00">expr &#39;*&#39; expr </text>
<text text-anchor="middle" x="190" y="-291.044" font-family="Times Roman,serif" font-size="14.00">expr &#39;/&#39; expr </text>
<text text-anchor="middle" x="190" y="-272.044" font-family="Times Roman,serif" font-size="14.00">expr &#39;%&#39; expr </text>
<text text-anchor="middle" x="190" y="-253.044" font-family="Times Roman,serif" font-size="14.00">expr &#39;&amp;&#39; expr </text>
<text text-anchor="middle" x="190" y="-234.044" font-family="Times Roman,serif" font-size="14.00">expr &#39;</text>
<polyline fill="none" stroke="darkblue" points="144,-223.644 236,-223.644 "/>
<text text-anchor="middle" x="190" y="-207.044" font-family="Times Roman,serif" font-size="14.00">&#39; expr </text>
<text text-anchor="middle" x="190" y="-188.044" font-family="Times Roman,serif" font-size="14.00">&#39;&#45;&#39; expr </text>
<text text-anchor="middle" x="190" y="-169.044" font-family="Times Roman,serif" font-size="14.00">LETTER </text>
<text text-anchor="middle" x="190" y="-150.044" font-family="Times Roman,serif" font-size="14.00">number </text>
</g>
<!-- expr&#45;&gt;number -->
<g id="edge4" class="edge"><title>expr&#45;&gt;number</title>
<path fill="none" stroke="grey" d="M190,-139.536C190,-130.186 190,-121.201 190,-112.922"/>
<polygon fill="grey" stroke="grey" points="193.5,-112.836 190,-102.836 186.5,-112.836 193.5,-112.836"/>
</g>
<!-- expr&#45;&gt;expr -->
<g id="edge6" class="edge"><title>expr&#45;&gt;expr</title>
<path fill="none" stroke="grey" d="M236.024,-313.192C246.406,-309.764 254,-297.082 254,-275.144 254,-259.719 250.246,-248.87 244.408,-242.596"/>
<polygon fill="grey" stroke="grey" points="246.305,-239.655 236.024,-237.096 242.466,-245.508 246.305,-239.655"/>
</g>
<!-- $accept -->
<g id="node6" class="node"><title>$accept</title>
<polygon fill="none" stroke="darkblue" points="156.5,-726.144 156.5,-780.144 223.5,-780.144 223.5,-726.144 156.5,-726.144"/>
<text text-anchor="middle" x="190" y="-763.544" font-family="Times Roman,serif" font-size="14.00">$accept</text>
<polyline fill="none" stroke="darkblue" points="156.5,-753.144 223.5,-753.144 "/>
<text text-anchor="middle" x="190" y="-736.544" font-family="Times Roman,serif" font-size="14.00">list $end </text>
</g>
<!-- list -->
<g id="node7" class="node"><title>list</title>
<polygon fill="none" stroke="darkblue" points="155.5,-558.144 155.5,-688.144 224.5,-688.144 224.5,-558.144 155.5,-558.144"/>
<text text-anchor="middle" x="190" y="-671.544" font-family="Times Roman,serif" font-size="14.00">list</text>
<polyline fill="none" stroke="darkblue" points="155.5,-661.144 224.5,-661.144 "/>
<text text-anchor="middle" x="190" y="-644.544" font-family="Times Roman,serif" font-size="14.00">(empty) </text>
<text text-anchor="middle" x="190" y="-625.544" font-family="Times Roman,serif" font-size="14.00">list stat &#39;</text>
<text text-anchor="middle" x="190" y="-606.544" font-family="Times Roman,serif" font-size="14.00">&#39; </text>
<text text-anchor="middle" x="190" y="-587.544" font-family="Times Roman,serif" font-size="14.00">list error &#39;</text>
<text text-anchor="middle" x="190" y="-568.544" font-family="Times Roman,serif" font-size="14.00">&#39; </text>
</g>
<!-- $accept&#45;&gt;list -->
<g id="edge8" class="edge"><title>$accept&#45;&gt;list</title>
<path fill="none" stroke="grey" d="M190,-725.892C190,-717.714 190,-708.315 190,-698.597"/>
<polygon fill="grey" stroke="grey" points="193.5,-698.391 190,-688.391 186.5,-698.391 193.5,-698.391"/>
</g>
<!-- list&#45;&gt;list -->
<g id="edge14" class="edge"><title>list&#45;&gt;list</title>
<path fill="none" stroke="grey" d="M224.504,-647.424C234.383,-646.472 242,-638.378 242,-623.144 242,-613.385 238.874,-606.556 234.03,-602.658"/>
<polygon fill="grey" stroke="grey" points="235.09,-599.312 224.504,-598.864 232.5,-605.816 235.09,-599.312"/>
</g>
<!-- stat -->
<g id="node9" class="node"><title>stat</title>
<polygon fill="none" stroke="darkblue" points="132.5,-447.644 132.5,-520.644 247.5,-520.644 247.5,-447.644 132.5,-447.644"/>
<text text-anchor="middle" x="190" y="-504.044" font-family="Times Roman,serif" font-size="14.00">stat</text>
<polyline fill="none" stroke="darkblue" points="132.5,-493.644 247.5,-493.644 "/>
<text text-anchor="middle" x="190" y="-477.044" font-family="Times Roman,serif" font-size="14.00">expr </text>
<text text-anchor="middle" x="190" y="-458.044" font-family="Times Roman,serif" font-size="14.00">LETTER &#39;=&#39; expr </text>
</g>
<!-- list&#45;&gt;stat -->
<g id="edge12" class="edge"><title>list&#45;&gt;stat</title>
<path fill="none" stroke="grey" d="M190,-558.121C190,-548.878 190,-539.529 190,-530.732"/>
<polygon fill="grey" stroke="grey" points="193.5,-530.697 190,-520.697 186.5,-530.697 193.5,-530.697"/>
</g>
<!-- stat&#45;&gt;expr -->
<g id="edge10" class="edge"><title>stat&#45;&gt;expr</title>
<path fill="none" stroke="grey" d="M190,-447.26C190,-439.259 190,-430.33 190,-420.864"/>
<polygon fill="grey" stroke="grey" points="193.5,-420.821 190,-410.821 186.5,-420.821 193.5,-420.821"/>
</g>
</g>
</svg>
