<?xml version="1.0" encoding="UTF-8" standalone="no"?>
<!DOCTYPE svg PUBLIC "-//W3C//DTD SVG 1.1//EN"
 "http://www.w3.org/Graphics/SVG/1.1/DTD/svg11.dtd">
<!-- Generated by graphviz version 2.26.3 (20100126.1600)
 -->
<!-- Title: Perl Pages: 1 -->
<svg width="522pt" height="724pt"
 viewBox="0.00 0.00 522.00 724.00" xmlns="http://www.w3.org/2000/svg" xmlns:xlink="http://www.w3.org/1999/xlink">
<g id="graph1" class="graph" transform="scale(1 1) rotate(0) translate(4 720)">
<title>Perl</title>
<polygon fill="white" stroke="white" points="-4,5 -4,-720 519,-720 519,5 -4,5"/>
<!-- 0 -->
<g id="node1" class="node"><title>0</title>
<polygon fill="none" stroke="green" points="277.938,-682.44 277.938,-699.56 259.815,-711.665 234.185,-711.665 216.062,-699.56 216.062,-682.44 234.185,-670.335 259.815,-670.335 277.938,-682.44"/>
<polygon fill="none" stroke="green" points="281.882,-680.285 281.882,-701.715 260.997,-715.665 233.003,-715.665 212.118,-701.715 212.118,-680.285 233.003,-666.335 260.997,-666.335 281.882,-680.285"/>
<text text-anchor="middle" x="247" y="-687.9" font-family="Times Roman,serif" font-size="14.00">%$s</text>
</g>
<!-- 0_kids -->
<g id="node2" class="node"><title>0_kids</title>
<polyline fill="none" stroke="grey" points="220,-593 280,-593 "/>
<path fill="none" stroke="grey" d="M280,-593C286,-593 292,-599 292,-605"/>
<polyline fill="none" stroke="grey" points="292,-605 292,-617 "/>
<path fill="none" stroke="grey" d="M292,-617C292,-623 286,-629 280,-629"/>
<polyline fill="none" stroke="grey" points="280,-629 220,-629 "/>
<path fill="none" stroke="grey" d="M220,-629C214,-629 208,-623 208,-617"/>
<polyline fill="none" stroke="grey" points="208,-617 208,-605 "/>
<path fill="none" stroke="grey" d="M208,-605C208,-599 214,-593 220,-593"/>
<text text-anchor="middle" x="221" y="-607.9" font-family="Times Roman,serif" font-size="14.00" fill="blue">A</text>
<polyline fill="none" stroke="grey" points="234,-593 234,-629 "/>
<text text-anchor="middle" x="247" y="-607.9" font-family="Times Roman,serif" font-size="14.00" fill="blue">C</text>
<polyline fill="none" stroke="grey" points="260,-593 260,-629 "/>
<text text-anchor="middle" x="276" y="-607.9" font-family="Times Roman,serif" font-size="14.00" fill="blue">els</text>
</g>
<!-- 0&#45;&gt;0_kids -->
<g id="edge2" class="edge"><title>0&#45;&gt;0_kids:port2</title>
<path fill="none" stroke="grey" d="M247,-666.261C247,-658.012 247,-648.558 247,-639.298"/>
<polygon fill="grey" stroke="grey" points="250.5,-639 247,-629 243.5,-639 250.5,-639"/>
</g>
<!-- 0_0_kids -->
<g id="node4" class="node"><title>0_0_kids</title>
<polyline fill="none" stroke="grey" points="101,-519 131,-519 "/>
<path fill="none" stroke="grey" d="M131,-519C137,-519 143,-525 143,-531"/>
<polyline fill="none" stroke="grey" points="143,-531 143,-543 "/>
<path fill="none" stroke="grey" d="M143,-543C143,-549 137,-555 131,-555"/>
<polyline fill="none" stroke="grey" points="131,-555 101,-555 "/>
<path fill="none" stroke="grey" d="M101,-555C95,-555 89,-549 89,-543"/>
<polyline fill="none" stroke="grey" points="89,-543 89,-531 "/>
<path fill="none" stroke="grey" d="M89,-531C89,-525 95,-519 101,-519"/>
<text text-anchor="middle" x="116" y="-533.9" font-family="Times Roman,serif" font-size="14.00" fill="blue">%$A</text>
</g>
<!-- 0_kids&#45;&gt;0_0_kids -->
<g id="edge4" class="edge"><title>0_kids:port1&#45;&gt;0_0_kids:port1</title>
<path fill="none" stroke="grey" d="M207,-611C175.9,-611 149.52,-584.662 133.296,-563.412"/>
<polygon fill="grey" stroke="grey" points="136.1,-561.317 127.385,-555.292 130.441,-565.437 136.1,-561.317"/>
</g>
<!-- 0_1_kids -->
<g id="node22" class="node"><title>0_1_kids</title>
<polyline fill="none" stroke="grey" points="232,-519 262,-519 "/>
<path fill="none" stroke="grey" d="M262,-519C268,-519 274,-525 274,-531"/>
<polyline fill="none" stroke="grey" points="274,-531 274,-543 "/>
<path fill="none" stroke="grey" d="M274,-543C274,-549 268,-555 262,-555"/>
<polyline fill="none" stroke="grey" points="262,-555 232,-555 "/>
<path fill="none" stroke="grey" d="M232,-555C226,-555 220,-549 220,-543"/>
<polyline fill="none" stroke="grey" points="220,-543 220,-531 "/>
<path fill="none" stroke="grey" d="M220,-531C220,-525 226,-519 232,-519"/>
<text text-anchor="middle" x="247" y="-533.9" font-family="Times Roman,serif" font-size="14.00" fill="blue">%$C</text>
</g>
<!-- 0_kids&#45;&gt;0_1_kids -->
<g id="edge24" class="edge"><title>0_kids:port2&#45;&gt;0_1_kids:port1</title>
<path fill="none" stroke="grey" d="M247,-592C247,-583.406 247,-574.057 247,-565.546"/>
<polygon fill="grey" stroke="grey" points="250.5,-565.333 247,-555.333 243.5,-565.333 250.5,-565.333"/>
</g>
<!-- 0_2_kids -->
<g id="node42" class="node"><title>0_2_kids</title>
<polyline fill="none" stroke="grey" points="346,-519 376,-519 "/>
<path fill="none" stroke="grey" d="M376,-519C382,-519 388,-525 388,-531"/>
<polyline fill="none" stroke="grey" points="388,-531 388,-543 "/>
<path fill="none" stroke="grey" d="M388,-543C388,-549 382,-555 376,-555"/>
<polyline fill="none" stroke="grey" points="376,-555 346,-555 "/>
<path fill="none" stroke="grey" d="M346,-555C340,-555 334,-549 334,-543"/>
<polyline fill="none" stroke="grey" points="334,-543 334,-531 "/>
<path fill="none" stroke="grey" d="M334,-531C334,-525 340,-519 346,-519"/>
<text text-anchor="middle" x="361" y="-533.9" font-family="Times Roman,serif" font-size="14.00" fill="blue">@$els</text>
</g>
<!-- 0_kids&#45;&gt;0_2_kids -->
<g id="edge44" class="edge"><title>0_kids:port3&#45;&gt;0_2_kids:port1</title>
<path fill="none" stroke="grey" d="M293,-611C319.176,-611 338.025,-585.586 349.146,-564.545"/>
<polygon fill="grey" stroke="grey" points="352.425,-565.809 353.71,-555.292 346.147,-562.712 352.425,-565.809"/>
</g>
<!-- 0_0_0_kids -->
<g id="node6" class="node"><title>0_0_0_kids</title>
<polyline fill="none" stroke="grey" points="43,-445 165,-445 "/>
<path fill="none" stroke="grey" d="M165,-445C171,-445 177,-451 177,-457"/>
<polyline fill="none" stroke="grey" points="177,-457 177,-469 "/>
<path fill="none" stroke="grey" d="M177,-469C177,-475 171,-481 165,-481"/>
<polyline fill="none" stroke="grey" points="165,-481 43,-481 "/>
<path fill="none" stroke="grey" d="M43,-481C37,-481 31,-475 31,-469"/>
<polyline fill="none" stroke="grey" points="31,-469 31,-457 "/>
<path fill="none" stroke="grey" d="M31,-457C31,-451 37,-445 43,-445"/>
<text text-anchor="middle" x="42.5" y="-459.9" font-family="Times Roman,serif" font-size="14.00" fill="blue">a</text>
<polyline fill="none" stroke="grey" points="54,-445 54,-481 "/>
<text text-anchor="middle" x="82.5" y="-459.9" font-family="Times Roman,serif" font-size="14.00" fill="blue">bbbbbb</text>
<polyline fill="none" stroke="grey" points="111,-445 111,-481 "/>
<text text-anchor="middle" x="132.5" y="-459.9" font-family="Times Roman,serif" font-size="14.00" fill="blue">c123</text>
<polyline fill="none" stroke="grey" points="154,-445 154,-481 "/>
<text text-anchor="middle" x="165.5" y="-459.9" font-family="Times Roman,serif" font-size="14.00" fill="blue">d</text>
</g>
<!-- 0_0_kids&#45;&gt;0_0_0_kids -->
<g id="edge6" class="edge"><title>0_0_kids:port1&#45;&gt;0_0_0_kids:port2</title>
<path fill="none" stroke="grey" d="M97.6069,-518.796C91.5359,-510.947 85.7035,-501.296 83.2346,-491.013"/>
<polygon fill="grey" stroke="grey" points="86.6975,-490.497 82,-481 79.7501,-491.353 86.6975,-490.497"/>
</g>
<!-- 0_0_0_0_kids -->
<g id="node8" class="node"><title>0_0_0_0_kids</title>
<polyline fill="none" stroke="grey" points="12,-371 42,-371 "/>
<path fill="none" stroke="grey" d="M42,-371C48,-371 54,-377 54,-383"/>
<polyline fill="none" stroke="grey" points="54,-383 54,-395 "/>
<path fill="none" stroke="grey" d="M54,-395C54,-401 48,-407 42,-407"/>
<polyline fill="none" stroke="grey" points="42,-407 12,-407 "/>
<path fill="none" stroke="grey" d="M12,-407C6,-407 0,-401 0,-395"/>
<polyline fill="none" stroke="grey" points="0,-395 0,-383 "/>
<path fill="none" stroke="grey" d="M0,-383C0,-377 6,-371 12,-371"/>
<text text-anchor="middle" x="27" y="-385.9" font-family="Times Roman,serif" font-size="14.00" fill="blue">%$a</text>
</g>
<!-- 0_0_0_kids&#45;&gt;0_0_0_0_kids -->
<g id="edge8" class="edge"><title>0_0_0_kids:port1&#45;&gt;0_0_0_0_kids:port1</title>
<path fill="none" stroke="grey" d="M42,-444C42,-434.966 40.0929,-425.381 37.6387,-416.788"/>
<polygon fill="grey" stroke="grey" points="40.9675,-415.706 34.5879,-407.247 34.3001,-417.838 40.9675,-415.706"/>
</g>
<!-- 0_0_0_1_kids -->
<g id="node10" class="node"><title>0_0_0_1_kids</title>
<polyline fill="none" stroke="grey" points="15,-297 55,-297 "/>
<path fill="none" stroke="grey" d="M55,-297C61,-297 67,-303 67,-309"/>
<polyline fill="none" stroke="grey" points="67,-309 67,-321 "/>
<path fill="none" stroke="grey" d="M67,-321C67,-327 61,-333 55,-333"/>
<polyline fill="none" stroke="grey" points="55,-333 15,-333 "/>
<path fill="none" stroke="grey" d="M15,-333C9,-333 3,-327 3,-321"/>
<polyline fill="none" stroke="grey" points="3,-321 3,-309 "/>
<path fill="none" stroke="grey" d="M3,-309C3,-303 9,-297 15,-297"/>
<text text-anchor="middle" x="35" y="-311.9" font-family="Times Roman,serif" font-size="14.00" fill="blue">$bbbbbb</text>
</g>
<!-- 0_0_0_kids&#45;&gt;0_0_0_1_kids -->
<g id="edge10" class="edge"><title>0_0_0_kids:port2&#45;&gt;0_0_0_1_kids:port1</title>
<path fill="none" stroke="grey" d="M82,-444C82,-407.012 64.7311,-367.467 51.1285,-342.056"/>
<polygon fill="grey" stroke="grey" points="54.0443,-340.096 46.1383,-333.043 47.9204,-343.487 54.0443,-340.096"/>
</g>
<!-- 0_0_0_2_kids -->
<g id="node14" class="node"><title>0_0_0_2_kids</title>
<polyline fill="none" stroke="grey" points="97,-297 127,-297 "/>
<path fill="none" stroke="grey" d="M127,-297C133,-297 139,-303 139,-309"/>
<polyline fill="none" stroke="grey" points="139,-309 139,-321 "/>
<path fill="none" stroke="grey" d="M139,-321C139,-327 133,-333 127,-333"/>
<polyline fill="none" stroke="grey" points="127,-333 97,-333 "/>
<path fill="none" stroke="grey" d="M97,-333C91,-333 85,-327 85,-321"/>
<polyline fill="none" stroke="grey" points="85,-321 85,-309 "/>
<path fill="none" stroke="grey" d="M85,-309C85,-303 91,-297 97,-297"/>
<text text-anchor="middle" x="112" y="-311.9" font-family="Times Roman,serif" font-size="14.00" fill="blue">$c123</text>
</g>
<!-- 0_0_0_kids&#45;&gt;0_0_0_2_kids -->
<g id="edge14" class="edge"><title>0_0_0_kids:port3&#45;&gt;0_0_0_2_kids:port1</title>
<path fill="none" stroke="grey" d="M133,-444C133,-408.9 125.333,-369.119 119.264,-343.128"/>
<polygon fill="grey" stroke="grey" points="122.621,-342.118 116.871,-333.22 115.816,-343.762 122.621,-342.118"/>
</g>
<!-- 0_0_0_3_kids -->
<g id="node17" class="node"><title>0_0_0_3_kids</title>
<polyline fill="none" stroke="grey" points="196.5,-371 239.5,-371 "/>
<path fill="none" stroke="grey" d="M239.5,-371C245.5,-371 251.5,-377 251.5,-383"/>
<polyline fill="none" stroke="grey" points="251.5,-383 251.5,-395 "/>
<path fill="none" stroke="grey" d="M251.5,-395C251.5,-401 245.5,-407 239.5,-407"/>
<polyline fill="none" stroke="grey" points="239.5,-407 196.5,-407 "/>
<path fill="none" stroke="grey" d="M196.5,-407C190.5,-407 184.5,-401 184.5,-395"/>
<polyline fill="none" stroke="grey" points="184.5,-395 184.5,-383 "/>
<path fill="none" stroke="grey" d="M184.5,-383C184.5,-377 190.5,-371 196.5,-371"/>
<text text-anchor="middle" x="218" y="-385.9" font-family="Times Roman,serif" font-size="14.00" fill="blue">Object: d</text>
</g>
<!-- 0_0_0_kids&#45;&gt;0_0_0_3_kids -->
<g id="edge18" class="edge"><title>0_0_0_kids:port4&#45;&gt;0_0_0_3_kids:port1</title>
<path fill="none" stroke="grey" d="M166,-444C166,-432.414 172.169,-422.284 180.257,-413.982"/>
<polygon fill="grey" stroke="grey" points="182.708,-416.484 187.751,-407.166 177.998,-411.305 182.708,-416.484"/>
</g>
<!-- &amp;CODE(0x10c0ad8) -->
<g id="node12" class="node"><title>&amp;CODE(0x10c0ad8)</title>
<ellipse fill="none" stroke="grey" cx="112" cy="-241" rx="94.0452" ry="19.0919"/>
<text text-anchor="middle" x="112" y="-237.9" font-family="Times Roman,serif" font-size="14.00" fill="red">&amp;CODE(0x10c0ad8)</text>
</g>
<!-- 0_0_0_1_kids&#45;&gt;&amp;CODE(0x10c0ad8) -->
<g id="edge12" class="edge"><title>0_0_0_1_kids:port1&#45;&gt;&amp;CODE(0x10c0ad8)</title>
<path fill="none" stroke="grey" d="M54.8294,-296.686C64.1326,-287.624 75.355,-276.693 85.3844,-266.924"/>
<polygon fill="grey" stroke="grey" points="88.0484,-269.215 92.7698,-259.731 83.1642,-264.201 88.0484,-269.215"/>
</g>
<!-- 0_0_0_2_kids&#45;&gt;&amp;CODE(0x10c0ad8) -->
<g id="edge16" class="edge"><title>0_0_0_2_kids:port1&#45;&gt;&amp;CODE(0x10c0ad8)</title>
<path fill="none" stroke="grey" d="M112,-296.686C112,-288.725 112,-279.321 112,-270.53"/>
<polygon fill="grey" stroke="grey" points="115.5,-270.249 112,-260.249 108.5,-270.249 115.5,-270.249"/>
</g>
<!-- $REF(0xf67268) -->
<g id="node19" class="node"><title>$REF(0xf67268)</title>
<ellipse fill="none" stroke="grey" cx="234" cy="-315" rx="77.0746" ry="19.0919"/>
<text text-anchor="middle" x="234" y="-311.9" font-family="Times Roman,serif" font-size="14.00" fill="red">$REF(0xf67268)</text>
</g>
<!-- 0_0_0_3_kids&#45;&gt;$REF(0xf67268) -->
<g id="edge20" class="edge"><title>0_0_0_3_kids:port1&#45;&gt;$REF(0xf67268)</title>
<path fill="none" stroke="grey" d="M222.12,-370.686C223.851,-362.575 225.9,-352.966 227.806,-344.034"/>
<polygon fill="grey" stroke="grey" points="231.285,-344.499 229.949,-333.989 224.44,-343.039 231.285,-344.499"/>
</g>
<!-- $REF(0xf67268)&#45;&gt;&amp;CODE(0x10c0ad8) -->
<g id="edge22" class="edge"><title>$REF(0xf67268)&#45;&gt;&amp;CODE(0x10c0ad8)</title>
<path fill="none" stroke="grey" d="M204.778,-297.275C188.57,-287.444 168.209,-275.094 150.694,-264.47"/>
<polygon fill="grey" stroke="grey" points="152.196,-261.288 141.831,-259.094 148.566,-267.273 152.196,-261.288"/>
</g>
<!-- 0_1_0_kids -->
<g id="node24" class="node"><title>0_1_0_kids</title>
<polyline fill="none" stroke="grey" points="232,-445 262,-445 "/>
<path fill="none" stroke="grey" d="M262,-445C268,-445 274,-451 274,-457"/>
<polyline fill="none" stroke="grey" points="274,-457 274,-469 "/>
<path fill="none" stroke="grey" d="M274,-469C274,-475 268,-481 262,-481"/>
<polyline fill="none" stroke="grey" points="262,-481 232,-481 "/>
<path fill="none" stroke="grey" d="M232,-481C226,-481 220,-475 220,-469"/>
<polyline fill="none" stroke="grey" points="220,-469 220,-457 "/>
<path fill="none" stroke="grey" d="M220,-457C220,-451 226,-445 232,-445"/>
<text text-anchor="middle" x="247" y="-459.9" font-family="Times Roman,serif" font-size="14.00" fill="blue">b</text>
</g>
<!-- 0_1_kids&#45;&gt;0_1_0_kids -->
<g id="edge26" class="edge"><title>0_1_kids:port1&#45;&gt;0_1_0_kids:port1</title>
<path fill="none" stroke="grey" d="M247,-518.708C247,-510.464 247,-500.538 247,-491.362"/>
<polygon fill="grey" stroke="grey" points="250.5,-491.082 247,-481.082 243.5,-491.082 250.5,-491.082"/>
</g>
<!-- 0_1_0_0_kids -->
<g id="node26" class="node"><title>0_1_0_0_kids</title>
<polyline fill="none" stroke="grey" points="318,-371 348,-371 "/>
<path fill="none" stroke="grey" d="M348,-371C354,-371 360,-377 360,-383"/>
<polyline fill="none" stroke="grey" points="360,-383 360,-395 "/>
<path fill="none" stroke="grey" d="M360,-395C360,-401 354,-407 348,-407"/>
<polyline fill="none" stroke="grey" points="348,-407 318,-407 "/>
<path fill="none" stroke="grey" d="M318,-407C312,-407 306,-401 306,-395"/>
<polyline fill="none" stroke="grey" points="306,-395 306,-383 "/>
<path fill="none" stroke="grey" d="M306,-383C306,-377 312,-371 318,-371"/>
<text text-anchor="middle" x="333" y="-385.9" font-family="Times Roman,serif" font-size="14.00" fill="blue">%$b</text>
</g>
<!-- 0_1_0_kids&#45;&gt;0_1_0_0_kids -->
<g id="edge28" class="edge"><title>0_1_0_kids:port1&#45;&gt;0_1_0_0_kids:port1</title>
<path fill="none" stroke="grey" d="M268.258,-444.708C279.089,-435.388 292.418,-423.92 304.16,-413.816"/>
<polygon fill="grey" stroke="grey" points="306.689,-416.257 311.986,-407.082 302.123,-410.951 306.689,-416.257"/>
</g>
<!-- 0_1_0_0_0_kids -->
<g id="node28" class="node"><title>0_1_0_0_0_kids</title>
<polyline fill="none" stroke="grey" points="341,-297 371,-297 "/>
<path fill="none" stroke="grey" d="M371,-297C377,-297 383,-303 383,-309"/>
<polyline fill="none" stroke="grey" points="383,-309 383,-321 "/>
<path fill="none" stroke="grey" d="M383,-321C383,-327 377,-333 371,-333"/>
<polyline fill="none" stroke="grey" points="371,-333 341,-333 "/>
<path fill="none" stroke="grey" d="M341,-333C335,-333 329,-327 329,-321"/>
<polyline fill="none" stroke="grey" points="329,-321 329,-309 "/>
<path fill="none" stroke="grey" d="M329,-309C329,-303 335,-297 341,-297"/>
<text text-anchor="middle" x="356" y="-311.9" font-family="Times Roman,serif" font-size="14.00" fill="blue">a</text>
</g>
<!-- 0_1_0_0_kids&#45;&gt;0_1_0_0_0_kids -->
<g id="edge30" class="edge"><title>0_1_0_0_kids:port1&#45;&gt;0_1_0_0_0_kids:port1</title>
<path fill="none" stroke="grey" d="M338.685,-370.708C341.304,-362.284 344.467,-352.105 347.37,-342.765"/>
<polygon fill="grey" stroke="grey" points="350.754,-343.67 350.38,-333.082 344.07,-341.592 350.754,-343.67"/>
</g>
<!-- 0_1_0_0_0_0_kids -->
<g id="node30" class="node"><title>0_1_0_0_0_0_kids</title>
<polyline fill="none" stroke="grey" points="341,-223 371,-223 "/>
<path fill="none" stroke="grey" d="M371,-223C377,-223 383,-229 383,-235"/>
<polyline fill="none" stroke="grey" points="383,-235 383,-247 "/>
<path fill="none" stroke="grey" d="M383,-247C383,-253 377,-259 371,-259"/>
<polyline fill="none" stroke="grey" points="371,-259 341,-259 "/>
<path fill="none" stroke="grey" d="M341,-259C335,-259 329,-253 329,-247"/>
<polyline fill="none" stroke="grey" points="329,-247 329,-235 "/>
<path fill="none" stroke="grey" d="M329,-235C329,-229 335,-223 341,-223"/>
<text text-anchor="middle" x="356" y="-237.9" font-family="Times Roman,serif" font-size="14.00" fill="blue">%$a</text>
</g>
<!-- 0_1_0_0_0_kids&#45;&gt;0_1_0_0_0_0_kids -->
<g id="edge32" class="edge"><title>0_1_0_0_0_kids:port1&#45;&gt;0_1_0_0_0_0_kids:port1</title>
<path fill="none" stroke="grey" d="M356,-296.708C356,-288.464 356,-278.538 356,-269.362"/>
<polygon fill="grey" stroke="grey" points="359.5,-269.082 356,-259.082 352.5,-269.082 359.5,-269.082"/>
</g>
<!-- 0_1_0_0_0_0_0_kids -->
<g id="node32" class="node"><title>0_1_0_0_0_0_0_kids</title>
<polyline fill="none" stroke="grey" points="333.5,-149 378.5,-149 "/>
<path fill="none" stroke="grey" d="M378.5,-149C384.5,-149 390.5,-155 390.5,-161"/>
<polyline fill="none" stroke="grey" points="390.5,-161 390.5,-173 "/>
<path fill="none" stroke="grey" d="M390.5,-173C390.5,-179 384.5,-185 378.5,-185"/>
<polyline fill="none" stroke="grey" points="378.5,-185 333.5,-185 "/>
<path fill="none" stroke="grey" d="M333.5,-185C327.5,-185 321.5,-179 321.5,-173"/>
<polyline fill="none" stroke="grey" points="321.5,-173 321.5,-161 "/>
<path fill="none" stroke="grey" d="M321.5,-161C321.5,-155 327.5,-149 333.5,-149"/>
<text text-anchor="middle" x="333" y="-163.9" font-family="Times Roman,serif" font-size="14.00" fill="blue">a</text>
<polyline fill="none" stroke="grey" points="344.5,-149 344.5,-185 "/>
<text text-anchor="middle" x="356" y="-163.9" font-family="Times Roman,serif" font-size="14.00" fill="blue">b</text>
<polyline fill="none" stroke="grey" points="367.5,-149 367.5,-185 "/>
<text text-anchor="middle" x="379" y="-163.9" font-family="Times Roman,serif" font-size="14.00" fill="blue">c</text>
</g>
<!-- 0_1_0_0_0_0_kids&#45;&gt;0_1_0_0_0_0_0_kids -->
<g id="edge34" class="edge"><title>0_1_0_0_0_0_kids:port1&#45;&gt;0_1_0_0_0_0_0_kids:port2</title>
<path fill="none" stroke="grey" d="M356,-222.74C356,-214.628 356,-204.855 356,-195.258"/>
<polygon fill="grey" stroke="grey" points="359.5,-195 356,-185 352.5,-195 359.5,-195"/>
</g>
<!-- 0_1_0_0_0_0_0_0_kids -->
<g id="node34" class="node"><title>0_1_0_0_0_0_0_0_kids</title>
<polyline fill="none" stroke="grey" points="269,-75 299,-75 "/>
<path fill="none" stroke="grey" d="M299,-75C305,-75 311,-81 311,-87"/>
<polyline fill="none" stroke="grey" points="311,-87 311,-99 "/>
<path fill="none" stroke="grey" d="M311,-99C311,-105 305,-111 299,-111"/>
<polyline fill="none" stroke="grey" points="299,-111 269,-111 "/>
<path fill="none" stroke="grey" d="M269,-111C263,-111 257,-105 257,-99"/>
<polyline fill="none" stroke="grey" points="257,-99 257,-87 "/>
<path fill="none" stroke="grey" d="M257,-87C257,-81 263,-75 269,-75"/>
<text text-anchor="middle" x="284" y="-89.9" font-family="Times Roman,serif" font-size="14.00" fill="blue">%$a</text>
</g>
<!-- 0_1_0_0_0_0_0_kids&#45;&gt;0_1_0_0_0_0_0_0_kids -->
<g id="edge36" class="edge"><title>0_1_0_0_0_0_0_kids:port1&#45;&gt;0_1_0_0_0_0_0_0_kids:port1</title>
<path fill="none" stroke="grey" d="M333,-148C333,-140.727 323.326,-129.058 312.574,-118.336"/>
<polygon fill="grey" stroke="grey" points="314.704,-115.528 305.065,-111.13 309.857,-120.579 314.704,-115.528"/>
</g>
<!-- 0_1_0_0_0_0_0_1_kids -->
<g id="node36" class="node"><title>0_1_0_0_0_0_0_1_kids</title>
<polyline fill="none" stroke="grey" points="341,-75 371,-75 "/>
<path fill="none" stroke="grey" d="M371,-75C377,-75 383,-81 383,-87"/>
<polyline fill="none" stroke="grey" points="383,-87 383,-99 "/>
<path fill="none" stroke="grey" d="M383,-99C383,-105 377,-111 371,-111"/>
<polyline fill="none" stroke="grey" points="371,-111 341,-111 "/>
<path fill="none" stroke="grey" d="M341,-111C335,-111 329,-105 329,-99"/>
<polyline fill="none" stroke="grey" points="329,-99 329,-87 "/>
<path fill="none" stroke="grey" d="M329,-87C329,-81 335,-75 341,-75"/>
<text text-anchor="middle" x="356" y="-89.9" font-family="Times Roman,serif" font-size="14.00" fill="blue">$b</text>
</g>
<!-- 0_1_0_0_0_0_0_kids&#45;&gt;0_1_0_0_0_0_0_1_kids -->
<g id="edge38" class="edge"><title>0_1_0_0_0_0_0_kids:port2&#45;&gt;0_1_0_0_0_0_0_1_kids:port1</title>
<path fill="none" stroke="grey" d="M356,-148C356,-139.406 356,-130.057 356,-121.546"/>
<polygon fill="grey" stroke="grey" points="359.5,-121.333 356,-111.333 352.5,-121.333 359.5,-121.333"/>
</g>
<!-- 0_1_0_0_0_0_0_2_kids -->
<g id="node40" class="node"><title>0_1_0_0_0_0_0_2_kids</title>
<polyline fill="none" stroke="grey" points="413,-75 443,-75 "/>
<path fill="none" stroke="grey" d="M443,-75C449,-75 455,-81 455,-87"/>
<polyline fill="none" stroke="grey" points="455,-87 455,-99 "/>
<path fill="none" stroke="grey" d="M455,-99C455,-105 449,-111 443,-111"/>
<polyline fill="none" stroke="grey" points="443,-111 413,-111 "/>
<path fill="none" stroke="grey" d="M413,-111C407,-111 401,-105 401,-99"/>
<polyline fill="none" stroke="grey" points="401,-99 401,-87 "/>
<path fill="none" stroke="grey" d="M401,-87C401,-81 407,-75 413,-75"/>
<text text-anchor="middle" x="428" y="-89.9" font-family="Times Roman,serif" font-size="14.00" fill="blue">42</text>
</g>
<!-- 0_1_0_0_0_0_0_kids&#45;&gt;0_1_0_0_0_0_0_2_kids -->
<g id="edge42" class="edge"><title>0_1_0_0_0_0_0_kids:port3&#45;&gt;0_1_0_0_0_0_0_2_kids:port1</title>
<path fill="none" stroke="grey" d="M379,-148C379,-140.727 388.674,-129.058 399.426,-118.336"/>
<polygon fill="grey" stroke="grey" points="402.143,-120.579 406.935,-111.13 397.296,-115.528 402.143,-120.579"/>
</g>
<!-- &amp;CODE(0x10c0850) -->
<g id="node38" class="node"><title>&amp;CODE(0x10c0850)</title>
<ellipse fill="none" stroke="grey" cx="356" cy="-19" rx="94.7523" ry="19.0919"/>
<text text-anchor="middle" x="356" y="-15.9" font-family="Times Roman,serif" font-size="14.00" fill="red">&amp;CODE(0x10c0850)</text>
</g>
<!-- 0_1_0_0_0_0_0_1_kids&#45;&gt;&amp;CODE(0x10c0850) -->
<g id="edge40" class="edge"><title>0_1_0_0_0_0_0_1_kids:port1&#45;&gt;&amp;CODE(0x10c0850)</title>
<path fill="none" stroke="grey" d="M356,-74.6856C356,-66.7247 356,-57.321 356,-48.53"/>
<polygon fill="grey" stroke="grey" points="359.5,-48.2489 356,-38.2489 352.5,-48.2489 359.5,-48.2489"/>
</g>
<!-- 0_2_0_kids -->
<g id="node44" class="node"><title>0_2_0_kids</title>
<polyline fill="none" stroke="grey" points="304,-445 502,-445 "/>
<path fill="none" stroke="grey" d="M502,-445C508,-445 514,-451 514,-457"/>
<polyline fill="none" stroke="grey" points="514,-457 514,-469 "/>
<path fill="none" stroke="grey" d="M514,-469C514,-475 508,-481 502,-481"/>
<polyline fill="none" stroke="grey" points="502,-481 304,-481 "/>
<path fill="none" stroke="grey" d="M304,-481C298,-481 292,-475 292,-469"/>
<polyline fill="none" stroke="grey" points="292,-469 292,-457 "/>
<path fill="none" stroke="grey" d="M292,-457C292,-451 298,-445 304,-445"/>
<text text-anchor="middle" x="329" y="-459.9" font-family="Times Roman,serif" font-size="14.00" fill="blue">element_1</text>
<polyline fill="none" stroke="grey" points="366,-445 366,-481 "/>
<text text-anchor="middle" x="403" y="-459.9" font-family="Times Roman,serif" font-size="14.00" fill="blue">element_2</text>
<polyline fill="none" stroke="grey" points="440,-445 440,-481 "/>
<text text-anchor="middle" x="477" y="-459.9" font-family="Times Roman,serif" font-size="14.00" fill="blue">element_3</text>
</g>
<!-- 0_2_kids&#45;&gt;0_2_0_kids -->
<g id="edge46" class="edge"><title>0_2_kids:port1&#45;&gt;0_2_0_kids:port2</title>
<path fill="none" stroke="grey" d="M384.456,-518.812C391.822,-511.107 398.779,-501.538 401.635,-490.966"/>
<polygon fill="grey" stroke="grey" points="405.111,-491.382 403,-481 398.176,-490.433 405.111,-491.382"/>
</g>
</g>
</svg>
