<?xml version="1.0" encoding="UTF-8" standalone="no"?>
<!DOCTYPE svg PUBLIC "-//W3C//DTD SVG 1.1//EN"
 "http://www.w3.org/Graphics/SVG/1.1/DTD/svg11.dtd">
<!-- Generated by graphviz version 2.26.3 (20100126.1600)
 -->
<!-- Title: Perl Pages: 1 -->
<svg width="522pt" height="751pt"
 viewBox="0.00 0.00 522.00 751.00" xmlns="http://www.w3.org/2000/svg" xmlns:xlink="http://www.w3.org/1999/xlink">
<g id="graph1" class="graph" transform="scale(1 1) rotate(0) translate(4 747)">
<title>Perl</title>
<polygon fill="white" stroke="white" points="-4,5 -4,-747 519,-747 519,5 -4,5"/>
<text text-anchor="middle" x="257" y="-10.4" font-family="Times Roman,serif" font-size="14.00">Graph produced by GraphViz2::Data::Grapher&#39;s scripts/parse.data.pl</text>
<!-- 0 -->
<g id="node1" class="node"><title>0</title>
<polygon fill="none" stroke="green" points="277.938,-709.44 277.938,-726.56 259.815,-738.665 234.185,-738.665 216.062,-726.56 216.062,-709.44 234.185,-697.335 259.815,-697.335 277.938,-709.44"/>
<polygon fill="none" stroke="green" points="281.882,-707.285 281.882,-728.715 260.997,-742.665 233.003,-742.665 212.118,-728.715 212.118,-707.285 233.003,-693.335 260.997,-693.335 281.882,-707.285"/>
<text text-anchor="middle" x="247" y="-714.9" font-family="Times Roman,serif" font-size="14.00">%$s</text>
</g>
<!-- 0_kids -->
<g id="node2" class="node"><title>0_kids</title>
<polyline fill="none" stroke="grey" points="220,-620 280,-620 "/>
<path fill="none" stroke="grey" d="M280,-620C286,-620 292,-626 292,-632"/>
<polyline fill="none" stroke="grey" points="292,-632 292,-644 "/>
<path fill="none" stroke="grey" d="M292,-644C292,-650 286,-656 280,-656"/>
<polyline fill="none" stroke="grey" points="280,-656 220,-656 "/>
<path fill="none" stroke="grey" d="M220,-656C214,-656 208,-650 208,-644"/>
<polyline fill="none" stroke="grey" points="208,-644 208,-632 "/>
<path fill="none" stroke="grey" d="M208,-632C208,-626 214,-620 220,-620"/>
<text text-anchor="middle" x="221" y="-634.9" font-family="Times Roman,serif" font-size="14.00" fill="darkblue">A</text>
<polyline fill="none" stroke="grey" points="234,-620 234,-656 "/>
<text text-anchor="middle" x="247" y="-634.9" font-family="Times Roman,serif" font-size="14.00" fill="darkblue">C</text>
<polyline fill="none" stroke="grey" points="260,-620 260,-656 "/>
<text text-anchor="middle" x="276" y="-634.9" font-family="Times Roman,serif" font-size="14.00" fill="darkblue">els</text>
</g>
<!-- 0&#45;&gt;0_kids -->
<g id="edge2" class="edge"><title>0&#45;&gt;0_kids:port2</title>
<path fill="none" stroke="grey" d="M247,-693.261C247,-685.012 247,-675.558 247,-666.298"/>
<polygon fill="grey" stroke="grey" points="250.5,-666 247,-656 243.5,-666 250.5,-666"/>
</g>
<!-- 0_0_kids -->
<g id="node4" class="node"><title>0_0_kids</title>
<polyline fill="none" stroke="grey" points="101,-546 131,-546 "/>
<path fill="none" stroke="grey" d="M131,-546C137,-546 143,-552 143,-558"/>
<polyline fill="none" stroke="grey" points="143,-558 143,-570 "/>
<path fill="none" stroke="grey" d="M143,-570C143,-576 137,-582 131,-582"/>
<polyline fill="none" stroke="grey" points="131,-582 101,-582 "/>
<path fill="none" stroke="grey" d="M101,-582C95,-582 89,-576 89,-570"/>
<polyline fill="none" stroke="grey" points="89,-570 89,-558 "/>
<path fill="none" stroke="grey" d="M89,-558C89,-552 95,-546 101,-546"/>
<text text-anchor="middle" x="116" y="-560.9" font-family="Times Roman,serif" font-size="14.00" fill="darkblue">%$A</text>
</g>
<!-- 0_kids&#45;&gt;0_0_kids -->
<g id="edge4" class="edge"><title>0_kids:port1&#45;&gt;0_0_kids:port1</title>
<path fill="none" stroke="grey" d="M207,-638C175.9,-638 149.52,-611.662 133.296,-590.412"/>
<polygon fill="grey" stroke="grey" points="136.1,-588.317 127.385,-582.292 130.441,-592.437 136.1,-588.317"/>
</g>
<!-- 0_1_kids -->
<g id="node22" class="node"><title>0_1_kids</title>
<polyline fill="none" stroke="grey" points="232,-546 262,-546 "/>
<path fill="none" stroke="grey" d="M262,-546C268,-546 274,-552 274,-558"/>
<polyline fill="none" stroke="grey" points="274,-558 274,-570 "/>
<path fill="none" stroke="grey" d="M274,-570C274,-576 268,-582 262,-582"/>
<polyline fill="none" stroke="grey" points="262,-582 232,-582 "/>
<path fill="none" stroke="grey" d="M232,-582C226,-582 220,-576 220,-570"/>
<polyline fill="none" stroke="grey" points="220,-570 220,-558 "/>
<path fill="none" stroke="grey" d="M220,-558C220,-552 226,-546 232,-546"/>
<text text-anchor="middle" x="247" y="-560.9" font-family="Times Roman,serif" font-size="14.00" fill="darkblue">%$C</text>
</g>
<!-- 0_kids&#45;&gt;0_1_kids -->
<g id="edge24" class="edge"><title>0_kids:port2&#45;&gt;0_1_kids:port1</title>
<path fill="none" stroke="grey" d="M247,-619C247,-610.406 247,-601.057 247,-592.546"/>
<polygon fill="grey" stroke="grey" points="250.5,-592.333 247,-582.333 243.5,-592.333 250.5,-592.333"/>
</g>
<!-- 0_2_kids -->
<g id="node42" class="node"><title>0_2_kids</title>
<polyline fill="none" stroke="grey" points="346,-546 376,-546 "/>
<path fill="none" stroke="grey" d="M376,-546C382,-546 388,-552 388,-558"/>
<polyline fill="none" stroke="grey" points="388,-558 388,-570 "/>
<path fill="none" stroke="grey" d="M388,-570C388,-576 382,-582 376,-582"/>
<polyline fill="none" stroke="grey" points="376,-582 346,-582 "/>
<path fill="none" stroke="grey" d="M346,-582C340,-582 334,-576 334,-570"/>
<polyline fill="none" stroke="grey" points="334,-570 334,-558 "/>
<path fill="none" stroke="grey" d="M334,-558C334,-552 340,-546 346,-546"/>
<text text-anchor="middle" x="361" y="-560.9" font-family="Times Roman,serif" font-size="14.00" fill="darkblue">@$els</text>
</g>
<!-- 0_kids&#45;&gt;0_2_kids -->
<g id="edge44" class="edge"><title>0_kids:port3&#45;&gt;0_2_kids:port1</title>
<path fill="none" stroke="grey" d="M293,-638C319.176,-638 338.025,-612.586 349.146,-591.545"/>
<polygon fill="grey" stroke="grey" points="352.425,-592.809 353.71,-582.292 346.147,-589.712 352.425,-592.809"/>
</g>
<!-- 0_0_0_kids -->
<g id="node6" class="node"><title>0_0_0_kids</title>
<polyline fill="none" stroke="grey" points="43,-472 165,-472 "/>
<path fill="none" stroke="grey" d="M165,-472C171,-472 177,-478 177,-484"/>
<polyline fill="none" stroke="grey" points="177,-484 177,-496 "/>
<path fill="none" stroke="grey" d="M177,-496C177,-502 171,-508 165,-508"/>
<polyline fill="none" stroke="grey" points="165,-508 43,-508 "/>
<path fill="none" stroke="grey" d="M43,-508C37,-508 31,-502 31,-496"/>
<polyline fill="none" stroke="grey" points="31,-496 31,-484 "/>
<path fill="none" stroke="grey" d="M31,-484C31,-478 37,-472 43,-472"/>
<text text-anchor="middle" x="42.5" y="-486.9" font-family="Times Roman,serif" font-size="14.00" fill="darkblue">a</text>
<polyline fill="none" stroke="grey" points="54,-472 54,-508 "/>
<text text-anchor="middle" x="82.5" y="-486.9" font-family="Times Roman,serif" font-size="14.00" fill="darkblue">bbbbbb</text>
<polyline fill="none" stroke="grey" points="111,-472 111,-508 "/>
<text text-anchor="middle" x="132.5" y="-486.9" font-family="Times Roman,serif" font-size="14.00" fill="darkblue">c123</text>
<polyline fill="none" stroke="grey" points="154,-472 154,-508 "/>
<text text-anchor="middle" x="165.5" y="-486.9" font-family="Times Roman,serif" font-size="14.00" fill="darkblue">d</text>
</g>
<!-- 0_0_kids&#45;&gt;0_0_0_kids -->
<g id="edge6" class="edge"><title>0_0_kids:port1&#45;&gt;0_0_0_kids:port2</title>
<path fill="none" stroke="grey" d="M97.6069,-545.796C91.5359,-537.947 85.7035,-528.296 83.2346,-518.013"/>
<polygon fill="grey" stroke="grey" points="86.6975,-517.497 82,-508 79.7501,-518.353 86.6975,-517.497"/>
</g>
<!-- 0_0_0_0_kids -->
<g id="node8" class="node"><title>0_0_0_0_kids</title>
<polyline fill="none" stroke="grey" points="12,-398 42,-398 "/>
<path fill="none" stroke="grey" d="M42,-398C48,-398 54,-404 54,-410"/>
<polyline fill="none" stroke="grey" points="54,-410 54,-422 "/>
<path fill="none" stroke="grey" d="M54,-422C54,-428 48,-434 42,-434"/>
<polyline fill="none" stroke="grey" points="42,-434 12,-434 "/>
<path fill="none" stroke="grey" d="M12,-434C6,-434 0,-428 0,-422"/>
<polyline fill="none" stroke="grey" points="0,-422 0,-410 "/>
<path fill="none" stroke="grey" d="M0,-410C0,-404 6,-398 12,-398"/>
<text text-anchor="middle" x="27" y="-412.9" font-family="Times Roman,serif" font-size="14.00" fill="darkblue">%$a</text>
</g>
<!-- 0_0_0_kids&#45;&gt;0_0_0_0_kids -->
<g id="edge8" class="edge"><title>0_0_0_kids:port1&#45;&gt;0_0_0_0_kids:port1</title>
<path fill="none" stroke="grey" d="M42,-471C42,-461.966 40.0929,-452.381 37.6387,-443.788"/>
<polygon fill="grey" stroke="grey" points="40.9675,-442.706 34.5879,-434.247 34.3001,-444.838 40.9675,-442.706"/>
</g>
<!-- 0_0_0_1_kids -->
<g id="node10" class="node"><title>0_0_0_1_kids</title>
<polyline fill="none" stroke="grey" points="14,-324 54,-324 "/>
<path fill="none" stroke="grey" d="M54,-324C60,-324 66,-330 66,-336"/>
<polyline fill="none" stroke="grey" points="66,-336 66,-348 "/>
<path fill="none" stroke="grey" d="M66,-348C66,-354 60,-360 54,-360"/>
<polyline fill="none" stroke="grey" points="54,-360 14,-360 "/>
<path fill="none" stroke="grey" d="M14,-360C8,-360 2,-354 2,-348"/>
<polyline fill="none" stroke="grey" points="2,-348 2,-336 "/>
<path fill="none" stroke="grey" d="M2,-336C2,-330 8,-324 14,-324"/>
<text text-anchor="middle" x="34" y="-338.9" font-family="Times Roman,serif" font-size="14.00" fill="darkblue">$bbbbbb</text>
</g>
<!-- 0_0_0_kids&#45;&gt;0_0_0_1_kids -->
<g id="edge10" class="edge"><title>0_0_0_kids:port2&#45;&gt;0_0_0_1_kids:port1</title>
<path fill="none" stroke="grey" d="M82,-471C82,-433.919 64.3636,-394.394 50.4717,-369.012"/>
<polygon fill="grey" stroke="grey" points="53.3482,-366.989 45.3753,-360.012 47.2568,-370.438 53.3482,-366.989"/>
</g>
<!-- 0_0_0_2_kids -->
<g id="node14" class="node"><title>0_0_0_2_kids</title>
<polyline fill="none" stroke="grey" points="96,-324 126,-324 "/>
<path fill="none" stroke="grey" d="M126,-324C132,-324 138,-330 138,-336"/>
<polyline fill="none" stroke="grey" points="138,-336 138,-348 "/>
<path fill="none" stroke="grey" d="M138,-348C138,-354 132,-360 126,-360"/>
<polyline fill="none" stroke="grey" points="126,-360 96,-360 "/>
<path fill="none" stroke="grey" d="M96,-360C90,-360 84,-354 84,-348"/>
<polyline fill="none" stroke="grey" points="84,-348 84,-336 "/>
<path fill="none" stroke="grey" d="M84,-336C84,-330 90,-324 96,-324"/>
<text text-anchor="middle" x="111" y="-338.9" font-family="Times Roman,serif" font-size="14.00" fill="darkblue">$c123</text>
</g>
<!-- 0_0_0_kids&#45;&gt;0_0_0_2_kids -->
<g id="edge14" class="edge"><title>0_0_0_kids:port3&#45;&gt;0_0_0_2_kids:port1</title>
<path fill="none" stroke="grey" d="M133,-471C133,-435.856 124.967,-396.084 118.61,-370.108"/>
<polygon fill="grey" stroke="grey" points="121.95,-369.04 116.103,-360.205 115.164,-370.758 121.95,-369.04"/>
</g>
<!-- 0_0_0_3_kids -->
<g id="node17" class="node"><title>0_0_0_3_kids</title>
<polyline fill="none" stroke="grey" points="198.5,-398 241.5,-398 "/>
<path fill="none" stroke="grey" d="M241.5,-398C247.5,-398 253.5,-404 253.5,-410"/>
<polyline fill="none" stroke="grey" points="253.5,-410 253.5,-422 "/>
<path fill="none" stroke="grey" d="M253.5,-422C253.5,-428 247.5,-434 241.5,-434"/>
<polyline fill="none" stroke="grey" points="241.5,-434 198.5,-434 "/>
<path fill="none" stroke="grey" d="M198.5,-434C192.5,-434 186.5,-428 186.5,-422"/>
<polyline fill="none" stroke="grey" points="186.5,-422 186.5,-410 "/>
<path fill="none" stroke="grey" d="M186.5,-410C186.5,-404 192.5,-398 198.5,-398"/>
<text text-anchor="middle" x="220" y="-412.9" font-family="Times Roman,serif" font-size="14.00" fill="darkblue">Object: d</text>
</g>
<!-- 0_0_0_kids&#45;&gt;0_0_0_3_kids -->
<g id="edge18" class="edge"><title>0_0_0_kids:port4&#45;&gt;0_0_0_3_kids:port1</title>
<path fill="none" stroke="grey" d="M166,-471C166,-459.305 172.294,-449.184 180.584,-440.927"/>
<polygon fill="grey" stroke="grey" points="183.082,-443.392 188.276,-434.157 178.457,-438.137 183.082,-443.392"/>
</g>
<!-- &amp;CODE(0x1f79240) -->
<g id="node12" class="node"><title>&amp;CODE(0x1f79240)</title>
<ellipse fill="none" stroke="grey" cx="111" cy="-268" rx="92.839" ry="19.0919"/>
<text text-anchor="middle" x="111" y="-264.9" font-family="Times Roman,serif" font-size="14.00" fill="red">&amp;CODE(0x1f79240)</text>
</g>
<!-- 0_0_0_1_kids&#45;&gt;&amp;CODE(0x1f79240) -->
<g id="edge12" class="edge"><title>0_0_0_1_kids:port1&#45;&gt;&amp;CODE(0x1f79240)</title>
<path fill="none" stroke="grey" d="M53.8294,-323.686C63.1326,-314.624 74.355,-303.693 84.3844,-293.924"/>
<polygon fill="grey" stroke="grey" points="87.0484,-296.215 91.7698,-286.731 82.1642,-291.201 87.0484,-296.215"/>
</g>
<!-- 0_0_0_2_kids&#45;&gt;&amp;CODE(0x1f79240) -->
<g id="edge16" class="edge"><title>0_0_0_2_kids:port1&#45;&gt;&amp;CODE(0x1f79240)</title>
<path fill="none" stroke="grey" d="M111,-323.686C111,-315.725 111,-306.321 111,-297.53"/>
<polygon fill="grey" stroke="grey" points="114.5,-297.249 111,-287.249 107.5,-297.249 114.5,-297.249"/>
</g>
<!-- $REF(0x1e206f0) -->
<g id="node19" class="node"><title>$REF(0x1e206f0)</title>
<ellipse fill="none" stroke="grey" cx="237" cy="-342" rx="80.8184" ry="19.0919"/>
<text text-anchor="middle" x="237" y="-338.9" font-family="Times Roman,serif" font-size="14.00" fill="red">$REF(0x1e206f0)</text>
</g>
<!-- 0_0_0_3_kids&#45;&gt;$REF(0x1e206f0) -->
<g id="edge20" class="edge"><title>0_0_0_3_kids:port1&#45;&gt;$REF(0x1e206f0)</title>
<path fill="none" stroke="grey" d="M224.378,-397.686C226.236,-389.487 228.442,-379.757 230.485,-370.743"/>
<polygon fill="grey" stroke="grey" points="233.899,-371.516 232.696,-360.989 227.072,-369.968 233.899,-371.516"/>
</g>
<!-- $REF(0x1e206f0)&#45;&gt;&amp;CODE(0x1f79240) -->
<g id="edge22" class="edge"><title>$REF(0x1e206f0)&#45;&gt;&amp;CODE(0x1f79240)</title>
<path fill="none" stroke="grey" d="M206.82,-324.275C189.927,-314.354 168.666,-301.867 150.466,-291.178"/>
<polygon fill="grey" stroke="grey" points="152.205,-288.141 141.809,-286.094 148.66,-294.177 152.205,-288.141"/>
</g>
<!-- 0_1_0_kids -->
<g id="node24" class="node"><title>0_1_0_kids</title>
<polyline fill="none" stroke="grey" points="232,-472 262,-472 "/>
<path fill="none" stroke="grey" d="M262,-472C268,-472 274,-478 274,-484"/>
<polyline fill="none" stroke="grey" points="274,-484 274,-496 "/>
<path fill="none" stroke="grey" d="M274,-496C274,-502 268,-508 262,-508"/>
<polyline fill="none" stroke="grey" points="262,-508 232,-508 "/>
<path fill="none" stroke="grey" d="M232,-508C226,-508 220,-502 220,-496"/>
<polyline fill="none" stroke="grey" points="220,-496 220,-484 "/>
<path fill="none" stroke="grey" d="M220,-484C220,-478 226,-472 232,-472"/>
<text text-anchor="middle" x="247" y="-486.9" font-family="Times Roman,serif" font-size="14.00" fill="darkblue">b</text>
</g>
<!-- 0_1_kids&#45;&gt;0_1_0_kids -->
<g id="edge26" class="edge"><title>0_1_kids:port1&#45;&gt;0_1_0_kids:port1</title>
<path fill="none" stroke="grey" d="M247,-545.708C247,-537.464 247,-527.538 247,-518.362"/>
<polygon fill="grey" stroke="grey" points="250.5,-518.082 247,-508.082 243.5,-518.082 250.5,-518.082"/>
</g>
<!-- 0_1_0_0_kids -->
<g id="node26" class="node"><title>0_1_0_0_kids</title>
<polyline fill="none" stroke="grey" points="323,-398 353,-398 "/>
<path fill="none" stroke="grey" d="M353,-398C359,-398 365,-404 365,-410"/>
<polyline fill="none" stroke="grey" points="365,-410 365,-422 "/>
<path fill="none" stroke="grey" d="M365,-422C365,-428 359,-434 353,-434"/>
<polyline fill="none" stroke="grey" points="353,-434 323,-434 "/>
<path fill="none" stroke="grey" d="M323,-434C317,-434 311,-428 311,-422"/>
<polyline fill="none" stroke="grey" points="311,-422 311,-410 "/>
<path fill="none" stroke="grey" d="M311,-410C311,-404 317,-398 323,-398"/>
<text text-anchor="middle" x="338" y="-412.9" font-family="Times Roman,serif" font-size="14.00" fill="darkblue">%$b</text>
</g>
<!-- 0_1_0_kids&#45;&gt;0_1_0_0_kids -->
<g id="edge28" class="edge"><title>0_1_0_kids:port1&#45;&gt;0_1_0_0_kids:port1</title>
<path fill="none" stroke="grey" d="M269.494,-471.708C281.065,-462.299 295.33,-450.699 307.841,-440.525"/>
<polygon fill="grey" stroke="grey" points="310.214,-443.106 315.764,-434.082 305.798,-437.675 310.214,-443.106"/>
</g>
<!-- 0_1_0_0_0_kids -->
<g id="node28" class="node"><title>0_1_0_0_0_kids</title>
<polyline fill="none" stroke="grey" points="348,-324 378,-324 "/>
<path fill="none" stroke="grey" d="M378,-324C384,-324 390,-330 390,-336"/>
<polyline fill="none" stroke="grey" points="390,-336 390,-348 "/>
<path fill="none" stroke="grey" d="M390,-348C390,-354 384,-360 378,-360"/>
<polyline fill="none" stroke="grey" points="378,-360 348,-360 "/>
<path fill="none" stroke="grey" d="M348,-360C342,-360 336,-354 336,-348"/>
<polyline fill="none" stroke="grey" points="336,-348 336,-336 "/>
<path fill="none" stroke="grey" d="M336,-336C336,-330 342,-324 348,-324"/>
<text text-anchor="middle" x="363" y="-338.9" font-family="Times Roman,serif" font-size="14.00" fill="darkblue">a</text>
</g>
<!-- 0_1_0_0_kids&#45;&gt;0_1_0_0_0_kids -->
<g id="edge30" class="edge"><title>0_1_0_0_kids:port1&#45;&gt;0_1_0_0_0_kids:port1</title>
<path fill="none" stroke="grey" d="M344.18,-397.708C347.026,-389.284 350.464,-379.105 353.62,-369.765"/>
<polygon fill="grey" stroke="grey" points="357.006,-370.676 356.891,-360.082 350.375,-368.435 357.006,-370.676"/>
</g>
<!-- 0_1_0_0_0_0_kids -->
<g id="node30" class="node"><title>0_1_0_0_0_0_kids</title>
<polyline fill="none" stroke="grey" points="348,-250 378,-250 "/>
<path fill="none" stroke="grey" d="M378,-250C384,-250 390,-256 390,-262"/>
<polyline fill="none" stroke="grey" points="390,-262 390,-274 "/>
<path fill="none" stroke="grey" d="M390,-274C390,-280 384,-286 378,-286"/>
<polyline fill="none" stroke="grey" points="378,-286 348,-286 "/>
<path fill="none" stroke="grey" d="M348,-286C342,-286 336,-280 336,-274"/>
<polyline fill="none" stroke="grey" points="336,-274 336,-262 "/>
<path fill="none" stroke="grey" d="M336,-262C336,-256 342,-250 348,-250"/>
<text text-anchor="middle" x="363" y="-264.9" font-family="Times Roman,serif" font-size="14.00" fill="darkblue">%$a</text>
</g>
<!-- 0_1_0_0_0_kids&#45;&gt;0_1_0_0_0_0_kids -->
<g id="edge32" class="edge"><title>0_1_0_0_0_kids:port1&#45;&gt;0_1_0_0_0_0_kids:port1</title>
<path fill="none" stroke="grey" d="M363,-323.708C363,-315.464 363,-305.538 363,-296.362"/>
<polygon fill="grey" stroke="grey" points="366.5,-296.082 363,-286.082 359.5,-296.082 366.5,-296.082"/>
</g>
<!-- 0_1_0_0_0_0_0_kids -->
<g id="node32" class="node"><title>0_1_0_0_0_0_0_kids</title>
<polyline fill="none" stroke="grey" points="340.5,-176 385.5,-176 "/>
<path fill="none" stroke="grey" d="M385.5,-176C391.5,-176 397.5,-182 397.5,-188"/>
<polyline fill="none" stroke="grey" points="397.5,-188 397.5,-200 "/>
<path fill="none" stroke="grey" d="M397.5,-200C397.5,-206 391.5,-212 385.5,-212"/>
<polyline fill="none" stroke="grey" points="385.5,-212 340.5,-212 "/>
<path fill="none" stroke="grey" d="M340.5,-212C334.5,-212 328.5,-206 328.5,-200"/>
<polyline fill="none" stroke="grey" points="328.5,-200 328.5,-188 "/>
<path fill="none" stroke="grey" d="M328.5,-188C328.5,-182 334.5,-176 340.5,-176"/>
<text text-anchor="middle" x="340" y="-190.9" font-family="Times Roman,serif" font-size="14.00" fill="darkblue">a</text>
<polyline fill="none" stroke="grey" points="351.5,-176 351.5,-212 "/>
<text text-anchor="middle" x="363" y="-190.9" font-family="Times Roman,serif" font-size="14.00" fill="darkblue">b</text>
<polyline fill="none" stroke="grey" points="374.5,-176 374.5,-212 "/>
<text text-anchor="middle" x="386" y="-190.9" font-family="Times Roman,serif" font-size="14.00" fill="darkblue">c</text>
</g>
<!-- 0_1_0_0_0_0_kids&#45;&gt;0_1_0_0_0_0_0_kids -->
<g id="edge34" class="edge"><title>0_1_0_0_0_0_kids:port1&#45;&gt;0_1_0_0_0_0_0_kids:port2</title>
<path fill="none" stroke="grey" d="M363,-249.74C363,-241.628 363,-231.855 363,-222.258"/>
<polygon fill="grey" stroke="grey" points="366.5,-222 363,-212 359.5,-222 366.5,-222"/>
</g>
<!-- 0_1_0_0_0_0_0_0_kids -->
<g id="node34" class="node"><title>0_1_0_0_0_0_0_0_kids</title>
<polyline fill="none" stroke="grey" points="276,-102 306,-102 "/>
<path fill="none" stroke="grey" d="M306,-102C312,-102 318,-108 318,-114"/>
<polyline fill="none" stroke="grey" points="318,-114 318,-126 "/>
<path fill="none" stroke="grey" d="M318,-126C318,-132 312,-138 306,-138"/>
<polyline fill="none" stroke="grey" points="306,-138 276,-138 "/>
<path fill="none" stroke="grey" d="M276,-138C270,-138 264,-132 264,-126"/>
<polyline fill="none" stroke="grey" points="264,-126 264,-114 "/>
<path fill="none" stroke="grey" d="M264,-114C264,-108 270,-102 276,-102"/>
<text text-anchor="middle" x="291" y="-116.9" font-family="Times Roman,serif" font-size="14.00" fill="darkblue">%$a</text>
</g>
<!-- 0_1_0_0_0_0_0_kids&#45;&gt;0_1_0_0_0_0_0_0_kids -->
<g id="edge36" class="edge"><title>0_1_0_0_0_0_0_kids:port1&#45;&gt;0_1_0_0_0_0_0_0_kids:port1</title>
<path fill="none" stroke="grey" d="M340,-175C340,-167.727 330.326,-156.058 319.574,-145.336"/>
<polygon fill="grey" stroke="grey" points="321.704,-142.528 312.065,-138.13 316.857,-147.579 321.704,-142.528"/>
</g>
<!-- 0_1_0_0_0_0_0_1_kids -->
<g id="node36" class="node"><title>0_1_0_0_0_0_0_1_kids</title>
<polyline fill="none" stroke="grey" points="348,-102 378,-102 "/>
<path fill="none" stroke="grey" d="M378,-102C384,-102 390,-108 390,-114"/>
<polyline fill="none" stroke="grey" points="390,-114 390,-126 "/>
<path fill="none" stroke="grey" d="M390,-126C390,-132 384,-138 378,-138"/>
<polyline fill="none" stroke="grey" points="378,-138 348,-138 "/>
<path fill="none" stroke="grey" d="M348,-138C342,-138 336,-132 336,-126"/>
<polyline fill="none" stroke="grey" points="336,-126 336,-114 "/>
<path fill="none" stroke="grey" d="M336,-114C336,-108 342,-102 348,-102"/>
<text text-anchor="middle" x="363" y="-116.9" font-family="Times Roman,serif" font-size="14.00" fill="darkblue">$b</text>
</g>
<!-- 0_1_0_0_0_0_0_kids&#45;&gt;0_1_0_0_0_0_0_1_kids -->
<g id="edge38" class="edge"><title>0_1_0_0_0_0_0_kids:port2&#45;&gt;0_1_0_0_0_0_0_1_kids:port1</title>
<path fill="none" stroke="grey" d="M363,-175C363,-166.406 363,-157.057 363,-148.546"/>
<polygon fill="grey" stroke="grey" points="366.5,-148.333 363,-138.333 359.5,-148.333 366.5,-148.333"/>
</g>
<!-- 0_1_0_0_0_0_0_2_kids -->
<g id="node40" class="node"><title>0_1_0_0_0_0_0_2_kids</title>
<polyline fill="none" stroke="grey" points="420,-102 450,-102 "/>
<path fill="none" stroke="grey" d="M450,-102C456,-102 462,-108 462,-114"/>
<polyline fill="none" stroke="grey" points="462,-114 462,-126 "/>
<path fill="none" stroke="grey" d="M462,-126C462,-132 456,-138 450,-138"/>
<polyline fill="none" stroke="grey" points="450,-138 420,-138 "/>
<path fill="none" stroke="grey" d="M420,-138C414,-138 408,-132 408,-126"/>
<polyline fill="none" stroke="grey" points="408,-126 408,-114 "/>
<path fill="none" stroke="grey" d="M408,-114C408,-108 414,-102 420,-102"/>
<text text-anchor="middle" x="435" y="-116.9" font-family="Times Roman,serif" font-size="14.00" fill="darkblue">42</text>
</g>
<!-- 0_1_0_0_0_0_0_kids&#45;&gt;0_1_0_0_0_0_0_2_kids -->
<g id="edge42" class="edge"><title>0_1_0_0_0_0_0_kids:port3&#45;&gt;0_1_0_0_0_0_0_2_kids:port1</title>
<path fill="none" stroke="grey" d="M386,-175C386,-167.727 395.674,-156.058 406.426,-145.336"/>
<polygon fill="grey" stroke="grey" points="409.143,-147.579 413.935,-138.13 404.296,-142.528 409.143,-147.579"/>
</g>
<!-- &amp;CODE(0x1f78fb8) -->
<g id="node38" class="node"><title>&amp;CODE(0x1f78fb8)</title>
<ellipse fill="none" stroke="grey" cx="363" cy="-46" rx="91.9239" ry="19.0919"/>
<text text-anchor="middle" x="363" y="-42.9" font-family="Times Roman,serif" font-size="14.00" fill="red">&amp;CODE(0x1f78fb8)</text>
</g>
<!-- 0_1_0_0_0_0_0_1_kids&#45;&gt;&amp;CODE(0x1f78fb8) -->
<g id="edge40" class="edge"><title>0_1_0_0_0_0_0_1_kids:port1&#45;&gt;&amp;CODE(0x1f78fb8)</title>
<path fill="none" stroke="grey" d="M363,-101.686C363,-93.7247 363,-84.321 363,-75.53"/>
<polygon fill="grey" stroke="grey" points="366.5,-75.2489 363,-65.2489 359.5,-75.2489 366.5,-75.2489"/>
</g>
<!-- 0_2_0_kids -->
<g id="node44" class="node"><title>0_2_0_kids</title>
<polyline fill="none" stroke="grey" points="304,-472 502,-472 "/>
<path fill="none" stroke="grey" d="M502,-472C508,-472 514,-478 514,-484"/>
<polyline fill="none" stroke="grey" points="514,-484 514,-496 "/>
<path fill="none" stroke="grey" d="M514,-496C514,-502 508,-508 502,-508"/>
<polyline fill="none" stroke="grey" points="502,-508 304,-508 "/>
<path fill="none" stroke="grey" d="M304,-508C298,-508 292,-502 292,-496"/>
<polyline fill="none" stroke="grey" points="292,-496 292,-484 "/>
<path fill="none" stroke="grey" d="M292,-484C292,-478 298,-472 304,-472"/>
<text text-anchor="middle" x="329" y="-486.9" font-family="Times Roman,serif" font-size="14.00" fill="darkblue">element_1</text>
<polyline fill="none" stroke="grey" points="366,-472 366,-508 "/>
<text text-anchor="middle" x="403" y="-486.9" font-family="Times Roman,serif" font-size="14.00" fill="darkblue">element_2</text>
<polyline fill="none" stroke="grey" points="440,-472 440,-508 "/>
<text text-anchor="middle" x="477" y="-486.9" font-family="Times Roman,serif" font-size="14.00" fill="darkblue">element_3</text>
</g>
<!-- 0_2_kids&#45;&gt;0_2_0_kids -->
<g id="edge46" class="edge"><title>0_2_kids:port1&#45;&gt;0_2_0_kids:port2</title>
<path fill="none" stroke="grey" d="M384.456,-545.812C391.822,-538.107 398.779,-528.538 401.635,-517.966"/>
<polygon fill="grey" stroke="grey" points="405.111,-518.382 403,-508 398.176,-517.433 405.111,-518.382"/>
</g>
</g>
</svg>
