<?xml version="1.0" encoding="UTF-8" standalone="no"?>
<!DOCTYPE svg PUBLIC "-//W3C//DTD SVG 1.1//EN"
 "http://www.w3.org/Graphics/SVG/1.1/DTD/svg11.dtd">
<!-- Generated by graphviz version 2.26.3 (20100126.1600)
 -->
<!-- Title: Perl Pages: 1 -->
<svg width="390pt" height="221pt"
 viewBox="0.00 0.00 390.00 221.00" xmlns="http://www.w3.org/2000/svg" xmlns:xlink="http://www.w3.org/1999/xlink">
<g id="graph1" class="graph" transform="scale(1 1) rotate(0) translate(4 217)">
<title>Perl</title>
<polygon fill="white" stroke="white" points="-4,5 -4,-217 387,-217 387,5 -4,5"/>
<text text-anchor="middle" x="191" y="-10.4" font-family="Times Roman,serif" font-size="14.00">Graph produced by GraphViz2::Data::Grapher&#39;s scripts/parse.isa.pl</text>
<!-- Parent -->
<g id="node1" class="node"><title>Parent</title>
<polyline fill="none" stroke="darkblue" points="176,-176 206,-176 "/>
<path fill="none" stroke="darkblue" d="M206,-176C212,-176 218,-182 218,-188"/>
<polyline fill="none" stroke="darkblue" points="218,-188 218,-200 "/>
<path fill="none" stroke="darkblue" d="M218,-200C218,-206 212,-212 206,-212"/>
<polyline fill="none" stroke="darkblue" points="206,-212 176,-212 "/>
<path fill="none" stroke="darkblue" d="M176,-212C170,-212 164,-206 164,-200"/>
<polyline fill="none" stroke="darkblue" points="164,-200 164,-188 "/>
<path fill="none" stroke="darkblue" d="M164,-188C164,-182 170,-176 176,-176"/>
<text text-anchor="middle" x="191" y="-190.9" font-family="Times Roman,serif" font-size="14.00">Parent</text>
</g>
<!-- Parent::Child1 -->
<g id="node2" class="node"><title>Parent::Child1</title>
<polyline fill="none" stroke="darkblue" points="99.5,-102 170.5,-102 "/>
<path fill="none" stroke="darkblue" d="M170.5,-102C176.5,-102 182.5,-108 182.5,-114"/>
<polyline fill="none" stroke="darkblue" points="182.5,-114 182.5,-126 "/>
<path fill="none" stroke="darkblue" d="M182.5,-126C182.5,-132 176.5,-138 170.5,-138"/>
<polyline fill="none" stroke="darkblue" points="170.5,-138 99.5,-138 "/>
<path fill="none" stroke="darkblue" d="M99.5,-138C93.5,-138 87.5,-132 87.5,-126"/>
<polyline fill="none" stroke="darkblue" points="87.5,-126 87.5,-114 "/>
<path fill="none" stroke="darkblue" d="M87.5,-114C87.5,-108 93.5,-102 99.5,-102"/>
<text text-anchor="middle" x="135" y="-116.9" font-family="Times Roman,serif" font-size="14.00">Parent::Child1</text>
</g>
<!-- Parent::Child1&#45;&gt;Parent -->
<g id="edge2" class="edge"><title>Parent::Child1&#45;&gt;Parent</title>
<path fill="none" stroke="grey" d="M148.843,-138.292C155.556,-147.164 163.744,-157.983 171.111,-167.718"/>
<polygon fill="grey" stroke="grey" points="168.491,-170.056 177.317,-175.918 174.073,-165.832 168.491,-170.056"/>
</g>
<!-- Parent::Child2 -->
<g id="node3" class="node"><title>Parent::Child2</title>
<polyline fill="none" stroke="darkblue" points="211.5,-102 282.5,-102 "/>
<path fill="none" stroke="darkblue" d="M282.5,-102C288.5,-102 294.5,-108 294.5,-114"/>
<polyline fill="none" stroke="darkblue" points="294.5,-114 294.5,-126 "/>
<path fill="none" stroke="darkblue" d="M294.5,-126C294.5,-132 288.5,-138 282.5,-138"/>
<polyline fill="none" stroke="darkblue" points="282.5,-138 211.5,-138 "/>
<path fill="none" stroke="darkblue" d="M211.5,-138C205.5,-138 199.5,-132 199.5,-126"/>
<polyline fill="none" stroke="darkblue" points="199.5,-126 199.5,-114 "/>
<path fill="none" stroke="darkblue" d="M199.5,-114C199.5,-108 205.5,-102 211.5,-102"/>
<text text-anchor="middle" x="247" y="-116.9" font-family="Times Roman,serif" font-size="14.00">Parent::Child2</text>
</g>
<!-- Parent::Child2&#45;&gt;Parent -->
<g id="edge4" class="edge"><title>Parent::Child2&#45;&gt;Parent</title>
<path fill="none" stroke="grey" d="M233.157,-138.292C226.444,-147.164 218.256,-157.983 210.889,-167.718"/>
<polygon fill="grey" stroke="grey" points="207.927,-165.832 204.683,-175.918 213.509,-170.056 207.927,-165.832"/>
</g>
<!-- Parent::Child::Grandchild -->
<g id="node4" class="node"><title>Parent::Child::Grandchild</title>
<polyline fill="none" stroke="darkblue" points="124.5,-28 257.5,-28 "/>
<path fill="none" stroke="darkblue" d="M257.5,-28C263.5,-28 269.5,-34 269.5,-40"/>
<polyline fill="none" stroke="darkblue" points="269.5,-40 269.5,-52 "/>
<path fill="none" stroke="darkblue" d="M269.5,-52C269.5,-58 263.5,-64 257.5,-64"/>
<polyline fill="none" stroke="darkblue" points="257.5,-64 124.5,-64 "/>
<path fill="none" stroke="darkblue" d="M124.5,-64C118.5,-64 112.5,-58 112.5,-52"/>
<polyline fill="none" stroke="darkblue" points="112.5,-52 112.5,-40 "/>
<path fill="none" stroke="darkblue" d="M112.5,-40C112.5,-34 118.5,-28 124.5,-28"/>
<text text-anchor="middle" x="191" y="-42.9" font-family="Times Roman,serif" font-size="14.00">Parent::Child::Grandchild</text>
</g>
<!-- Parent::Child::Grandchild&#45;&gt;Parent::Child1 -->
<g id="edge6" class="edge"><title>Parent::Child::Grandchild&#45;&gt;Parent::Child1</title>
<path fill="none" stroke="grey" d="M177.157,-64.2921C170.444,-73.1637 162.256,-83.9826 154.889,-93.718"/>
<polygon fill="grey" stroke="grey" points="151.927,-91.8321 148.683,-101.918 157.509,-96.0563 151.927,-91.8321"/>
</g>
<!-- Parent::Child::Grandchild&#45;&gt;Parent::Child2 -->
<g id="edge8" class="edge"><title>Parent::Child::Grandchild&#45;&gt;Parent::Child2</title>
<path fill="none" stroke="grey" d="M204.843,-64.2921C211.556,-73.1637 219.744,-83.9826 227.111,-93.718"/>
<polygon fill="grey" stroke="grey" points="224.491,-96.0563 233.317,-101.918 230.073,-91.8321 224.491,-96.0563"/>
</g>
</g>
</svg>
