<?xml version="1.0" encoding="UTF-8" standalone="no"?>
<!DOCTYPE svg PUBLIC "-//W3C//DTD SVG 1.1//EN"
 "http://www.w3.org/Graphics/SVG/1.1/DTD/svg11.dtd">
<!-- Generated by graphviz version 2.26.3 (20100126.1600)
 -->
<!-- Title: Perl Pages: 1 -->
<svg width="214pt" height="194pt"
 viewBox="0.00 0.00 214.00 194.00" xmlns="http://www.w3.org/2000/svg" xmlns:xlink="http://www.w3.org/1999/xlink">
<g id="graph1" class="graph" transform="scale(1 1) rotate(0) translate(4 190)">
<title>Perl</title>
<polygon fill="white" stroke="white" points="-4,5 -4,-190 211,-190 211,5 -4,5"/>
<!-- Parent -->
<g id="node1" class="node"><title>Parent</title>
<polyline fill="none" stroke="blue" points="88,-149 118,-149 "/>
<path fill="none" stroke="blue" d="M118,-149C124,-149 130,-155 130,-161"/>
<polyline fill="none" stroke="blue" points="130,-161 130,-173 "/>
<path fill="none" stroke="blue" d="M130,-173C130,-179 124,-185 118,-185"/>
<polyline fill="none" stroke="blue" points="118,-185 88,-185 "/>
<path fill="none" stroke="blue" d="M88,-185C82,-185 76,-179 76,-173"/>
<polyline fill="none" stroke="blue" points="76,-173 76,-161 "/>
<path fill="none" stroke="blue" d="M76,-161C76,-155 82,-149 88,-149"/>
<text text-anchor="middle" x="103" y="-163.9" font-family="Times Roman,serif" font-size="14.00">Parent</text>
</g>
<!-- Parent::Child1 -->
<g id="node2" class="node"><title>Parent::Child1</title>
<polyline fill="none" stroke="blue" points="11.5,-75 82.5,-75 "/>
<path fill="none" stroke="blue" d="M82.5,-75C88.5,-75 94.5,-81 94.5,-87"/>
<polyline fill="none" stroke="blue" points="94.5,-87 94.5,-99 "/>
<path fill="none" stroke="blue" d="M94.5,-99C94.5,-105 88.5,-111 82.5,-111"/>
<polyline fill="none" stroke="blue" points="82.5,-111 11.5,-111 "/>
<path fill="none" stroke="blue" d="M11.5,-111C5.5,-111 -0.5,-105 -0.5,-99"/>
<polyline fill="none" stroke="blue" points="-0.5,-99 -0.5,-87 "/>
<path fill="none" stroke="blue" d="M-0.5,-87C-0.5,-81 5.5,-75 11.5,-75"/>
<text text-anchor="middle" x="47" y="-89.9" font-family="Times Roman,serif" font-size="14.00">Parent::Child1</text>
</g>
<!-- Parent::Child1&#45;&gt;Parent -->
<g id="edge2" class="edge"><title>Parent::Child1&#45;&gt;Parent</title>
<path fill="none" stroke="grey" d="M60.8427,-111.292C67.5563,-120.164 75.7436,-130.983 83.1109,-140.718"/>
<polygon fill="grey" stroke="grey" points="80.4911,-143.056 89.3165,-148.918 86.073,-138.832 80.4911,-143.056"/>
</g>
<!-- Parent::Child2 -->
<g id="node3" class="node"><title>Parent::Child2</title>
<polyline fill="none" stroke="blue" points="123.5,-75 194.5,-75 "/>
<path fill="none" stroke="blue" d="M194.5,-75C200.5,-75 206.5,-81 206.5,-87"/>
<polyline fill="none" stroke="blue" points="206.5,-87 206.5,-99 "/>
<path fill="none" stroke="blue" d="M206.5,-99C206.5,-105 200.5,-111 194.5,-111"/>
<polyline fill="none" stroke="blue" points="194.5,-111 123.5,-111 "/>
<path fill="none" stroke="blue" d="M123.5,-111C117.5,-111 111.5,-105 111.5,-99"/>
<polyline fill="none" stroke="blue" points="111.5,-99 111.5,-87 "/>
<path fill="none" stroke="blue" d="M111.5,-87C111.5,-81 117.5,-75 123.5,-75"/>
<text text-anchor="middle" x="159" y="-89.9" font-family="Times Roman,serif" font-size="14.00">Parent::Child2</text>
</g>
<!-- Parent::Child2&#45;&gt;Parent -->
<g id="edge4" class="edge"><title>Parent::Child2&#45;&gt;Parent</title>
<path fill="none" stroke="grey" d="M145.157,-111.292C138.444,-120.164 130.256,-130.983 122.889,-140.718"/>
<polygon fill="grey" stroke="grey" points="119.927,-138.832 116.683,-148.918 125.509,-143.056 119.927,-138.832"/>
</g>
<!-- Parent::Child::Grandchild -->
<g id="node4" class="node"><title>Parent::Child::Grandchild</title>
<polyline fill="none" stroke="blue" points="36.5,-1 169.5,-1 "/>
<path fill="none" stroke="blue" d="M169.5,-1C175.5,-1 181.5,-7 181.5,-13"/>
<polyline fill="none" stroke="blue" points="181.5,-13 181.5,-25 "/>
<path fill="none" stroke="blue" d="M181.5,-25C181.5,-31 175.5,-37 169.5,-37"/>
<polyline fill="none" stroke="blue" points="169.5,-37 36.5,-37 "/>
<path fill="none" stroke="blue" d="M36.5,-37C30.5,-37 24.5,-31 24.5,-25"/>
<polyline fill="none" stroke="blue" points="24.5,-25 24.5,-13 "/>
<path fill="none" stroke="blue" d="M24.5,-13C24.5,-7 30.5,-1 36.5,-1"/>
<text text-anchor="middle" x="103" y="-15.9" font-family="Times Roman,serif" font-size="14.00">Parent::Child::Grandchild</text>
</g>
<!-- Parent::Child::Grandchild&#45;&gt;Parent::Child1 -->
<g id="edge6" class="edge"><title>Parent::Child::Grandchild&#45;&gt;Parent::Child1</title>
<path fill="none" stroke="grey" d="M89.1573,-37.2921C82.4437,-46.1637 74.2564,-56.9826 66.8891,-66.718"/>
<polygon fill="grey" stroke="grey" points="63.927,-64.8321 60.6835,-74.9183 69.5089,-69.0563 63.927,-64.8321"/>
</g>
<!-- Parent::Child::Grandchild&#45;&gt;Parent::Child2 -->
<g id="edge8" class="edge"><title>Parent::Child::Grandchild&#45;&gt;Parent::Child2</title>
<path fill="none" stroke="grey" d="M116.843,-37.2921C123.556,-46.1637 131.744,-56.9826 139.111,-66.718"/>
<polygon fill="grey" stroke="grey" points="136.491,-69.0563 145.317,-74.9183 142.073,-64.8321 136.491,-69.0563"/>
</g>
</g>
</svg>
