<?xml version="1.0" encoding="UTF-8" standalone="no"?>
<!DOCTYPE svg PUBLIC "-//W3C//DTD SVG 1.1//EN"
 "http://www.w3.org/Graphics/SVG/1.1/DTD/svg11.dtd">
<!-- Generated by graphviz version 2.26.3 (20100126.1600)
 -->
<!-- Title: Perl Pages: 1 -->
<svg width="424pt" height="529pt"
 viewBox="0.00 0.00 424.00 529.00" xmlns="http://www.w3.org/2000/svg" xmlns:xlink="http://www.w3.org/1999/xlink">
<g id="graph1" class="graph" transform="scale(1 1) rotate(0) translate(4 525)">
<title>Perl</title>
<polygon fill="white" stroke="white" points="-4,5 -4,-525 421,-525 421,5 -4,5"/>
<text text-anchor="middle" x="208" y="-10.4" font-family="Times Roman,serif" font-size="14.00">Graph produced by GraphViz2::Data::Grapher&#39;s scripts/parse.xml.bare.pl</text>
<!-- 0 -->
<g id="node1" class="node"><title>0</title>
<polygon fill="none" stroke="green" points="269.377,-487.44 269.377,-504.56 237.816,-516.665 193.184,-516.665 161.623,-504.56 161.623,-487.44 193.184,-475.335 237.816,-475.335 269.377,-487.44"/>
<polygon fill="none" stroke="green" points="273.342,-484.682 273.342,-507.318 238.545,-520.665 192.455,-520.665 157.658,-507.318 157.658,-484.682 192.455,-471.335 238.545,-471.335 273.342,-484.682"/>
<text text-anchor="middle" x="215.5" y="-492.9" font-family="Times Roman,serif" font-size="14.00">%$person</text>
</g>
<!-- 0_kids -->
<g id="node2" class="node"><title>0_kids</title>
<polyline fill="none" stroke="grey" points="199.5,-398 279.5,-398 "/>
<path fill="none" stroke="grey" d="M279.5,-398C285.5,-398 291.5,-404 291.5,-410"/>
<polyline fill="none" stroke="grey" points="291.5,-410 291.5,-422 "/>
<path fill="none" stroke="grey" d="M291.5,-422C291.5,-428 285.5,-434 279.5,-434"/>
<polyline fill="none" stroke="grey" points="279.5,-434 199.5,-434 "/>
<path fill="none" stroke="grey" d="M199.5,-434C193.5,-434 187.5,-428 187.5,-422"/>
<polyline fill="none" stroke="grey" points="187.5,-422 187.5,-410 "/>
<path fill="none" stroke="grey" d="M187.5,-410C187.5,-404 193.5,-398 199.5,-398"/>
<text text-anchor="middle" x="216" y="-412.9" font-family="Times Roman,serif" font-size="14.00" fill="darkblue">address</text>
<polyline fill="none" stroke="grey" points="244.5,-398 244.5,-434 "/>
<text text-anchor="middle" x="268" y="-412.9" font-family="Times Roman,serif" font-size="14.00" fill="darkblue">name</text>
</g>
<!-- 0&#45;&gt;0_kids -->
<g id="edge2" class="edge"><title>0&#45;&gt;0_kids:port1</title>
<path fill="none" stroke="grey" d="M215.5,-471.261C215.5,-463.012 215.5,-453.558 215.5,-444.298"/>
<polygon fill="grey" stroke="grey" points="219,-444 215.5,-434 212,-444 219,-444"/>
</g>
<!-- 0_0_kids -->
<g id="node4" class="node"><title>0_0_kids</title>
<polyline fill="none" stroke="grey" points="163.5,-324 215.5,-324 "/>
<path fill="none" stroke="grey" d="M215.5,-324C221.5,-324 227.5,-330 227.5,-336"/>
<polyline fill="none" stroke="grey" points="227.5,-336 227.5,-348 "/>
<path fill="none" stroke="grey" d="M227.5,-348C227.5,-354 221.5,-360 215.5,-360"/>
<polyline fill="none" stroke="grey" points="215.5,-360 163.5,-360 "/>
<path fill="none" stroke="grey" d="M163.5,-360C157.5,-360 151.5,-354 151.5,-348"/>
<polyline fill="none" stroke="grey" points="151.5,-348 151.5,-336 "/>
<path fill="none" stroke="grey" d="M151.5,-336C151.5,-330 157.5,-324 163.5,-324"/>
<text text-anchor="middle" x="189.5" y="-338.9" font-family="Times Roman,serif" font-size="14.00" fill="darkblue">%$address</text>
</g>
<!-- 0_kids&#45;&gt;0_0_kids -->
<g id="edge4" class="edge"><title>0_kids:port1&#45;&gt;0_0_kids:port1</title>
<path fill="none" stroke="grey" d="M215.5,-397C215.5,-387.382 212.21,-377.647 207.971,-369.096"/>
<polygon fill="grey" stroke="grey" points="211.025,-367.385 203.109,-360.343 204.905,-370.784 211.025,-367.385"/>
</g>
<!-- 0_1_kids -->
<g id="node20" class="node"><title>0_1_kids</title>
<polyline fill="none" stroke="grey" points="274,-324 315,-324 "/>
<path fill="none" stroke="grey" d="M315,-324C321,-324 327,-330 327,-336"/>
<polyline fill="none" stroke="grey" points="327,-336 327,-348 "/>
<path fill="none" stroke="grey" d="M327,-348C327,-354 321,-360 315,-360"/>
<polyline fill="none" stroke="grey" points="315,-360 274,-360 "/>
<path fill="none" stroke="grey" d="M274,-360C268,-360 262,-354 262,-348"/>
<polyline fill="none" stroke="grey" points="262,-348 262,-336 "/>
<path fill="none" stroke="grey" d="M262,-336C262,-330 268,-324 274,-324"/>
<text text-anchor="middle" x="294.5" y="-338.9" font-family="Times Roman,serif" font-size="14.00" fill="darkblue">%$name</text>
</g>
<!-- 0_kids&#45;&gt;0_1_kids -->
<g id="edge20" class="edge"><title>0_kids:port2&#45;&gt;0_1_kids:port1</title>
<path fill="none" stroke="grey" d="M268.5,-397C268.5,-387.382 271.79,-377.647 276.029,-369.096"/>
<polygon fill="grey" stroke="grey" points="279.095,-370.784 280.891,-360.343 272.975,-367.385 279.095,-370.784"/>
</g>
<!-- 0_0_0_kids -->
<g id="node6" class="node"><title>0_0_0_kids</title>
<polyline fill="none" stroke="grey" points="102.5,-250 214.5,-250 "/>
<path fill="none" stroke="grey" d="M214.5,-250C220.5,-250 226.5,-256 226.5,-262"/>
<polyline fill="none" stroke="grey" points="226.5,-262 226.5,-274 "/>
<path fill="none" stroke="grey" d="M226.5,-274C226.5,-280 220.5,-286 214.5,-286"/>
<polyline fill="none" stroke="grey" points="214.5,-286 102.5,-286 "/>
<path fill="none" stroke="grey" d="M102.5,-286C96.5,-286 90.5,-280 90.5,-274"/>
<polyline fill="none" stroke="grey" points="90.5,-274 90.5,-262 "/>
<path fill="none" stroke="grey" d="M90.5,-262C90.5,-256 96.5,-250 102.5,-250"/>
<text text-anchor="middle" x="109" y="-264.9" font-family="Times Roman,serif" font-size="14.00" fill="darkblue">city</text>
<polyline fill="none" stroke="grey" points="127.5,-250 127.5,-286 "/>
<text text-anchor="middle" x="156.5" y="-264.9" font-family="Times Roman,serif" font-size="14.00" fill="darkblue">country</text>
<polyline fill="none" stroke="grey" points="185.5,-250 185.5,-286 "/>
<text text-anchor="middle" x="206" y="-264.9" font-family="Times Roman,serif" font-size="14.00" fill="darkblue">state</text>
</g>
<!-- 0_0_kids&#45;&gt;0_0_0_kids -->
<g id="edge6" class="edge"><title>0_0_kids:port1&#45;&gt;0_0_0_kids:port2</title>
<path fill="none" stroke="grey" d="M171.841,-323.964C165.895,-316.072 160.151,-306.351 157.717,-296.034"/>
<polygon fill="grey" stroke="grey" points="161.179,-295.506 156.5,-286 154.23,-296.349 161.179,-295.506"/>
</g>
<!-- 0_0_0_0_kids -->
<g id="node8" class="node"><title>0_0_0_0_kids</title>
<polyline fill="none" stroke="grey" points="53.5,-176 85.5,-176 "/>
<path fill="none" stroke="grey" d="M85.5,-176C91.5,-176 97.5,-182 97.5,-188"/>
<polyline fill="none" stroke="grey" points="97.5,-188 97.5,-200 "/>
<path fill="none" stroke="grey" d="M97.5,-200C97.5,-206 91.5,-212 85.5,-212"/>
<polyline fill="none" stroke="grey" points="85.5,-212 53.5,-212 "/>
<path fill="none" stroke="grey" d="M53.5,-212C47.5,-212 41.5,-206 41.5,-200"/>
<polyline fill="none" stroke="grey" points="41.5,-200 41.5,-188 "/>
<path fill="none" stroke="grey" d="M41.5,-188C41.5,-182 47.5,-176 53.5,-176"/>
<text text-anchor="middle" x="69.5" y="-190.9" font-family="Times Roman,serif" font-size="14.00" fill="darkblue">%$city</text>
</g>
<!-- 0_0_0_kids&#45;&gt;0_0_0_0_kids -->
<g id="edge8" class="edge"><title>0_0_0_kids:port1&#45;&gt;0_0_0_0_kids:port1</title>
<path fill="none" stroke="grey" d="M108.5,-249C108.5,-238.465 103.68,-228.54 97.4285,-220.097"/>
<polygon fill="grey" stroke="grey" points="99.919,-217.619 90.8257,-212.182 94.5436,-222.103 99.919,-217.619"/>
</g>
<!-- 0_0_0_1_kids -->
<g id="node16" class="node"><title>0_0_0_1_kids</title>
<polyline fill="none" stroke="grey" points="127.5,-176 169.5,-176 "/>
<path fill="none" stroke="grey" d="M169.5,-176C175.5,-176 181.5,-182 181.5,-188"/>
<polyline fill="none" stroke="grey" points="181.5,-188 181.5,-200 "/>
<path fill="none" stroke="grey" d="M181.5,-200C181.5,-206 175.5,-212 169.5,-212"/>
<polyline fill="none" stroke="grey" points="169.5,-212 127.5,-212 "/>
<path fill="none" stroke="grey" d="M127.5,-212C121.5,-212 115.5,-206 115.5,-200"/>
<polyline fill="none" stroke="grey" points="115.5,-200 115.5,-188 "/>
<path fill="none" stroke="grey" d="M115.5,-188C115.5,-182 121.5,-176 127.5,-176"/>
<text text-anchor="middle" x="148.5" y="-190.9" font-family="Times Roman,serif" font-size="14.00" fill="darkblue">Australia</text>
</g>
<!-- 0_0_0_kids&#45;&gt;0_0_0_1_kids -->
<g id="edge16" class="edge"><title>0_0_0_kids:port2&#45;&gt;0_0_0_1_kids:port1</title>
<path fill="none" stroke="grey" d="M156.5,-249C156.5,-240.219 155.489,-230.731 154.186,-222.149"/>
<polygon fill="grey" stroke="grey" points="157.627,-221.508 152.5,-212.237 150.727,-222.682 157.627,-221.508"/>
</g>
<!-- 0_0_0_2_kids -->
<g id="node18" class="node"><title>0_0_0_2_kids</title>
<polyline fill="none" stroke="grey" points="211,-176 248,-176 "/>
<path fill="none" stroke="grey" d="M248,-176C254,-176 260,-182 260,-188"/>
<polyline fill="none" stroke="grey" points="260,-188 260,-200 "/>
<path fill="none" stroke="grey" d="M260,-200C260,-206 254,-212 248,-212"/>
<polyline fill="none" stroke="grey" points="248,-212 211,-212 "/>
<path fill="none" stroke="grey" d="M211,-212C205,-212 199,-206 199,-200"/>
<polyline fill="none" stroke="grey" points="199,-200 199,-188 "/>
<path fill="none" stroke="grey" d="M199,-188C199,-182 205,-176 211,-176"/>
<text text-anchor="middle" x="229.5" y="-190.9" font-family="Times Roman,serif" font-size="14.00" fill="darkblue">Victoria</text>
</g>
<!-- 0_0_0_kids&#45;&gt;0_0_0_2_kids -->
<g id="edge18" class="edge"><title>0_0_0_kids:port3&#45;&gt;0_0_0_2_kids:port1</title>
<path fill="none" stroke="grey" d="M206.5,-249C206.5,-239.525 209.441,-229.793 213.22,-221.2"/>
<polygon fill="grey" stroke="grey" points="216.446,-222.572 217.73,-212.056 210.168,-219.476 216.446,-222.572"/>
</g>
<!-- 0_0_0_0_0_kids -->
<g id="node10" class="node"><title>0_0_0_0_0_kids</title>
<polyline fill="none" stroke="grey" points="53.5,-102 151.5,-102 "/>
<path fill="none" stroke="grey" d="M151.5,-102C157.5,-102 163.5,-108 163.5,-114"/>
<polyline fill="none" stroke="grey" points="163.5,-114 163.5,-126 "/>
<path fill="none" stroke="grey" d="M163.5,-126C163.5,-132 157.5,-138 151.5,-138"/>
<polyline fill="none" stroke="grey" points="151.5,-138 53.5,-138 "/>
<path fill="none" stroke="grey" d="M53.5,-138C47.5,-138 41.5,-132 41.5,-126"/>
<polyline fill="none" stroke="grey" points="41.5,-126 41.5,-114 "/>
<path fill="none" stroke="grey" d="M41.5,-114C41.5,-108 47.5,-102 53.5,-102"/>
<text text-anchor="middle" x="70" y="-116.9" font-family="Times Roman,serif" font-size="14.00" fill="darkblue">locality</text>
<polyline fill="none" stroke="grey" points="98.5,-102 98.5,-138 "/>
<text text-anchor="middle" x="131" y="-116.9" font-family="Times Roman,serif" font-size="14.00" fill="darkblue">postcode</text>
</g>
<!-- 0_0_0_0_kids&#45;&gt;0_0_0_0_0_kids -->
<g id="edge10" class="edge"><title>0_0_0_0_kids:port1&#45;&gt;0_0_0_0_0_kids:port1</title>
<path fill="none" stroke="grey" d="M69.5,-175.74C69.5,-167.628 69.5,-157.855 69.5,-148.258"/>
<polygon fill="grey" stroke="grey" points="73.0001,-148 69.5,-138 66.0001,-148 73.0001,-148"/>
</g>
<!-- 0_0_0_0_0_0_kids -->
<g id="node12" class="node"><title>0_0_0_0_0_0_kids</title>
<polyline fill="none" stroke="grey" points="19,-28 90,-28 "/>
<path fill="none" stroke="grey" d="M90,-28C96,-28 102,-34 102,-40"/>
<polyline fill="none" stroke="grey" points="102,-40 102,-52 "/>
<path fill="none" stroke="grey" d="M102,-52C102,-58 96,-64 90,-64"/>
<polyline fill="none" stroke="grey" points="90,-64 19,-64 "/>
<path fill="none" stroke="grey" d="M19,-64C13,-64 7,-58 7,-52"/>
<polyline fill="none" stroke="grey" points="7,-52 7,-40 "/>
<path fill="none" stroke="grey" d="M7,-40C7,-34 13,-28 19,-28"/>
<text text-anchor="middle" x="54.5" y="-42.9" font-family="Times Roman,serif" font-size="14.00" fill="darkblue">Murrumbeena</text>
</g>
<!-- 0_0_0_0_0_kids&#45;&gt;0_0_0_0_0_0_kids -->
<g id="edge12" class="edge"><title>0_0_0_0_0_kids:port1&#45;&gt;0_0_0_0_0_0_kids:port1</title>
<path fill="none" stroke="grey" d="M69.5,-101C69.5,-91.9656 67.5929,-82.3812 65.1387,-73.7877"/>
<polygon fill="grey" stroke="grey" points="68.4675,-72.706 62.0879,-64.2472 61.8001,-74.8381 68.4675,-72.706"/>
</g>
<!-- 0_0_0_0_0_1_kids -->
<g id="node14" class="node"><title>0_0_0_0_0_1_kids</title>
<polyline fill="none" stroke="grey" points="131.5,-28 161.5,-28 "/>
<path fill="none" stroke="grey" d="M161.5,-28C167.5,-28 173.5,-34 173.5,-40"/>
<polyline fill="none" stroke="grey" points="173.5,-40 173.5,-52 "/>
<path fill="none" stroke="grey" d="M173.5,-52C173.5,-58 167.5,-64 161.5,-64"/>
<polyline fill="none" stroke="grey" points="161.5,-64 131.5,-64 "/>
<path fill="none" stroke="grey" d="M131.5,-64C125.5,-64 119.5,-58 119.5,-52"/>
<polyline fill="none" stroke="grey" points="119.5,-52 119.5,-40 "/>
<path fill="none" stroke="grey" d="M119.5,-40C119.5,-34 125.5,-28 131.5,-28"/>
<text text-anchor="middle" x="146.5" y="-42.9" font-family="Times Roman,serif" font-size="14.00" fill="darkblue">3163</text>
</g>
<!-- 0_0_0_0_0_kids&#45;&gt;0_0_0_0_0_1_kids -->
<g id="edge14" class="edge"><title>0_0_0_0_0_kids:port2&#45;&gt;0_0_0_0_0_1_kids:port1</title>
<path fill="none" stroke="grey" d="M131.5,-101C131.5,-91.9656 133.407,-82.3812 135.861,-73.7877"/>
<polygon fill="grey" stroke="grey" points="139.2,-74.8381 138.912,-64.2472 132.533,-72.706 139.2,-74.8381"/>
</g>
<!-- 0_1_0_kids -->
<g id="node22" class="node"><title>0_1_0_kids</title>
<polyline fill="none" stroke="grey" points="274.5,-250 396.5,-250 "/>
<path fill="none" stroke="grey" d="M396.5,-250C402.5,-250 408.5,-256 408.5,-262"/>
<polyline fill="none" stroke="grey" points="408.5,-262 408.5,-274 "/>
<path fill="none" stroke="grey" d="M408.5,-274C408.5,-280 402.5,-286 396.5,-286"/>
<polyline fill="none" stroke="grey" points="396.5,-286 274.5,-286 "/>
<path fill="none" stroke="grey" d="M274.5,-286C268.5,-286 262.5,-280 262.5,-274"/>
<polyline fill="none" stroke="grey" points="262.5,-274 262.5,-262 "/>
<path fill="none" stroke="grey" d="M262.5,-262C262.5,-256 268.5,-250 274.5,-250"/>
<text text-anchor="middle" x="304" y="-264.9" font-family="Times Roman,serif" font-size="14.00" fill="darkblue">given_name</text>
<polyline fill="none" stroke="grey" points="345.5,-250 345.5,-286 "/>
<text text-anchor="middle" x="377" y="-264.9" font-family="Times Roman,serif" font-size="14.00" fill="darkblue">surname</text>
</g>
<!-- 0_1_kids&#45;&gt;0_1_0_kids -->
<g id="edge22" class="edge"><title>0_1_kids:port1&#45;&gt;0_1_0_kids:port1</title>
<path fill="none" stroke="grey" d="M299.053,-323.858C300.71,-315.689 302.357,-305.801 303.096,-296.043"/>
<polygon fill="grey" stroke="grey" points="306.595,-296.133 303.5,-286 299.601,-295.851 306.595,-296.133"/>
</g>
<!-- 0_1_0_0_kids -->
<g id="node24" class="node"><title>0_1_0_0_kids</title>
<polyline fill="none" stroke="grey" points="289.5,-176 319.5,-176 "/>
<path fill="none" stroke="grey" d="M319.5,-176C325.5,-176 331.5,-182 331.5,-188"/>
<polyline fill="none" stroke="grey" points="331.5,-188 331.5,-200 "/>
<path fill="none" stroke="grey" d="M331.5,-200C331.5,-206 325.5,-212 319.5,-212"/>
<polyline fill="none" stroke="grey" points="319.5,-212 289.5,-212 "/>
<path fill="none" stroke="grey" d="M289.5,-212C283.5,-212 277.5,-206 277.5,-200"/>
<polyline fill="none" stroke="grey" points="277.5,-200 277.5,-188 "/>
<path fill="none" stroke="grey" d="M277.5,-188C277.5,-182 283.5,-176 289.5,-176"/>
<text text-anchor="middle" x="304.5" y="-190.9" font-family="Times Roman,serif" font-size="14.00" fill="darkblue">Ron</text>
</g>
<!-- 0_1_0_kids&#45;&gt;0_1_0_0_kids -->
<g id="edge24" class="edge"><title>0_1_0_kids:port1&#45;&gt;0_1_0_0_kids:port1</title>
<path fill="none" stroke="grey" d="M303.5,-249C303.5,-240.405 303.624,-231.055 303.784,-222.544"/>
<polygon fill="grey" stroke="grey" points="307.288,-222.404 304,-212.332 300.289,-222.255 307.288,-222.404"/>
</g>
<!-- 0_1_0_1_kids -->
<g id="node26" class="node"><title>0_1_0_1_kids</title>
<polyline fill="none" stroke="grey" points="361.5,-176 393.5,-176 "/>
<path fill="none" stroke="grey" d="M393.5,-176C399.5,-176 405.5,-182 405.5,-188"/>
<polyline fill="none" stroke="grey" points="405.5,-188 405.5,-200 "/>
<path fill="none" stroke="grey" d="M405.5,-200C405.5,-206 399.5,-212 393.5,-212"/>
<polyline fill="none" stroke="grey" points="393.5,-212 361.5,-212 "/>
<path fill="none" stroke="grey" d="M361.5,-212C355.5,-212 349.5,-206 349.5,-200"/>
<polyline fill="none" stroke="grey" points="349.5,-200 349.5,-188 "/>
<path fill="none" stroke="grey" d="M349.5,-188C349.5,-182 355.5,-176 361.5,-176"/>
<text text-anchor="middle" x="377.5" y="-190.9" font-family="Times Roman,serif" font-size="14.00" fill="darkblue">Savage</text>
</g>
<!-- 0_1_0_kids&#45;&gt;0_1_0_1_kids -->
<g id="edge26" class="edge"><title>0_1_0_kids:port2&#45;&gt;0_1_0_1_kids:port1</title>
<path fill="none" stroke="grey" d="M377.5,-249C377.5,-240.406 377.5,-231.057 377.5,-222.546"/>
<polygon fill="grey" stroke="grey" points="381,-222.333 377.5,-212.333 374,-222.333 381,-222.333"/>
</g>
</g>
</svg>
