<?xml version="1.0" encoding="UTF-8" standalone="no"?>
<!DOCTYPE svg PUBLIC "-//W3C//DTD SVG 1.1//EN"
 "http://www.w3.org/Graphics/SVG/1.1/DTD/svg11.dtd">
<!-- Generated by graphviz version 2.26.3 (20100126.1600)
 -->
<!-- Title: Perl Pages: 1 -->
<svg width="375pt" height="199pt"
 viewBox="0.00 0.00 375.00 199.00" xmlns="http://www.w3.org/2000/svg" xmlns:xlink="http://www.w3.org/1999/xlink">
<g id="graph1" class="graph" transform="scale(1 1) rotate(0) translate(4 195)">
<title>Perl</title>
<polygon fill="white" stroke="white" points="-4,5 -4,-195 372,-195 372,5 -4,5"/>
<text text-anchor="middle" x="183.5" y="-10.4" font-family="Times Roman,serif" font-size="14.00">Graph produced by GraphViz2::Data::Grapher&#39;s scripts/trivial.pl</text>
<!-- Carnegie -->
<g id="node1" class="node"><title>Carnegie</title>
<ellipse fill="red" stroke="red" cx="128.5" cy="-73" rx="45.9619" ry="45.9619"/>
<text text-anchor="middle" x="128.5" y="-69.9" font-family="Times Roman,serif" font-size="14.00">Carnegie</text>
</g>
<!-- Murrumbeena -->
<g id="node2" class="node"><title>Murrumbeena</title>
<polyline fill="none" stroke="green" points="218.5,-191 148.5,-191 "/>
<path fill="none" stroke="green" d="M148.5,-191C142.5,-191 136.5,-185 136.5,-179"/>
<polyline fill="none" stroke="green" points="136.5,-179 136.5,-167 "/>
<path fill="none" stroke="green" d="M136.5,-167C136.5,-161 142.5,-155 148.5,-155"/>
<polyline fill="none" stroke="green" points="148.5,-155 218.5,-155 "/>
<path fill="none" stroke="green" d="M218.5,-155C224.5,-155 230.5,-161 230.5,-167"/>
<polyline fill="none" stroke="green" points="230.5,-167 230.5,-179 "/>
<path fill="none" stroke="green" d="M230.5,-179C230.5,-185 224.5,-191 218.5,-191"/>
<text text-anchor="middle" x="183.5" y="-169.9" font-family="Times Roman,serif" font-size="14.00">Murrumbeena</text>
</g>
<!-- Murrumbeena&#45;&gt;Carnegie -->
<g id="edge2" class="edge"><title>Murrumbeena&#45;&gt;Carnegie</title>
<path fill="none" stroke="grey" d="M173.412,-154.658C169.656,-147.829 165.163,-139.66 160.493,-131.169"/>
<polygon fill="grey" stroke="grey" points="166.608,-127.762 150.836,-113.611 154.341,-134.509 166.608,-127.762"/>
</g>
<!-- Oakleigh -->
<g id="node3" class="node"><title>Oakleigh</title>
<ellipse fill="none" stroke="blue" cx="238.5" cy="-73" rx="46.1672" ry="19.0919"/>
<text text-anchor="middle" x="238.5" y="-69.9" font-family="Times Roman,serif" font-size="14.00">Oakleigh</text>
</g>
<!-- Murrumbeena&#45;&gt;Oakleigh -->
<g id="edge4" class="edge"><title>Murrumbeena&#45;&gt;Oakleigh</title>
<path fill="none" stroke="brown" d="M193.588,-154.658C197.979,-146.674 203.377,-136.859 208.889,-126.838"/>
<polygon fill="brown" stroke="brown" points="221.28,-133.359 228.29,-91.5639 196.746,-119.866 221.28,-133.359"/>
</g>
</g>
</svg>
